<svg width="140" height="16" viewBox="0 0 140 16" fill="none" xmlns="http://www.w3.org/2000/svg">
<g clip-path="url(#clip0_1_439)">
<path d="M15.2853 9.91032H10.8705C10.8513 10.27 10.761 10.622 10.6051 10.9452C10.4491 11.2684 10.2307 11.556 9.9629 11.7909C9.69309 12.0277 9.37976 12.2073 9.04118 12.3193C8.7026 12.4313 8.34555 12.4734 7.99083 12.4432C5.87032 12.4432 4.68152 10.8605 4.68152 8.0654V7.89555C4.68152 5.07832 5.9367 3.51771 7.93049 3.51771C8.26343 3.49061 8.59827 3.53403 8.91397 3.64523C9.22966 3.75642 9.5194 3.933 9.76497 4.16386C10.2598 4.63032 10.535 5.28386 10.5277 5.96571H15.0934C14.7253 1.87094 11.9338 0.0087856 7.90997 0.0087856C6.86565 -0.0437437 5.82195 0.124401 4.84436 0.502668C3.86678 0.880935 2.9764 1.46116 2.22911 2.20694C1.48713 2.94679 0.90583 3.83734 0.522865 4.8209C0.1399 5.80446 -0.036189 6.85909 0.00600545 7.91648V8.08879C0.00600545 12.8371 2.66842 16.0002 8.08014 16.0002C12.0834 16.0002 14.9836 13.9152 15.2853 9.91032ZM23.7903 15.7392V9.63463H28.8762V15.7392H33.3079V0.246324H28.8762V6.16263H23.7891V0.246324H19.3308V15.7343L23.7903 15.7392V15.7392ZM51.9593 9.39094V0.246324H47.4793V9.19648C47.4793 11.5152 46.8891 12.5109 45.0558 12.5109C43.1731 12.5109 42.6312 11.45 42.6312 9.26048V0.246324H38.2007V9.45494C38.197 13.7897 40.6832 16.0002 45.057 16.0002C49.321 16.0002 51.9605 13.8968 51.9605 9.39094H51.9593ZM67.1348 15.7392V12.2943H61.291V0.245093H56.8327V15.7343L67.1348 15.7392V15.7392ZM77.7688 3.84386L79.4584 9.80078H76.061L77.7688 3.84386V3.84386ZM70.2365 15.7405H74.3726L75.1945 12.8592H80.3238L81.1457 15.7392H85.8417L80.9296 0.254939H75.1945L70.2365 15.7417V15.7405ZM93.8217 15.7405V9.26171L98.28 15.7405H103.408L97.4448 7.44017L103.114 0.246324H98.4779L93.8241 6.37925V0.246324H89.3682V15.7343L93.8205 15.7405H93.8217ZM121.561 7.98417V7.81063C121.561 2.99832 118.084 0.0297087 113.364 0.0297087C112.305 -0.0353399 111.244 0.121437 110.247 0.49038C109.249 0.859322 108.336 1.43262 107.565 2.17494C106.798 2.91205 106.191 3.80377 105.781 4.79332C105.372 5.78288 105.168 6.84859 105.185 7.92263V8.09494C105.187 12.7485 108.302 16.0002 113.302 16.0002C118.296 16.0014 121.561 12.7509 121.561 7.98417V7.98417ZM109.811 8.07032V7.89555C109.811 5.07832 111.173 3.49802 113.355 3.49802C115.536 3.49802 116.928 5.12263 116.928 7.87586V8.04817C116.941 10.8211 115.575 12.5109 113.388 12.5109C111.24 12.5109 109.809 10.8863 109.809 8.07032H109.811ZM128.892 15.7405H133.924L138.996 0.253709H134.842L131.678 11.1239L128.54 0.253709H123.77L128.892 15.7405V15.7405Z" fill="white"/>
</g>
<defs>
<clipPath id="clip0_1_439">
<rect width="140" height="16" fill="white"/>
</clipPath>
</defs>
</svg>
