<svg width="40" height="40" viewBox="0 0 40 40" fill="none" xmlns="http://www.w3.org/2000/svg">
<path fill-rule="evenodd" clip-rule="evenodd" d="M34 18.5C34 18.8 34 19.6 33.6 22.9C35.7 23.9 36.8 26.3 36 28.7L35.2 31.8C34.6 34 32.6 35.5 30.4 35.5C30 35.5 29.5 35.4 29.1 35.3L27.2 34.8C26.6 35.1 25.8 35.2 25.1 35C24.3 34.8 23.7 34.3 23.3 33.6C22.9 32.9 22.8 32.1 23 31.3L25.4 22.6C25.9 21 27.5 20.1 29.1 20.5C29.9 20.7 30.6 21.3 31 22.1L31.7 22.3C31.85 20.85 31.95 19.95 32.0125 19.3875L32.0125 19.3874L32.0125 19.3871C32.075 18.8249 32.1 18.6 32.1 18.5C32.1 16.2 31.6 14 30.6 12.2C29.6 13 28.3 13.8 27 13.8C26.2 13.8 25.4 13.5 24.5 12.8C23.2 11.7 21.7 11.1 20.1 11.1C18.5 11.1 17 11.7 15.7 12.8C13.4 14.8 11 13.2 9.59998 12.2C8.59998 14 7.99998 16.2 7.99998 18.5C7.99998 18.5529 8.00699 18.6409 8.01914 18.7935C8.05291 19.2176 8.12645 20.141 8.19998 22.2L8.89998 22C9.29998 21.2 9.99998 20.6 10.8 20.4C12.4 19.9 14.1 20.9 14.5 22.5L16.8 31.2C17 32 16.9 32.8 16.5 33.5C16.1 34.2 15.5 34.7 14.7 34.9C14 35.1 13.2 35 12.6 34.7L10.7 35.2C10.3 35.3 9.79998 35.4 9.39998 35.4C7.19998 35.4 5.19998 33.9 4.59998 31.7L3.79998 28.6C3.19998 26.2 4.29998 23.8 6.39998 22.8C5.99998 19.5 5.99998 18.8 5.99998 18.5C5.99998 10.2 12 4 20 4C28 4 34 10.2 34 18.5ZM11.8 22.4H11.5C11.1 22.5 10.9 22.8 10.8 23.2C10.8 23.3 10.8 23.4 10.7 23.5L13.2 32.8C13.3 32.8 13.4 32.8 13.5 32.9C13.8 33.1 14.1 33.2 14.4 33.1C14.7 33 14.9 32.8 15 32.6C15.0129 32.5612 15.0258 32.5242 15.0383 32.4883C15.1225 32.2467 15.1871 32.0612 15.1 31.8L12.8 23.1C12.6 22.7 12.2 22.4 11.8 22.4ZM9.69998 23.9L12.1 32.8L10.2 33.3C8.59998 33.7 6.99998 32.8 6.49998 31.2L5.69998 28.1C5.29998 26.5 6.19998 24.9 7.79998 24.4L9.69998 23.9ZM20 9.1C22 9.1 24.1 9.9 25.7 11.3C26.7 12.2 27.5 11.9 29.4 10.5C27.2 7.7 23.9 6 20 6C16.1 6 12.8 7.7 10.6 10.5C12.4 11.7 13.4 12.1 14.3 11.3C15.9 9.9 17.9 9.1 20 9.1ZM25.7 33C25.4 32.9 25.2 32.8 25.1 32.5C25.0871 32.4612 25.0742 32.4242 25.0617 32.3883C24.9775 32.1467 24.9129 31.9612 25 31.7L27.3 23C27.4 22.5 28 22.1 28.5 22.3C28.9 22.4 29.1 22.7 29.2 23C29.2 23.05 29.225 23.1 29.25 23.15C29.275 23.2 29.3 23.25 29.3 23.3L26.8 32.6C26.7 32.6 26.6 32.7 26.5 32.8L26.5 32.8C26.3 33.1 26 33.1 25.7 33ZM33.4 31.2L34.2 28.1C34.7 26.5 33.7 24.9 32.1 24.4L30.2 23.9L27.8 32.8L29.7 33.3C30.5 33.5 31.3 33.4 32 33C32.7 32.6 33.2 32 33.4 31.2Z" fill="#48CCFD"/>
</svg>
