<?xml version="1.0" standalone="no"?>
<!DOCTYPE svg PUBLIC "-//W3C//DTD SVG 1.1//EN" "http://www.w3.org/Graphics/SVG/1.1/DTD/svg11.dtd" >
<svg xmlns="http://www.w3.org/2000/svg" xmlns:xlink="http://www.w3.org/1999/xlink" version="1.1">
<metadata>
Created by FontForge 20170731 at Mon Apr 24 13:59:11 2023
 By Aleksey,,,
Copyright (c) 2012 by CastleType. All rights reserved.
</metadata>
<defs>
<font id="StandardCTStencil-Bold" horiz-adv-x="1556" >
  <font-face 
    font-family="Standard CT Stencil Bold"
    font-weight="700"
    font-stretch="normal"
    units-per-em="2048"
    panose-1="2 0 0 0 0 0 0 0 0 0"
    ascent="1638"
    descent="-410"
    x-height="1057"
    cap-height="1434"
    bbox="-973 -571 3842 1860"
    underline-thickness="102"
    underline-position="-307"
    unicode-range="U+0020-FB04"
  />
<missing-glyph horiz-adv-x="921" 
d="M922 0h-922v1434h922v-1434zM852 66v1302h-784v-1302h784z" />
    <glyph glyph-name="ff" unicode="ff" horiz-adv-x="1449" 
d="M684 1227q-8 0 -54 1t-65 1q-51 0 -76.5 -16t-25.5 -62v-94h217v-230h-217v-827h-277v827h-166v230h166v170q0 103 62.5 168t208.5 65q129 0 227 -10v-223zM1409 1227q-8 0 -54 1t-65 1q-51 0 -76.5 -16t-25.5 -62v-94h217v-230h-217v-827h-277v827h-166v230h166v170
q0 103 62.5 168t208.5 65q130 0 227 -10v-223z" />
    <glyph glyph-name="fi" unicode="fi" horiz-adv-x="1204" 
d="M684 1227q-8 0 -54 1t-65 1q-51 0 -76.5 -16t-25.5 -62v-94h217v-230h-217v-827h-277v827h-166v230h166v170q0 103 62.5 168t208.5 65q129 0 227 -10v-223zM1102 1180h-275v254h275v-254zM1102 0h-275v1057h275v-1057z" />
    <glyph glyph-name="fl" unicode="fl" horiz-adv-x="1204" 
d="M684 1227q-8 0 -54 1t-65 1q-51 0 -76.5 -16t-25.5 -62v-94h217v-230h-217v-827h-277v827h-166v230h166v170q0 103 62.5 168t208.5 65q129 0 227 -10v-223zM1102 0h-275v1434h275v-1434z" />
    <glyph glyph-name="f_f_i" unicode="ffi" horiz-adv-x="1929" 
d="M684 1227q-8 0 -54 1t-65 1q-51 0 -76.5 -16t-25.5 -62v-94h217v-230h-217v-827h-277v827h-166v230h166v170q0 103 62.5 168t208.5 65q129 0 227 -10v-223zM1409 1227q-8 0 -54 1t-65 1q-51 0 -76.5 -16t-25.5 -62v-94h217v-230h-217v-827h-277v827h-166v230h166v170
q0 103 62.5 168t208.5 65q130 0 227 -10v-223zM1827 1180h-275v254h275v-254zM1827 0h-275v1057h275v-1057z" />
    <glyph glyph-name="f_f_l" unicode="ffl" horiz-adv-x="1929" 
d="M684 1227q-8 0 -54 1t-65 1q-51 0 -76.5 -16t-25.5 -62v-94h217v-230h-217v-827h-277v827h-166v230h166v170q0 103 62.5 168t208.5 65q129 0 227 -10v-223zM1409 1227q-8 0 -54 1t-65 1q-51 0 -76.5 -16t-25.5 -62v-94h217v-230h-217v-827h-277v827h-166v230h166v170
q0 103 62.5 168t208.5 65q130 0 227 -10v-223zM1827 0h-275v1434h275v-1434z" />
    <glyph glyph-name=".notdef" horiz-adv-x="921" 
d="M922 0h-922v1434h922v-1434zM852 66v1302h-784v-1302h784z" />
    <glyph glyph-name=".null" horiz-adv-x="0" 
 />
    <glyph glyph-name="nonmarkingreturn" horiz-adv-x="682" 
 />
    <glyph glyph-name="space" unicode=" " horiz-adv-x="466" 
 />
    <glyph glyph-name="exclam" unicode="!" horiz-adv-x="528" 
d="M403 1434v-469l-81 -582h-113l-86 582v469h280zM406 0h-279v285h279v-285z" />
    <glyph glyph-name="quotedbl" unicode="&#x22;" horiz-adv-x="890" 
d="M113 748v686h274v-686h-274zM528 748v686h275v-686h-275z" />
    <glyph glyph-name="numbersign" unicode="#" horiz-adv-x="1116" 
d="M442 627h-178l33 213h-172v161h192l56 404h176zM63 565h525l-23 -162h-153l-60 -403h-176l60 403h-173v162zM1042 840h-510l23 161h158l53 404h176l-53 -404h153v-161zM680 778h178l-29 -213h150v-162h-176l-53 -403h-179z" />
    <glyph glyph-name="dollar" unicode="$" horiz-adv-x="1327" 
d="M700 1161v234q190 -10 314.5 -89t185.5 -186l-227 -137q-13 22 -25 38t-37 42t-52 43.5t-69 33.5t-90 21zM645 283v-244q-182 6 -324 89.5t-219 219.5l234 139q18 -27 30.5 -44t42.5 -48t60 -51t77 -38t99 -23zM700 39v244q56 0 108.5 13.5t94 49t41.5 88.5
q0 127 -184 154l-258 41q-47 7 -92.5 22.5t-92 44.5t-81 67t-56.5 94.5t-22 123.5q0 86 29.5 156.5t77.5 117t112.5 78.5t131 46.5t136.5 15.5v-232q-101 -1 -156 -42t-55 -99q0 -116 178 -139l230 -35q176 -26 279.5 -121t103.5 -262q0 -84 -32.5 -158.5t-95 -134
t-165 -95.5t-232.5 -38zM588 1456v182h176v-182h-176zM588 -205v182h176v-182h-176z" />
    <glyph glyph-name="percent" unicode="%" horiz-adv-x="2131" 
d="M422 678v-182q-156 8 -258.5 132t-102.5 349q0 221 103.5 345t257.5 134v-178q-66 -12 -103.5 -90.5t-37.5 -212.5q0 -137 38.5 -212.5t102.5 -84.5zM475 496v182q148 22 148 303q0 136 -40 211t-108 86v178q164 -9 263.5 -129.5t99.5 -343.5q0 -117 -28.5 -209.5
t-79 -150.5t-115 -90t-140.5 -37zM526 -33l854 1485h222l-848 -1485h-228zM1655 158v-183q-156 8 -258.5 132.5t-102.5 349.5q0 221 103.5 345t257.5 134v-178q-66 -12 -104 -90.5t-38 -212.5q0 -137 39 -212.5t103 -84.5zM1708 -25v183q147 22 147 303q0 136 -40 211
t-107 86v178q164 -9 263.5 -129.5t99.5 -343.5q0 -229 -102.5 -353t-260.5 -135z" />
    <glyph glyph-name="ampersand" unicode="&#x26;" horiz-adv-x="1277" 
d="M307 784l123 -190q-111 -72 -111 -186q0 -77 50 -127t118 -62v-250q-61 4 -119.5 19.5t-114.5 48t-98 78t-68 113t-26 149.5q0 266 246 407zM698 291l-338 522q-30 46 -49.5 106t-19.5 117q0 143 89.5 228.5t217.5 93.5v-193q-39 -17 -51 -43.5t-12 -70.5
q0 -27 7.5 -53.5t14 -38.5t21.5 -34.5t16 -23.5l274 -428q70 113 70 223h248q-12 -83 -31 -150.5t-48.5 -122t-43.5 -76t-45 -64.5q42 -31 67 -40.5t72 -9.5h60v-237h-111q-65 0 -126 19t-134 79q-139 -115 -297 -125v250q86 13 149 72zM758 758l-111 172q88 54 88 131
q0 41 -21.5 68.5t-54.5 35.5v193q56 -4 105.5 -23t92.5 -54t68 -95t25 -137q0 -101 -51.5 -169.5t-140.5 -121.5z" />
    <glyph glyph-name="quotesingle" unicode="'" horiz-adv-x="514" 
d="M113 748v686h274v-686h-274z" />
    <glyph glyph-name="parenleft" unicode="(" horiz-adv-x="710" 
d="M504 1782l143 -53q-54 -92 -93 -178t-77.5 -207.5t-58 -277t-19.5 -339.5q0 -187 24 -354t66.5 -295t78 -208.5t81.5 -162.5l-141 -55q-124 165 -186 273q-220 379 -220 792q0 112 17.5 223.5t41.5 198t65.5 180.5t71.5 151.5t79 132.5t68.5 101z" />
    <glyph glyph-name="parenright" unicode=")" horiz-adv-x="710" 
d="M63 1729l144 53q39 -51 58.5 -78t68.5 -101t79 -132t71 -152t65 -180.5t41.5 -198t17.5 -223.5q0 -150 -31.5 -298.5t-68 -247t-104 -216.5t-98.5 -162t-93 -127q-7 -10 -10 -14l-142 55q46 82 81.5 162.5t78 208.5t66.5 295t24 354q0 184 -19.5 339.5t-58 277
t-77.5 207.5t-93 178z" />
    <glyph glyph-name="asterisk" unicode="*" horiz-adv-x="931" 
d="M535 1434l-3 -260l238 94l49 -138l-246 -77l156 -203l-117 -88l-151 213l-146 -213l-118 86l153 207l-237 75l49 136l229 -92l-4 260h148z" />
    <glyph glyph-name="plus" unicode="+" horiz-adv-x="1220" 
d="M737 1229v-389h381v-246h-381v-387h-252v387h-383v246h383v389h252z" />
    <glyph glyph-name="comma" unicode="," horiz-adv-x="536" 
d="M414 303v-283q0 -97 -67.5 -194t-158.5 -141l-57 98q57 28 92 94t35 133h-135v293h291z" />
    <glyph glyph-name="hyphen" unicode="-" horiz-adv-x="722" 
d="M123 432v250h477v-250h-477z" />
    <glyph glyph-name="period" unicode="." horiz-adv-x="532" 
d="M123 0v297h287v-297h-287z" />
    <glyph glyph-name="slash" unicode="/" horiz-adv-x="903" 
d="M41 -27l586 1487h235l-583 -1487h-238z" />
    <glyph glyph-name="zero" unicode="0" horiz-adv-x="1282" 
d="M670 -37v256q55 6 97 32.5t79 81.5t56.5 153.5t19.5 236.5q0 235 -67.5 358.5t-184.5 137.5v251q119 -6 218.5 -55t174 -138.5t116.5 -230t42 -319.5q0 -149 -29 -273t-80 -211t-121 -149t-150.5 -93.5t-170.5 -37.5zM608 219v-256q-113 4 -210.5 52.5t-173.5 139
t-119.5 234.5t-43.5 326q0 180 44 323.5t120.5 235t174 141.5t208.5 55v-251q-115 -14 -179 -143t-64 -361q0 -236 66 -360.5t177 -135.5z" />
    <glyph glyph-name="one" unicode="1" horiz-adv-x="839" 
d="M664 0h-291v915q0 48 -16 59t-70 11h-193v199q268 0 342 250h228v-1434z" />
    <glyph glyph-name="two" unicode="2" horiz-adv-x="1214" 
d="M80 0v254l418 317q143 108 210.5 175.5t91 121t23.5 129.5q0 74 -52 145.5t-136 84.5v243q231 -12 360 -144.5t129 -336.5q0 -68 -20 -132.5t-50 -114t-79 -101.5t-91.5 -89t-103.5 -83l-616 -469h-84zM602 254h524v-254h-860zM573 1470v-243q-89 -12 -148.5 -82
t-59.5 -158q0 -28 2 -78.5t2 -56.5l-287 33v114q0 63 19 127t59.5 124.5t97 108.5t138.5 78t177 33z" />
    <glyph glyph-name="three" unicode="3" horiz-adv-x="1206" 
d="M571 207v-244q-237 9 -366.5 136t-143.5 358l287 32q9 -65 23 -110.5t38.5 -85.5t64.5 -61.5t97 -24.5zM633 -37v244q39 6 74.5 20.5t68.5 39.5t52.5 66t19.5 91q0 49 -15.5 87.5t-41.5 60.5t-53 37t-59.5 20.5t-50 7.5t-34.5 2h-109v217h113q37 0 72.5 9t71 28.5
t57.5 58.5t22 92q0 80 -55 130.5t-133 60.5v235q212 -9 344.5 -123t132.5 -282q0 -64 -20 -117.5t-53.5 -88.5t-67 -57.5t-68.5 -35.5q34 -10 72 -34t78.5 -64t67 -103.5t26.5 -138.5q0 -137 -70 -242t-185 -161t-257 -60zM571 1470v-235q-98 -11 -145.5 -83.5t-54.5 -176.5
l-281 33q7 65 26.5 125.5t57 121t90 106t132 75.5t175.5 34z" />
    <glyph glyph-name="four" unicode="4" horiz-adv-x="1275" 
d="M649 983l-299 -420h299v-219h-565v209l565 795v-365zM711 1434h290v-871h195v-219h-195v-344h-290v1434z" />
    <glyph glyph-name="five" unicode="5" horiz-adv-x="1230" 
d="M551 207v-244q-228 6 -351.5 125t-138.5 344l279 14q8 -91 63 -158.5t148 -80.5zM518 1186l43 248h539l-33 -248h-549zM498 1434l-142 -801l-243 24l137 777h248zM436 727l45 254q86 33 181 33q137 0 247.5 -58.5t178 -177t67.5 -278.5q0 -154 -73 -275t-195.5 -187.5
t-274.5 -74.5v242q80 6 138 52t83 107.5t25 127.5q0 125 -74 203.5t-186 78.5q-98 0 -162 -47z" />
    <glyph glyph-name="six" unicode="6" horiz-adv-x="1210" 
d="M428 623v274q95 59 244 59q209 0 343 -129.5t134 -357.5q0 -210 -140.5 -352t-359.5 -154v256q90 14 146.5 77.5t56.5 166.5q0 110 -64.5 180t-175.5 70q-114 0 -184 -90zM367 887v-256q0 -203 63 -302.5t158 -109.5v-256q-242 9 -384.5 196t-142.5 527
q0 362 147.5 562.5t399.5 221.5v-251q-108 -12 -174.5 -98.5t-66.5 -233.5zM670 1219v251q61 0 120.5 -13t117.5 -43.5t103 -74.5t77 -111t40 -149l-284 -26q-2 21 -8.5 40t-23 47t-53.5 49t-89 30z" />
    <glyph glyph-name="seven" unicode="7" horiz-adv-x="1095" 
d="M934 1434h131v-254q-425 -519 -514 -1180h-350q28 134 67.5 261t77.5 226.5t93 205.5t95 176.5t104 163.5t100 141.5t102.5 136t93.5 123.5zM856 1434l-190 -254h-625v254h815z" />
    <glyph glyph-name="eight" unicode="8" horiz-adv-x="1245" 
d="M586 215v-252q-106 4 -195 33t-149 73t-101.5 101.5t-60.5 118t-19 121.5q0 70 23.5 132.5t60.5 104.5t75 69t73 40q-34 18 -66 44.5t-61.5 64.5t-47.5 90.5t-18 111.5q0 165 134 280.5t352 122.5v-247q-92 -9 -146.5 -55t-54.5 -119q0 -70 55 -122t146 -61v-237
q-99 -9 -163.5 -66t-64.5 -145q0 -82 64.5 -137t163.5 -66zM647 -37v252q101 9 166.5 63t65.5 140q0 92 -65.5 147.5t-166.5 63.5v237q90 8 145.5 57.5t55.5 125.5q0 73 -52 119t-149 55v247q223 -9 355.5 -122.5t132.5 -272.5q0 -67 -19 -123.5t-50.5 -93.5t-61.5 -60
t-62 -36q37 -13 75 -39t77.5 -68t64.5 -107t25 -142q0 -61 -20.5 -121.5t-64 -117.5t-105.5 -101t-151.5 -72t-195.5 -31z" />
    <glyph glyph-name="nine" unicode="9" horiz-adv-x="1216" 
d="M791 797v-265q-88 -55 -252 -55q-209 0 -343.5 130t-134.5 358q0 209 140 351t360 154v-251q-90 -14 -148.5 -79.5t-58.5 -168.5q0 -111 64.5 -183.5t179.5 -72.5q129 0 193 82zM852 575v222q0 108 -19 189t-52.5 128.5t-72.5 73t-85 31.5v251q243 -9 387.5 -196
t144.5 -526q0 -361 -150 -562.5t-403 -222.5v256q48 9 80 19t67 34.5t55.5 60.5t34 97t13.5 145zM541 219v-256q-67 0 -129.5 13t-121 43t-103.5 74.5t-76 111.5t-39 149l284 27q2 -15 5.5 -30.5t16 -38.5t31 -40.5t53 -32.5t79.5 -20z" />
    <glyph glyph-name="colon" unicode=":" horiz-adv-x="532" 
d="M123 758v299h287v-299h-287zM123 0v297h287v-297h-287z" />
    <glyph glyph-name="semicolon" unicode=";" horiz-adv-x="540" 
d="M131 758v299h287v-299h-287zM414 303v-283q0 -101 -62.5 -197.5t-154.5 -137.5l-58 100q57 28 90 93.5t33 131.5h-139v293h291z" />
    <glyph glyph-name="less" unicode="&#x3c;" horiz-adv-x="1218" 
d="M1116 1243v-264l-676 -270l676 -269v-262l-1007 400v264z" />
    <glyph glyph-name="equal" unicode="=" horiz-adv-x="1218" 
d="M1116 606v-246h-1014v246h1014zM1116 1061v-246h-1014v246h1014z" />
    <glyph glyph-name="greater" unicode="&#x3e;" horiz-adv-x="1218" 
d="M102 178v264l676 269l-676 268v266l1008 -403v-262z" />
    <glyph glyph-name="question" unicode="?" horiz-adv-x="1085" 
d="M657 0h-282v287h282v-287zM561 1219v235q97 -4 177.5 -32t132 -69.5t87.5 -93.5t51 -103t15 -99q0 -86 -21.5 -152t-55.5 -106t-75.5 -71t-82.5 -55t-75 -48.5t-55.5 -61t-21.5 -84.5v-86h-240v137q0 64 19 115t48.5 84t66 60t73 50.5t66 48.5t48.5 60.5t19 79.5
q0 84 -50.5 133.5t-125.5 57.5zM500 1454v-235q-58 -6 -99.5 -35.5t-62 -73.5t-29 -87t-8.5 -89l-250 82q1 22 5.5 51t18 70.5t34 82t56 82.5t80 73.5t111 53.5t144.5 25z" />
    <glyph glyph-name="at" unicode="@" horiz-adv-x="1619" 
d="M1186 70l74 -136q-169 -102 -388 -108v168q189 3 314 76zM811 1317v-170q-161 -7 -284.5 -83.5t-190 -206t-66.5 -292.5q0 -127 41.5 -233t114.5 -177.5t171.5 -113.5t213.5 -47v-168q-154 4 -289.5 60t-235 152t-157 234t-57.5 299q0 202 95.5 370.5t265 268.5
t378.5 107zM872 805v184q57 -9 102.5 -42.5t69.5 -88.5l29 96h180l-127 -475q-34 -126 -34 -155t18 -29q23 0 54 12t67 41.5t66.5 71t50.5 108t20 144.5q0 111 -39 201t-107 148t-157.5 90t-192.5 36v170q138 -4 262 -51t215.5 -126t145 -193t53.5 -245q0 -116 -36 -215.5
t-91 -165t-123 -112.5t-130.5 -67.5t-114.5 -20.5q-111 0 -140 121q-83 -115 -221 -115q-128 0 -217.5 98t-89.5 244q0 133 54.5 251.5t153.5 193.5t218 79v-184q-67 -8 -120.5 -60.5t-80 -122t-26.5 -139.5q0 -81 40.5 -129.5t114.5 -48.5q64 0 121.5 53t89 128t31.5 145
q0 66 -30 111t-79 59z" />
    <glyph glyph-name="A" unicode="A" horiz-adv-x="1335" 
d="M467 1339l143 -409l-147 -475h315l84 -238h-477l-70 -217h-295zM498 1434h311l506 -1434h-311z" />
    <glyph glyph-name="B" unicode="B" horiz-adv-x="1316" 
d="M483 0v254h260q89 0 150 53t61 131q0 105 -64.5 150t-164.5 45h-242v233h199q115 0 168 44t53 130q0 144 -178 144h-242v250h283q127 0 225 -41t156.5 -125t58.5 -201q0 -114 -50 -188.5t-138 -110.5v-6q100 -22 168.5 -121.5t68.5 -222.5q0 -193 -129 -305.5
t-352 -112.5h-291zM422 1434v-1434h-299v1434h299z" />
    <glyph glyph-name="C" unicode="C" horiz-adv-x="1423" 
d="M774 1194v276q400 -15 574 -403l-271 -125q-29 95 -109 168.5t-194 83.5zM774 -37v277q113 9 195 82t121 194l282 -133q-27 -62 -62 -117t-88 -110.5t-116 -95.5t-149 -67t-183 -30zM713 240v-277q-201 7 -350.5 108.5t-225.5 269t-76 376.5q0 159 41 288.5t106 212.5
t152.5 140.5t174.5 82.5t178 29v-276q-151 -12 -245.5 -137t-94.5 -338q0 -197 89.5 -331.5t250.5 -147.5z" />
    <glyph glyph-name="D" unicode="D" horiz-adv-x="1378" 
d="M422 1434v-1434h-299v1434h299zM483 0v266h144q61 0 111 9.5t104.5 39.5t91 79.5t60.5 136t24 202.5q0 202 -104.5 320t-321.5 118h-109v263h140q264 0 432 -125q114 -86 188 -239t74 -335q0 -157 -36.5 -283t-98.5 -209t-149 -139t-183.5 -80t-206.5 -24h-160z" />
    <glyph glyph-name="E" unicode="E" horiz-adv-x="1204" 
d="M483 1167v267h613v-267h-613zM483 600v260h580v-260h-580zM483 0v266h639v-266h-639zM422 1434v-1434h-299v1434h299z" />
    <glyph glyph-name="F" unicode="F" horiz-adv-x="1155" 
d="M483 555v262h555v-262h-555zM422 1434v-1434h-299v1434h299zM483 1167v267h600v-267h-600z" />
    <glyph glyph-name="G" unicode="G" horiz-adv-x="1478" 
d="M774 1194v276q100 -3 188.5 -31.5t149.5 -68.5t111 -92t78 -97.5t45 -90.5l-254 -132q-17 38 -39.5 71.5t-60 71.5t-94 63t-124.5 30zM774 -37v277q84 4 148.5 32t101.5 71.5t55.5 93.5t18.5 104h-328v250h596v-791h-258v119h-4q-61 -74 -147 -112.5t-183 -43.5zM713 240
v-277q-201 7 -350.5 108.5t-225.5 269t-76 376.5q0 159 41 288.5t106 212.5t152.5 140.5t174.5 82.5t178 29v-276q-151 -12 -245.5 -137t-94.5 -338q0 -197 89.5 -331.5t250.5 -147.5z" />
    <glyph glyph-name="H" unicode="H" horiz-adv-x="1402" 
d="M670 885v-264h-248v-621h-299v1434h299v-549h248zM731 621v264h250v549h299v-1434h-299v621h-250z" />
    <glyph glyph-name="I" unicode="I" horiz-adv-x="544" 
d="M422 0h-299v1434h299v-1434z" />
    <glyph glyph-name="J" unicode="J" horiz-adv-x="638" 
d="M227 0h-186v266h86q63 0 81.5 28t18.5 101v1039h299v-998q0 -68 -1 -101.5t-6.5 -89.5t-16 -83.5t-32 -64.5t-53 -54t-79.5 -30t-111 -13z" />
    <glyph glyph-name="K" unicode="K" horiz-adv-x="1396" 
d="M422 1434v-1434h-299v1434h299zM1331 1434l-848 -916v356l521 560h327zM696 657l201 217l469 -874h-328z" />
    <glyph glyph-name="L" unicode="L" horiz-adv-x="1077" 
d="M422 1434v-1434h-299v1434h299zM483 0v266h553v-266h-553z" />
    <glyph glyph-name="M" unicode="M" horiz-adv-x="1595" 
d="M123 1264l283 -756v-508h-283v1264zM973 88l-139 373l356 973h283zM406 1434l534 -1434h-281l-536 1434h283zM1190 502l283 762v-1264h-283v502z" />
    <glyph glyph-name="N" unicode="N" horiz-adv-x="1374" 
d="M1251 238l-284 440v756h284v-1196zM123 1196l285 -442v-754h-285v1196zM967 0l-844 1311v123h283l845 -1311v-123h-284z" />
    <glyph glyph-name="O" unicode="O" horiz-adv-x="1486" 
d="M774 1194v276q88 -4 173 -28t173.5 -80t154.5 -138t108 -213t42 -294q0 -151 -37.5 -276.5t-100.5 -210.5t-148 -145.5t-176.5 -89t-188.5 -32.5v277q66 5 124.5 35.5t108 86.5t78.5 147.5t29 207.5q0 100 -21.5 181.5t-55.5 133.5t-80 88t-91 53t-92 21zM713 1470v-276
q-49 -4 -95 -21.5t-91 -54.5t-78.5 -89t-54.5 -132.5t-21 -179.5q0 -113 28.5 -203.5t77.5 -147t108 -88.5t126 -38v-277q-82 4 -160.5 26t-152 63t-135 104t-107.5 143.5t-71.5 187.5t-25.5 230q0 159 41 288.5t106 212.5t152.5 140.5t174.5 82.5t178 29z" />
    <glyph glyph-name="P" unicode="P" horiz-adv-x="1255" 
d="M422 1434v-1434h-299v1434h299zM483 475v248h170q49 0 90 12.5t76.5 39.5t55.5 76t20 116q0 105 -64 162t-178 57h-170v248h193q110 0 198.5 -26t147 -70t98 -104t57 -126.5t17.5 -140.5q0 -107 -30.5 -195t-91.5 -155t-159.5 -104.5t-226.5 -37.5h-203z" />
    <glyph glyph-name="Q" unicode="Q" horiz-adv-x="1529" 
d="M774 1194v276q88 -4 173 -28t173.5 -80t154.5 -138t108 -213t42 -294q0 -244 -100 -426q92 -89 225 -101l-80 -266q-60 0 -148.5 49.5t-145.5 137.5q-168 -138 -402 -148v277q66 5 124.5 35.5t108 86.5t78.5 147.5t29 207.5q0 100 -21.5 181.5t-55.5 133.5t-80 88t-91 53
t-92 21zM713 1470v-276q-49 -4 -95 -21.5t-91 -54.5t-78.5 -89t-54.5 -132.5t-21 -179.5q0 -113 28.5 -203.5t77.5 -147t108 -88.5t126 -38v-277q-82 4 -160.5 26t-152 63t-135 104t-107.5 143.5t-71.5 187.5t-25.5 230q0 159 41 288.5t106 212.5t152.5 140.5t174.5 82.5
t178 29z" />
    <glyph glyph-name="R" unicode="R" horiz-adv-x="1314" 
d="M483 760h236q88 0 141 53t53 164q0 100 -55 152.5t-139 52.5h-236v252h244q225 0 355 -118.5t130 -332.5q0 -309 -249 -420l311 -563h-330l-285 516h-176v244zM422 1434v-1434h-299v1434h299z" />
    <glyph glyph-name="S" unicode="S" horiz-adv-x="1357" 
d="M715 1210v260q110 -6 205 -35.5t161.5 -75t112 -93t76.5 -101.5l-252 -153q-20 31 -38.5 54.5t-55 57.5t-90.5 56.5t-119 29.5zM653 233v-270q-203 7 -359.5 100t-242.5 244l258 156q18 -28 33.5 -49t48 -54.5t66.5 -56.5t86 -43t110 -27zM715 -37v270q45 0 89.5 9.5
t86.5 28.5t68 53.5t26 78.5q0 138 -205 170l-286 45q-53 9 -103 26t-101.5 49.5t-90 74.5t-62.5 105t-24 137q0 96 32.5 174.5t86 130t124.5 87t145 51.5t152 17v-258q-112 -1 -172.5 -46.5t-60.5 -108.5q0 -127 196 -156l256 -39q196 -29 310 -134.5t114 -291.5
q0 -93 -36 -175.5t-105 -148.5t-182.5 -106t-257.5 -43z" />
    <glyph glyph-name="T" unicode="T" horiz-adv-x="1183" 
d="M803 1167v267h340v-267h-340zM381 1167h-340v267h340v-267zM442 1434h299v-1434h-299v1434z" />
    <glyph glyph-name="U" unicode="U" horiz-adv-x="1368" 
d="M643 238v-275q-69 3 -138 19.5t-141 53t-126.5 88.5t-89.5 134t-35 182v994h301v-899q0 -147 57 -218t172 -79zM705 -37v275q133 6 191 73.5t58 220.5v902h301v-963q0 -72 -15 -138t-54 -133.5t-99.5 -117.5t-158.5 -83t-223 -36z" />
    <glyph glyph-name="V" unicode="V" horiz-adv-x="1234" 
d="M774 0h-307l-447 1434h306zM809 115l-150 477l261 842h294z" />
    <glyph glyph-name="W" unicode="W" horiz-adv-x="1767" 
d="M692 0h-317l-344 1434h303zM584 684l151 750h295l383 -1434h-297l-242 915l-153 -776zM1290 698l150 736h297l-295 -1305z" />
    <glyph glyph-name="X" unicode="X" horiz-adv-x="1378" 
d="M432 1434l926 -1434h-350l-916 1434h340zM647 451l-278 -451h-349l457 723zM729 1085l215 349h342l-385 -617z" />
    <glyph glyph-name="Y" unicode="Y" horiz-adv-x="1263" 
d="M778 578v-578h-297v578l-461 856h304zM662 922l282 512h299l-430 -797z" />
    <glyph glyph-name="Z" unicode="Z" horiz-adv-x="1296" 
d="M944 1434l-211 -267h-596v267h807zM1024 1434h170v-252l-940 -1182h-172v248zM336 0l211 266h667v-266h-878z" />
    <glyph glyph-name="bracketleft" unicode="[" horiz-adv-x="651" 
d="M102 -348v2130h488v-236h-191v-1661h191v-233h-488z" />
    <glyph glyph-name="backslash" unicode="\" horiz-adv-x="911" 
d="M285 1460l585 -1487h-245l-584 1487h244z" />
    <glyph glyph-name="bracketright" unicode="]" horiz-adv-x="653" 
d="M551 1782v-2130h-490v233h191v1661h-191v236h490z" />
    <glyph glyph-name="asciicircum" unicode="^" horiz-adv-x="1228" 
d="M131 684l340 762h262l338 -762h-213l-256 573l-256 -573h-215z" />
    <glyph glyph-name="underscore" unicode="_" horiz-adv-x="1024" 
d="M0 -250v100h1004v-100h-1004z" />
    <glyph glyph-name="grave" unicode="`" horiz-adv-x="628" 
d="M369 1180l-303 274h313l188 -274h-198z" />
    <glyph glyph-name="a" unicode="a" horiz-adv-x="1054" 
d="M692 119v629q0 43 -37.5 77.5t-128.5 34.5q-84 0 -122.5 -36.5t-43.5 -110.5h-251q12 364 409 364q131 0 219 -24t135 -73t65.5 -110t18.5 -149v-569q0 -78 37 -152h-286q-15 75 -15 119zM631 258v-221q-81 -47 -207 -47q-164 0 -263.5 83.5t-99.5 254.5q0 51 13 93
t34 72.5t54.5 54.5t67.5 39.5t79.5 28t84 19t87.5 12.5l150 19v-201l-150 -23q-76 -12 -109.5 -42t-33.5 -83q0 -50 35 -83t106 -33q92 0 152 57z" />
    <glyph glyph-name="b" unicode="b" horiz-adv-x="1150" 
d="M377 1434v-1434h-275v1434h275zM438 27v252q55 -62 150 -62q102 0 163.5 77t61.5 228q0 153 -63 235.5t-162 82.5q-92 0 -150 -66v252q91 51 201 51q70 0 135 -20t123 -63.5t100.5 -107t67.5 -156.5t25 -206q0 -255 -120.5 -402t-322.5 -147q-128 0 -209 52z" />
    <glyph glyph-name="c" unicode="c" horiz-adv-x="1097" 
d="M621 842v235q144 -7 245 -85.5t162 -203.5l-217 -118q-55 154 -190 172zM621 -25v236q76 8 123 54.5t81 123.5l222 -129q-158 -270 -426 -285zM559 211v-236q-232 12 -365 158.5t-133 392.5q0 110 33 207t94 172t157 121t214 51v-235q-112 -10 -165.5 -94.5t-53.5 -221.5
q0 -131 53.5 -217.5t165.5 -97.5z" />
    <glyph glyph-name="d" unicode="d" horiz-adv-x="1150" 
d="M774 0v1434h275v-1434h-275zM713 279v-252q-81 -52 -209 -52q-202 0 -322.5 147t-120.5 402q0 113 25 206t67.5 156.5t100.5 107t123 63.5t135 20q110 0 201 -51v-252q-58 66 -150 66q-99 0 -162 -82.5t-63 -235.5q0 -151 61.5 -228t163.5 -77q95 0 150 62z" />
    <glyph glyph-name="e" unicode="e" horiz-adv-x="1114" 
d="M600 -25v236q49 3 86.5 16t62.5 37t41 47t33 58l226 -133q-151 -249 -449 -261zM410 662h344q-3 26 -12 50.5t-25.5 52t-46.5 48.5t-70 29v235q235 -14 358 -217q95 -159 95 -397h-654q-4 25 -4 80q0 67 15 119zM334 543q0 -291 205 -332v-236q-59 5 -120 23.5t-126.5 60
t-116 100t-83 149t-32.5 200.5q0 121 29.5 218.5t77 160t111.5 105.5t128 62t132 23v-235q-56 -2 -97.5 -27.5t-64 -68.5t-33 -93.5t-10.5 -109.5z" />
    <glyph glyph-name="f" unicode="f" horiz-adv-x="724" 
d="M684 1227q-8 0 -54 1t-65 1q-51 0 -76.5 -16t-25.5 -62v-94h217v-230h-217v-827h-277v827h-166v230h166v170q0 103 62.5 168t208.5 65q129 0 227 -10v-223z" />
    <glyph glyph-name="g" unicode="g" horiz-adv-x="1118" 
d="M334 567q0 -140 57 -208t152 -68q83 0 145 55v-235q-75 -52 -192 -52q-69 0 -131 18t-118 57.5t-97 97.5t-65 144t-24 191q0 241 123.5 375.5t321.5 134.5q103 0 182 -57v-242q-60 66 -141 66q-96 0 -154.5 -67t-58.5 -210zM750 41v1016h266v-996q0 -67 -12 -125.5
t-44.5 -116.5t-83 -99.5t-133.5 -67t-190 -25.5q-74 0 -137 10.5t-107.5 26.5t-80 41t-57.5 48t-38.5 54t-24 53t-11.5 50.5t-4.5 40.5t-0.5 29h273q0 -11 2 -22.5t12.5 -30.5t27.5 -33t51 -24.5t79 -10.5q116 0 164.5 45t48.5 137z" />
    <glyph glyph-name="h" unicode="h" horiz-adv-x="1099" 
d="M377 1434v-1434h-275v1434h275zM438 774v238q88 65 203 65q190 0 275 -98t85 -305v-674h-274v633q0 46 -2 73t-9.5 57t-22 45.5t-40.5 25.5t-65 10q-90 0 -150 -70z" />
    <glyph glyph-name="i" unicode="i" horiz-adv-x="479" 
d="M377 1180h-275v254h275v-254zM377 0h-275v1057h275v-1057z" />
    <glyph glyph-name="j" unicode="j" horiz-adv-x="495" 
d="M397 1180h-274v254h274v-254zM397 1057v-1067q0 -69 -16 -119.5t-42.5 -80.5t-66.5 -48.5t-80 -24.5t-92 -6q-55 0 -155 8v236h102q42 0 59 33.5t17 115.5v953h274z" />
    <glyph glyph-name="k" unicode="k" horiz-adv-x="1132" 
d="M377 1434v-1434h-275v1434h275zM559 446l197 205l346 -651h-314zM1059 1057l-621 -647v319l307 328h314z" />
    <glyph glyph-name="l" unicode="l" horiz-adv-x="479" 
d="M377 0h-275v1434h275v-1434z" />
    <glyph glyph-name="m" unicode="m" horiz-adv-x="1667" 
d="M377 1057v-1057h-275v1057h275zM1026 782q-13 111 -70 215q71 42 138.5 61t158.5 19q80 0 140.5 -31t92.5 -75.5t52 -105.5t25.5 -109t5.5 -99v-657h-275v672q0 30 -1.5 50t-9 45t-20.5 40.5t-37.5 26t-58.5 10.5q-82 0 -141 -62zM973 598v-598h-275v672q0 39 -4 65.5
t-16 53t-38 40t-67 13.5q-83 0 -135 -62v228q88 67 205 67q81 0 141 -25.5t96 -67.5t57 -106t28.5 -129.5t7.5 -150.5z" />
    <glyph glyph-name="n" unicode="n" horiz-adv-x="1099" 
d="M377 1057v-1057h-275v1057h275zM438 774v238q88 65 203 65q190 0 275 -98t85 -305v-674h-274v633q0 46 -2 73t-9.5 57t-22 45.5t-40.5 25.5t-65 10q-90 0 -150 -70z" />
    <glyph glyph-name="o" unicode="o" horiz-adv-x="1169" 
d="M559 211v-236q-232 12 -365 163.5t-133 387.5q0 110 33 207t94 172t157 121t214 51v-235q-112 -10 -165.5 -94.5t-53.5 -221.5q0 -132 53 -218t166 -97zM621 -25v236q106 12 157 96t51 219q0 142 -55.5 223.5t-152.5 92.5v235q148 -7 259.5 -81t169.5 -196t58 -274
q0 -127 -39.5 -230.5t-107.5 -170.5t-154.5 -105t-185.5 -45z" />
    <glyph glyph-name="p" unicode="p" horiz-adv-x="1150" 
d="M377 1057v-1350h-275v1350h275zM438 780v242q85 55 209 55q202 0 322.5 -143.5t120.5 -398.5q0 -113 -25 -204.5t-67.5 -153.5t-101 -104t-122.5 -60.5t-135 -18.5q-110 0 -201 51v252q54 -61 146 -61q102 0 165.5 75t63.5 226t-62 230t-163 79q-94 0 -150 -66z" />
    <glyph glyph-name="q" unicode="q" horiz-adv-x="1150" 
d="M774 -293v1350h275v-1350h-275zM713 1022v-242q-56 66 -150 66q-101 0 -163 -79t-62 -230t63.5 -226t165.5 -75q92 0 146 61v-252q-91 -51 -201 -51q-71 0 -135 18.5t-122.5 60.5t-101 104t-67.5 153.5t-25 204.5q0 255 120.5 398.5t322.5 143.5q124 0 209 -55z" />
    <glyph glyph-name="r" unicode="r" horiz-adv-x="765" 
d="M377 1057v-1057h-275v1057h275zM438 731v252q87 84 240 84h37v-279h-84q-130 0 -193 -57z" />
    <glyph glyph-name="s" unicode="s" horiz-adv-x="1064" 
d="M565 -27v232q73 5 116.5 34t43.5 74q0 16 -7.5 29t-24.5 22.5t-36 16.5t-51 14t-59.5 12t-72.5 13.5t-79 15.5q-151 31 -221 104t-70 199q0 151 112 240t288 98v-225q-60 -4 -91.5 -28t-31.5 -64q0 -20 12.5 -35t37.5 -25t52 -16t66 -12l145 -25q156 -27 233 -107
t77 -192q0 -170 -118 -268t-321 -107zM504 205v-232q-283 6 -463 195l201 168q47 -52 117 -88t145 -43zM565 852v225q246 -8 410 -180l-170 -168q-101 112 -240 123z" />
    <glyph glyph-name="t" unicode="t" horiz-adv-x="757" 
d="M700 827h-217v-448q0 -79 24.5 -107t100.5 -28q53 0 92 2v-250q-41 -6 -174 -6q-97 0 -160 18t-98 57t-48 90t-13 128v544h-176v230h176v377h276v-377h217v-230z" />
    <glyph glyph-name="u" unicode="u" horiz-adv-x="1099" 
d="M723 0v1057h274v-1057h-274zM662 283v-238q-88 -65 -203 -65q-190 0 -275.5 98t-85.5 305v674h275v-633q0 -46 2 -73t9.5 -57t22 -45.5t40.5 -25.5t65 -10q90 0 150 70z" />
    <glyph glyph-name="v" unicode="v" horiz-adv-x="993" 
d="M657 98l-129 426l177 533h278zM299 1057l324 -1057h-273l-340 1057h289z" />
    <glyph glyph-name="w" unicode="w" horiz-adv-x="1523" 
d="M627 113l-121 419l153 525h242l293 -1057h-264l-168 580zM291 1057l303 -1057h-264l-320 1057h281zM1227 111l-129 469l135 477h280z" />
    <glyph glyph-name="x" unicode="x" horiz-adv-x="1073" 
d="M375 1057l684 -1057h-305l-693 1057h314zM338 522l154 -233l-175 -289h-303zM584 846l123 211h305l-277 -447z" />
    <glyph glyph-name="y" unicode="y" horiz-adv-x="970" 
d="M369 23l315 1034h277l-367 -1147q-14 -41 -25.5 -67.5t-33.5 -55t-50.5 -44t-73.5 -26t-106 -10.5h-166v242h123q42 0 69 15.5t38 58.5zM457 549l-127 -416l-320 924h281z" />
    <glyph glyph-name="z" unicode="z" horiz-adv-x="974" 
d="M659 1057l-188 -230h-375v230h563zM739 1057h172v-203l-704 -854h-156v223zM287 0l188 229h438v-229h-626z" />
    <glyph glyph-name="braceleft" unicode="{" horiz-adv-x="837" 
d="M776 1782v-215h-71q-119 0 -119 -162v-440q0 -54 -18.5 -97.5t-44.5 -68.5t-59.5 -42.5t-58 -24.5t-45.5 -9v-10q22 -3 46.5 -10t58 -23.5t59.5 -39.5t44 -61t18 -85v-471q0 -158 119 -158h71v-213h-227q-42 0 -87 16.5t-84.5 48t-65 83t-25.5 114.5v549q0 45 -19 80.5
t-48.5 56t-59.5 31t-58 12.5v158q28 2 58 12.5t59.5 31.5t48.5 59.5t19 88.5v525q0 64 25.5 116t65 83t84 48t87.5 17h227z" />
    <glyph glyph-name="bar" unicode="|" horiz-adv-x="462" 
d="M123 -41v1516h217v-1516h-217z" />
    <glyph glyph-name="braceright" unicode="}" horiz-adv-x="837" 
d="M61 1567v215h228q41 0 85.5 -17t84 -48t65 -83.5t25.5 -115.5v-525q0 -50 19 -88.5t49 -59.5t60 -31.5t58 -12.5v-158q-28 -2 -58 -12.5t-60 -31t-49 -56t-19 -80.5v-549q0 -63 -25.5 -115t-65 -83t-84 -47.5t-85.5 -16.5h-228v213h72q119 0 119 158v471q0 47 18 85
t43.5 61t59 39.5t58 23.5t46.5 10v10q-22 2 -46.5 9t-57.5 24.5t-59 42.5t-44 68.5t-18 97.5v440q0 162 -119 162h-72z" />
    <glyph glyph-name="asciitilde" unicode="~" horiz-adv-x="1220" 
d="M909 897h209q0 -352 -266 -352q-77 0 -163.5 27t-163 54t-130.5 27q-35 0 -59.5 -25.5t-24.5 -82.5h-209q0 163 74.5 257.5t190.5 94.5q77 0 166 -27.5t168 -54.5t133 -27q32 0 53.5 26.5t21.5 82.5z" />
    <glyph glyph-name="nbspace" unicode="&#xa0;" horiz-adv-x="466" 
 />
    <glyph glyph-name="exclamdown" unicode="&#xa1;" horiz-adv-x="530" 
d="M127 -377v469l80 582h112l89 -582v-469h-281zM123 1057h278v-287h-278v287z" />
    <glyph glyph-name="cent" unicode="&#xa2;" horiz-adv-x="1097" 
d="M678 1341h-176v195h176v-195zM502 123h176v-225h-176v225zM621 1044v236q144 -7 245 -85.5t162 -203.5l-217 -119q-55 154 -190 172zM621 178v236q76 8 123 54.5t81 123.5l222 -129q-158 -270 -426 -285zM559 414v-236q-232 12 -365 158.5t-133 392.5q0 110 33 207
t94 172t157 121t214 51v-236q-112 -10 -165.5 -94.5t-53.5 -220.5q0 -131 53.5 -217.5t165.5 -97.5z" />
    <glyph glyph-name="sterling" unicode="&#xa3;" horiz-adv-x="1173" 
d="M614 1219v233q181 -7 294 -117.5t134 -275.5l-245 -41q-8 78 -55.5 135t-127.5 66zM725 209q35 0 64.5 10.5t47 27t27 28.5t13.5 22h235q-11 -59 -35 -111.5t-66 -102t-112 -79t-160 -29.5q-89 0 -250 38t-190 38q-41 0 -65.5 -17.5t-32.5 -39.5l-150 127q70 155 254 155
q71 0 215 -33.5t205 -33.5zM334 338q14 28 14 65q0 65 -33 146h-233v168h156q-35 69 -52.5 108.5t-34 101.5t-16.5 120q0 181 111.5 288.5t306.5 116.5v-235q-64 -12 -98.5 -60.5t-34.5 -116.5q0 -30 10 -63t21 -55.5t34 -64t33 -62.5l39 -78h289v-168h-238q6 -44 6 -80
q0 -102 -51 -174q-17 4 -55 12.5t-61 13.5t-55 10.5t-58 6.5z" />
    <glyph glyph-name="currency" unicode="&#xa4;" horiz-adv-x="1376" 
d="M860 240v-277q-253 9 -418.5 161t-214.5 398h-196l51 140h129q-2 18 -2 55t2 55h-180l51 139h143q22 117 71.5 211.5t113 157t142 105.5t154.5 62.5t154 22.5v-276q-112 -9 -195.5 -82.5t-119.5 -200.5h606l-53 -139h-578v-53q0 -39 2 -57h533l-51 -140h-457
q37 -123 116 -198t197 -84zM922 1194v276q238 -8 391 -145l-125 -303q-42 70 -110 117.5t-156 54.5zM1206 424v-389q-130 -66 -284 -72v277q94 7 167 54.5t117 129.5z" />
    <glyph glyph-name="yen" unicode="&#xa5;" horiz-adv-x="1185" 
d="M31 1434h301l407 -734v-30h234v-140h-234v-108h234v-139h-234v-283h-297v283h-237v139h237v108h-237v140h237v30zM852 1434h303l-379 -674l-155 282z" />
    <glyph glyph-name="brokenbar" unicode="&#xa6;" horiz-adv-x="462" 
d="M340 1475v-656h-217v656h217zM123 -41v655h217v-655h-217z" />
    <glyph glyph-name="section" unicode="&#xa7;" horiz-adv-x="1064" 
d="M596 1274v192q164 -9 265 -109t104 -278h-220q0 77 -40 131t-109 64zM535 1466v-192q-59 -8 -97.5 -45.5t-38.5 -98.5q0 -48 37 -90t96 -76t130 -68t142 -73.5t130 -85.5t96 -112t37 -144q0 -79 -36.5 -147t-100.5 -111q-53 62 -129 113q51 48 51 108q0 91 -139 168
l-230 127q-315 176 -315 389q0 75 31.5 138t83.5 104.5t117 66t135 29.5zM535 -182v-193q-177 9 -283 109.5t-113 279.5h219q3 -84 50.5 -135.5t126.5 -60.5zM596 -375v193q59 8 98 44.5t39 96.5q0 20 -5.5 39t-20.5 38t-26.5 32.5t-40 32.5l-43.5 29t-53.5 30.5t-53.5 28.5
t-60 30q-51 26 -79.5 41t-76 43t-74.5 50t-61 55.5t-52 66t-31 75.5t-13 89q0 83 39 150.5t108 107.5q46 -58 125 -119q-57 -50 -57 -125q0 -91 125 -157l330 -179q75 -41 129 -90.5t81 -98.5t38.5 -91t11.5 -82q0 -97 -53 -171.5t-137.5 -114t-186.5 -44.5z" />
    <glyph glyph-name="dieresis" unicode="&#xa8;" horiz-adv-x="778" 
d="M61 1180v254h254v-254h-254zM459 1180v254h258v-254h-258z" />
    <glyph glyph-name="copyright" unicode="&#xa9;" horiz-adv-x="1626" 
d="M846 987v178q132 -9 222.5 -84t127.5 -200l-188 -54q-20 68 -62.5 110.5t-99.5 49.5zM846 260v186q60 8 105 50t63 116l186 -55q-28 -122 -121 -206t-233 -91zM784 446v-184q-120 9 -211.5 72.5t-137.5 161t-46 213.5q0 106 32.5 192.5t88 142.5t125.5 87t149 36v-180
q-90 -15 -138 -84t-48 -184q0 -106 48 -183t138 -90zM784 119v-156q-150 5 -283 64t-230 157t-153.5 236t-56.5 295q0 156 57 294t154 236t230 157t282 64v-155q-115 -5 -217.5 -52.5t-177 -125.5t-117.5 -186.5t-43 -231.5q0 -164 74 -298.5t201 -212.5t280 -85zM846 -37
v156q153 8 279 86.5t199 212.5t73 297t-73 297t-199 212.5t-279 86.5v155q148 -6 280.5 -65t229 -157t153 -235.5t56.5 -293.5q0 -207 -97 -377.5t-261 -268.5t-361 -106z" />
    <glyph glyph-name="ordfeminine" unicode="&#xaa;" horiz-adv-x="757" 
d="M492 838v403q0 28 -25.5 50t-87.5 22q-57 0 -83.5 -23.5t-29.5 -70.5h-172q8 233 279 233q72 0 124.5 -10.5t86 -29t53.5 -48t27.5 -63t7.5 -78.5v-365q0 -56 24 -96h-194q-10 30 -10 76zM449 928v-142q-51 -30 -140 -30q-111 0 -179.5 53t-68.5 162q0 46 17.5 80.5
t43 55.5t66.5 35.5t76 21t84 12.5l101 12v-129l-101 -15q-52 -7 -75 -26t-23 -53q0 -32 24 -53t72 -21q63 0 103 37z" />
    <glyph glyph-name="uni00AB" unicode="&#xab;" horiz-adv-x="917" 
d="M408 244l-316 252v270l316 248v-242l-181 -141l181 -146v-241zM815 244l-315 252v270l315 248v-242l-180 -141l180 -146v-241z" />
    <glyph glyph-name="logicalnot" unicode="&#xac;" horiz-adv-x="1218" 
d="M1116 840v-641h-266v397h-748v244h1014z" />
    <glyph glyph-name="uni00AD" unicode="&#xad;" horiz-adv-x="722" 
d="M123 432v250h477v-250h-477z" />
    <glyph glyph-name="registered" unicode="&#xae;" horiz-adv-x="1626" 
d="M737 596v162h99q41 0 80.5 29t39.5 85q0 50 -32.5 79.5t-69.5 29.5h-117v164h121q133 0 208 -70.5t75 -197.5q0 -179 -142 -250l181 -318h-215l-160 287h-68zM676 1145v-836h-184v836h184zM784 119v-156q-150 5 -283 64t-230 157t-153.5 236t-56.5 295q0 156 57 294
t154 236t230 157t282 64v-155q-115 -5 -217.5 -52.5t-177 -125.5t-117.5 -186.5t-43 -231.5q0 -164 74 -298.5t201 -212.5t280 -85zM846 -37v156q153 8 279 86.5t199 212.5t73 297t-73 297t-199 212.5t-279 86.5v155q148 -6 280.5 -65t229 -157t153 -235.5t56.5 -293.5
q0 -207 -97 -377.5t-261 -268.5t-361 -106z" />
    <glyph glyph-name="macron" unicode="&#xaf;" horiz-adv-x="727" 
d="M61 1233v174h605v-174h-605z" />
    <glyph glyph-name="degree" unicode="&#xb0;" horiz-adv-x="757" 
d="M348 963v-121q-115 11 -190.5 94t-75.5 201q0 115 76 199t190 96v-123q-55 -11 -95 -60.5t-40 -111.5t39.5 -112t95.5 -62zM410 842v121q55 12 95 62t40 112t-39.5 111t-95.5 61v123q113 -12 189.5 -96t76.5 -199q0 -118 -75.5 -201t-190.5 -94z" />
    <glyph glyph-name="plusminus" unicode="&#xb1;" horiz-adv-x="1220" 
d="M737 1415v-389h381v-246h-381v-387h-252v387h-383v246h383v389h252zM1118 266v-246h-1016v246h1016z" />
    <glyph glyph-name="twosuperior" unicode="&#xb2;" horiz-adv-x="833" 
d="M61 516v162l283 205q140 101 180.5 151.5t40.5 120.5q0 47 -35.5 92.5t-91.5 52.5v158q158 -9 245 -93.5t87 -215.5q0 -54 -18.5 -102t-55 -89.5t-71.5 -72t-88 -68.5l-420 -301h-56zM416 678h356v-162h-586zM395 1458v-158q-61 -7 -101 -52t-40 -101q0 -18 1 -49.5
t1 -36.5l-195 20v74q0 51 21.5 102t61.5 95.5t105.5 73.5t145.5 32z" />
    <glyph glyph-name="threesuperior" unicode="&#xb3;" horiz-adv-x="860" 
d="M410 649v-157q-162 6 -250 87t-99 230l197 20q12 -85 45 -131t107 -49zM451 492v157q59 7 103 41t44 96q0 38 -16 65.5t-36.5 41.5t-48 22t-43.5 9.5t-30 1.5h-74v139h78q34 0 66 9.5t59 37.5t27 72q0 52 -37.5 84t-91.5 39v151q145 -6 235 -79t90 -181q0 -78 -43.5 -125
t-99.5 -67q23 -6 49 -21.5t53.5 -41t45.5 -66.5t18 -89q0 -131 -100 -211t-248 -85zM410 1458v-151q-67 -7 -100 -53.5t-38 -112.5l-190 20q6 53 26 101t57.5 92t100.5 72t144 32z" />
    <glyph glyph-name="acute" unicode="&#xb4;" horiz-adv-x="630" 
d="M567 1454l-307 -274h-199l191 274h315z" />
    <glyph glyph-name="uni00B5" unicode="&#xb5;" horiz-adv-x="1144" 
d="M123 -362v1419h274v-613q0 -46 2 -73.5t9.5 -57t22.5 -45t41 -25.5t65 -10q52 0 87.5 10t61.5 40v-238q-74 -51 -154 -51q-70 0 -135 45v-401h-274zM748 0v1057h274v-1057h-274z" />
    <glyph glyph-name="paragraph" unicode="&#xb6;" horiz-adv-x="1249" 
d="M797 1288v146h258v-1751h-181v1605h-77zM735 1434v-146h-80v-1605h-180v995q-196 1 -312 101.5t-116 260.5q0 134 60 223.5t163.5 130t247.5 40.5h217z" />
    <glyph glyph-name="periodcentered" unicode="&#xb7;" horiz-adv-x="532" 
d="M123 571v297h287v-297h-287z" />
    <glyph glyph-name="cedilla" unicode="&#xb8;" horiz-adv-x="606" 
d="M55 -420l47 125q82 -37 160 -37q88 0 88 68q0 27 -20 46t-58 19q-47 0 -82 -14l-28 78q48 25 89 33t97 8q91 0 145 -49.5t54 -116.5q0 -102 -77.5 -153.5t-190.5 -51.5q-122 0 -224 45z" />
    <glyph glyph-name="onesuperior" unicode="&#xb9;" horiz-adv-x="571" 
d="M449 516h-197v586q0 30 -11.5 37.5t-47.5 7.5h-132v127q183 0 234 160h154v-918z" />
    <glyph glyph-name="ordmasculine" unicode="&#xba;" horiz-adv-x="835" 
d="M401 899v-151q-158 7 -249 104t-91 248q0 146 90 246.5t250 107.5v-151q-76 -6 -112.5 -60.5t-36.5 -142.5q0 -83 36 -138.5t113 -62.5zM442 748v151q72 7 107 61t35 140q0 92 -38 144.5t-104 58.5v151q153 -7 242.5 -106t89.5 -248q0 -159 -95.5 -250.5t-236.5 -101.5z
" />
    <glyph glyph-name="uni00BB" unicode="&#xbb;" horiz-adv-x="917" 
d="M92 1014l316 -248v-270l-316 -252v241l180 146l-180 141v242zM500 1014l315 -248v-270l-315 -252v241l180 146l-180 141v242z" />
    <glyph glyph-name="onequarter" unicode="&#xbc;" horiz-adv-x="1818" 
d="M332 -33l854 1485h221l-848 -1485h-227zM449 516h-197v586q0 30 -11.5 37.5t-47.5 7.5h-132v127q183 0 234 160h154v-918zM1391 629l-205 -269h205v-139h-385v133l385 508v-233zM1432 918h198v-558h131v-139h-131v-221h-198v918z" />
    <glyph glyph-name="onehalf" unicode="&#xbd;" horiz-adv-x="1972" 
d="M344 -33l854 1485h221l-848 -1485h-227zM449 516h-197v586q0 30 -11.5 37.5t-47.5 7.5h-132v127q183 0 234 160h154v-918zM1188 0v162l282 205q141 102 181.5 152t40.5 120q0 47 -35.5 92.5t-91.5 52.5v158q157 -9 244 -93.5t87 -215.5q0 -54 -18.5 -102t-55 -89.5
t-71.5 -72t-88 -68.5l-420 -301h-55zM1542 162h356v-162h-585zM1522 942v-158q-61 -7 -101.5 -52t-40.5 -101q0 -18 1 -49.5t1 -36.5l-194 20v74q0 51 21.5 102t61.5 95.5t105.5 73.5t145.5 32z" />
    <glyph glyph-name="threequarters" unicode="&#xbe;" horiz-adv-x="2072" 
d="M565 -33l854 1485h221l-847 -1485h-228zM1645 629l-205 -269h205v-139h-385v133l385 508v-233zM1686 918h198v-558h131v-139h-131v-221h-198v918zM410 649v-157q-162 6 -250 87t-99 230l197 20q12 -85 45 -131t107 -49zM451 492v157q59 7 103 41t44 96q0 38 -16 65.5
t-36.5 41.5t-48 22t-43.5 9.5t-30 1.5h-74v139h78q34 0 66 9.5t59 37.5t27 72q0 52 -37.5 84t-91.5 39v151q145 -6 235 -79t90 -181q0 -78 -43.5 -125t-99.5 -67q23 -6 49 -21.5t53.5 -41t45.5 -66.5t18 -89q0 -131 -100 -211t-248 -85zM410 1458v-151q-67 -7 -100 -53.5
t-38 -112.5l-190 20q6 53 26 101t57.5 92t100.5 72t144 32z" />
    <glyph glyph-name="questiondown" unicode="&#xbf;" horiz-adv-x="1085" 
d="M428 1055h283v-287h-283v287zM524 -164v-235q-97 4 -177.5 32t-132 69.5t-87.5 93.5t-51 103t-15 99q0 86 21.5 152t55.5 106t75.5 71t83 54.5t75.5 48t55.5 61t21.5 84.5v87h239v-138q0 -64 -19 -115t-48.5 -83.5t-66 -60t-73 -51t-66 -48t-48.5 -60t-19 -79.5
q0 -84 50.5 -133.5t125.5 -57.5zM586 -399v235q47 5 83.5 26.5t57.5 50t34.5 66.5t18 72t4.5 70l250 -82q-1 -33 -10 -77.5t-39.5 -108.5t-76.5 -116t-130 -91.5t-192 -44.5z" />
    <glyph glyph-name="Agrave" unicode="&#xc0;" horiz-adv-x="1335" 
d="M467 1339l143 -409l-147 -475h315l84 -238h-477l-70 -217h-295zM498 1434h311l506 -1434h-311zM553 1536l-262 184h293l168 -184h-199z" />
    <glyph glyph-name="Aacute" unicode="&#xc1;" horiz-adv-x="1335" 
d="M467 1339l143 -409l-147 -475h315l84 -238h-477l-70 -217h-295zM498 1434h311l506 -1434h-311zM467 1339l143 -409l-147 -475h315l84 -238h-477l-70 -217h-295zM498 1434h311l506 -1434h-311zM1018 1720l-266 -184h-199l149 184h316z" />
    <glyph glyph-name="Acircumflex" unicode="&#xc2;" horiz-adv-x="1335" 
d="M467 1339l143 -409l-147 -475h315l84 -238h-477l-70 -217h-295zM498 1434h311l506 -1434h-311zM299 1536l221 184h260l221 -184h-256l-90 82h-14l-106 -82h-236z" />
    <glyph glyph-name="Atilde" unicode="&#xc3;" horiz-adv-x="1335" 
d="M467 1339l143 -409l-147 -475h315l84 -238h-477l-70 -217h-295zM498 1434h311l506 -1434h-311zM440 1536h-129q0 97 49 160t144 63q63 0 125.5 -21.5t113 -43t84.5 -21.5q25 0 42.5 23.5t17.5 58.5h131q0 -101 -51.5 -163t-139.5 -62q-61 0 -162.5 43t-160.5 43
q-28 0 -46 -23.5t-18 -56.5z" />
    <glyph glyph-name="Adieresis" unicode="&#xc4;" horiz-adv-x="1335" 
d="M467 1339l143 -409l-147 -475h315l84 -238h-477l-70 -217h-295zM498 1434h311l506 -1434h-311zM322 1536v184h253v-184h-253zM719 1536v184h258v-184h-258z" />
    <glyph glyph-name="Aring" unicode="&#xc5;" horiz-adv-x="1335" 
d="M467 1339l143 -409l-147 -475h315l84 -238h-477l-70 -217h-295zM498 1434h311l506 -1434h-311zM459 1642q0 82 56 138.5t138 56.5q83 0 141 -56.5t58 -138.5q0 -83 -57.5 -139.5t-141.5 -56.5q-82 0 -138 56.5t-56 139.5zM578 1642q0 -37 20.5 -61.5t54.5 -24.5
q36 0 58 25t22 61t-22 61.5t-58 25.5q-34 0 -54.5 -25t-20.5 -62z" />
    <glyph glyph-name="AE" unicode="&#xc6;" horiz-adv-x="1984" 
d="M1176 1167l-43 267h702v-267h-659zM1266 600l-43 260h579v-260h-536zM1360 0l-43 266h606v-266h-563zM1071 1434l227 -1434h-299l-227 1434h299zM723 1339l63 -409l-239 -475h315l39 -238h-477l-113 -217h-291z" />
    <glyph glyph-name="Ccedilla" unicode="&#xc7;" horiz-adv-x="1423" 
d="M774 1194v276q400 -15 574 -403l-271 -125q-29 95 -109 168.5t-194 83.5zM774 -37v277q113 9 195 82t121 194l282 -133q-27 -62 -62 -117t-88 -110.5t-116 -95.5t-149 -67t-183 -30zM713 240v-277q-201 7 -350.5 108.5t-225.5 269t-76 376.5q0 159 41 288.5t106 212.5
t152.5 140.5t174.5 82.5t178 29v-276q-151 -12 -245.5 -137t-94.5 -338q0 -197 89.5 -331.5t250.5 -147.5zM485 -440l47 125q82 -37 160 -37q88 0 88 67q0 27 -20.5 46.5t-57.5 19.5q-46 0 -81 -14l-29 77q48 25 89 33t97 8q91 0 145 -49.5t54 -116.5q0 -102 -77.5 -153
t-190.5 -51q-122 0 -224 45z" />
    <glyph glyph-name="Egrave" unicode="&#xc8;" horiz-adv-x="1204" 
d="M483 1167v267h613v-267h-613zM483 600v260h580v-260h-580zM483 0v266h639v-266h-639zM422 1434v-1434h-299v1434h299zM553 1536l-262 184h293l168 -184h-199z" />
    <glyph glyph-name="Eacute" unicode="&#xc9;" horiz-adv-x="1204" 
d="M483 1167v267h613v-267h-613zM483 600v260h580v-260h-580zM483 0v266h639v-266h-639zM422 1434v-1434h-299v1434h299zM956 1720l-266 -184h-198l149 184h315z" />
    <glyph glyph-name="Ecircumflex" unicode="&#xca;" horiz-adv-x="1204" 
d="M483 1167v267h613v-267h-613zM483 600v260h580v-260h-580zM483 0v266h639v-266h-639zM422 1434v-1434h-299v1434h299zM258 1536l221 184h260l222 -184h-256l-91 82h-14l-106 -82h-236z" />
    <glyph glyph-name="Edieresis" unicode="&#xcb;" horiz-adv-x="1204" 
d="M483 1167v267h613v-267h-613zM483 600v260h580v-260h-580zM483 0v266h639v-266h-639zM422 1434v-1434h-299v1434h299zM279 1536v184h253v-184h-253zM676 1536v184h258v-184h-258z" />
    <glyph glyph-name="Igrave" unicode="&#xcc;" horiz-adv-x="544" 
d="M422 0h-299v1434h299v-1434zM203 1536l-262 184h292l168 -184h-198z" />
    <glyph glyph-name="Iacute" unicode="&#xcd;" horiz-adv-x="544" 
d="M422 0h-299v1434h299v-1434zM608 1720l-266 -184h-199l150 184h315z" />
    <glyph glyph-name="Icircumflex" unicode="&#xce;" horiz-adv-x="544" 
d="M422 0h-299v1434h299v-1434zM0 1536l172 184h203l170 -184h-199l-70 82h-10l-84 -82h-182z" />
    <glyph glyph-name="Idieresis" unicode="&#xcf;" horiz-adv-x="544" 
d="M422 0h-299v1434h299v-1434zM0 1536v184h211v-184h-211zM328 1536v184h215v-184h-215z" />
    <glyph glyph-name="Eth" unicode="&#xd0;" horiz-adv-x="1409" 
d="M514 0v266h143q61 0 111.5 9.5t104.5 39.5t91 79t61 136t24 203q0 202 -104.5 320t-321.5 118h-109v263h139q264 0 432 -125q115 -86 189 -239.5t74 -334.5q0 -157 -36.5 -283t-98.5 -209t-149 -139t-183.5 -80t-206.5 -24h-160zM453 1434v-598h272v-213h-272v-623h-299
v623h-123v213h123v598h299z" />
    <glyph glyph-name="Ntilde" unicode="&#xd1;" horiz-adv-x="1374" 
d="M1251 238l-284 440v756h284v-1196zM123 1196l285 -442v-754h-285v1196zM967 0l-844 1311v123h283l845 -1311v-123h-284zM467 1536h-129q0 97 48.5 160t143.5 63q63 0 125.5 -21.5t113.5 -43t85 -21.5q25 0 42 23.5t17 58.5h131q0 -101 -51 -163t-139 -62q-61 0 -163 43
t-161 43q-28 0 -45.5 -23.5t-17.5 -56.5z" />
    <glyph glyph-name="Ograve" unicode="&#xd2;" horiz-adv-x="1486" 
d="M774 1194v276q88 -4 173 -28t173.5 -80t154.5 -138t108 -213t42 -294q0 -151 -37.5 -276.5t-100.5 -210.5t-148 -145.5t-176.5 -89t-188.5 -32.5v277q66 5 124.5 35.5t108 86.5t78.5 147.5t29 207.5q0 100 -21.5 181.5t-55.5 133.5t-80 88t-91 53t-92 21zM713 1470v-276
q-49 -4 -95 -21.5t-91 -54.5t-78.5 -89t-54.5 -132.5t-21 -179.5q0 -113 28.5 -203.5t77.5 -147t108 -88.5t126 -38v-277q-82 4 -160.5 26t-152 63t-135 104t-107.5 143.5t-71.5 187.5t-25.5 230q0 159 41 288.5t106 212.5t152.5 140.5t174.5 82.5t178 29zM645 1556
l-262 185h293l168 -185h-199z" />
    <glyph glyph-name="Oacute" unicode="&#xd3;" horiz-adv-x="1486" 
d="M774 1194v276q88 -4 173 -28t173.5 -80t154.5 -138t108 -213t42 -294q0 -151 -37.5 -276.5t-100.5 -210.5t-148 -145.5t-176.5 -89t-188.5 -32.5v277q66 5 124.5 35.5t108 86.5t78.5 147.5t29 207.5q0 100 -21.5 181.5t-55.5 133.5t-80 88t-91 53t-92 21zM713 1470v-276
q-49 -4 -95 -21.5t-91 -54.5t-78.5 -89t-54.5 -132.5t-21 -179.5q0 -113 28.5 -203.5t77.5 -147t108 -88.5t126 -38v-277q-82 4 -160.5 26t-152 63t-135 104t-107.5 143.5t-71.5 187.5t-25.5 230q0 159 41 288.5t106 212.5t152.5 140.5t174.5 82.5t178 29zM1100 1741
l-266 -185h-199l149 185h316z" />
    <glyph glyph-name="Ocircumflex" unicode="&#xd4;" horiz-adv-x="1486" 
d="M774 1194v276q88 -4 173 -28t173.5 -80t154.5 -138t108 -213t42 -294q0 -151 -37.5 -276.5t-100.5 -210.5t-148 -145.5t-176.5 -89t-188.5 -32.5v277q66 5 124.5 35.5t108 86.5t78.5 147.5t29 207.5q0 100 -21.5 181.5t-55.5 133.5t-80 88t-91 53t-92 21zM713 1470v-276
q-49 -4 -95 -21.5t-91 -54.5t-78.5 -89t-54.5 -132.5t-21 -179.5q0 -113 28.5 -203.5t77.5 -147t108 -88.5t126 -38v-277q-82 4 -160.5 26t-152 63t-135 104t-107.5 143.5t-71.5 187.5t-25.5 230q0 159 41 288.5t106 212.5t152.5 140.5t174.5 82.5t178 29zM397 1556l221 185
h261l221 -185h-256l-90 82h-15l-106 -82h-236z" />
    <glyph glyph-name="Otilde" unicode="&#xd5;" horiz-adv-x="1486" 
d="M774 1194v276q88 -4 173 -28t173.5 -80t154.5 -138t108 -213t42 -294q0 -151 -37.5 -276.5t-100.5 -210.5t-148 -145.5t-176.5 -89t-188.5 -32.5v277q66 5 124.5 35.5t108 86.5t78.5 147.5t29 207.5q0 100 -21.5 181.5t-55.5 133.5t-80 88t-91 53t-92 21zM713 1470v-276
q-49 -4 -95 -21.5t-91 -54.5t-78.5 -89t-54.5 -132.5t-21 -179.5q0 -113 28.5 -203.5t77.5 -147t108 -88.5t126 -38v-277q-82 4 -160.5 26t-152 63t-135 104t-107.5 143.5t-71.5 187.5t-25.5 230q0 159 41 288.5t106 212.5t152.5 140.5t174.5 82.5t178 29zM518 1556h-129
q0 97 49 160.5t144 63.5q63 0 125.5 -21.5t113 -43t84.5 -21.5q25 0 42.5 23.5t17.5 58.5h131q0 -101 -51.5 -163.5t-139.5 -62.5q-61 0 -162.5 43t-160.5 43q-28 0 -46 -23.5t-18 -56.5z" />
    <glyph glyph-name="Odieresis" unicode="&#xd6;" horiz-adv-x="1486" 
d="M774 1194v276q88 -4 173 -28t173.5 -80t154.5 -138t108 -213t42 -294q0 -151 -37.5 -276.5t-100.5 -210.5t-148 -145.5t-176.5 -89t-188.5 -32.5v277q66 5 124.5 35.5t108 86.5t78.5 147.5t29 207.5q0 100 -21.5 181.5t-55.5 133.5t-80 88t-91 53t-92 21zM713 1470v-276
q-49 -4 -95 -21.5t-91 -54.5t-78.5 -89t-54.5 -132.5t-21 -179.5q0 -113 28.5 -203.5t77.5 -147t108 -88.5t126 -38v-277q-82 4 -160.5 26t-152 63t-135 104t-107.5 143.5t-71.5 187.5t-25.5 230q0 159 41 288.5t106 212.5t152.5 140.5t174.5 82.5t178 29zM418 1556v185h254
v-185h-254zM815 1556v185h258v-185h-258z" />
    <glyph glyph-name="multiply" unicode="&#xd7;" horiz-adv-x="1218" 
d="M324 1184l286 -291l289 291l176 -174l-291 -291l291 -289l-176 -176l-291 291l-289 -291l-176 174l293 291l-291 289z" />
    <glyph glyph-name="Oslash" unicode="&#xd8;" horiz-adv-x="1486" 
d="M774 618v254l187 244q-81 67 -187 78v276q209 -11 365 -120l92 120h194l-170 -223q170 -199 170 -530q0 -151 -37.5 -276.5t-100.5 -210.5t-148 -145.5t-176.5 -89t-188.5 -32.5v277q66 5 124.5 35.5t108 86.5t78.5 147.5t29 207.5q0 157 -55 274zM713 813v-254
l-187 -242q79 -67 187 -77v-277q-203 10 -363 121l-92 -121h-197l172 225q-172 203 -172 529q0 159 41 288.5t106 212.5t152.5 140.5t174.5 82.5t178 29v-276q-49 -4 -95 -21.5t-91 -54.5t-78.5 -89t-54.5 -132.5t-21 -179.5q0 -162 55 -275z" />
    <glyph glyph-name="Ugrave" unicode="&#xd9;" horiz-adv-x="1368" 
d="M643 238v-275q-69 3 -138 19.5t-141 53t-126.5 88.5t-89.5 134t-35 182v994h301v-899q0 -147 57 -218t172 -79zM705 -37v275q133 6 191 73.5t58 220.5v902h301v-963q0 -72 -15 -138t-54 -133.5t-99.5 -117.5t-158.5 -83t-223 -36zM590 1536l-262 184h293l167 -184h-198z
" />
    <glyph glyph-name="Uacute" unicode="&#xda;" horiz-adv-x="1368" 
d="M643 238v-275q-69 3 -138 19.5t-141 53t-126.5 88.5t-89.5 134t-35 182v994h301v-899q0 -147 57 -218t172 -79zM705 -37v275q133 6 191 73.5t58 220.5v902h301v-963q0 -72 -15 -138t-54 -133.5t-99.5 -117.5t-158.5 -83t-223 -36zM1042 1720l-266 -184h-198l149 184h315z
" />
    <glyph glyph-name="Ucircumflex" unicode="&#xdb;" horiz-adv-x="1368" 
d="M643 238v-275q-69 3 -138 19.5t-141 53t-126.5 88.5t-89.5 134t-35 182v994h301v-899q0 -147 57 -218t172 -79zM705 -37v275q133 6 191 73.5t58 220.5v902h301v-963q0 -72 -15 -138t-54 -133.5t-99.5 -117.5t-158.5 -83t-223 -36zM330 1536l221 184h260l221 -184h-256
l-90 82h-14l-107 -82h-235z" />
    <glyph glyph-name="Udieresis" unicode="&#xdc;" horiz-adv-x="1368" 
d="M643 238v-275q-69 3 -138 19.5t-141 53t-126.5 88.5t-89.5 134t-35 182v994h301v-899q0 -147 57 -218t172 -79zM705 -37v275q133 6 191 73.5t58 220.5v902h301v-963q0 -72 -15 -138t-54 -133.5t-99.5 -117.5t-158.5 -83t-223 -36zM358 1536v184h254v-184h-254zM756 1536
v184h258v-184h-258z" />
    <glyph glyph-name="Yacute" unicode="&#xdd;" horiz-adv-x="1263" 
d="M778 578v-578h-297v578l-461 856h304zM662 922l282 512h299l-430 -797zM997 1720l-266 -184h-199l150 184h315z" />
    <glyph glyph-name="Thorn" unicode="&#xde;" horiz-adv-x="1255" 
d="M422 1434v-1434h-299v1434h299zM483 270v248h170q49 0 90 12.5t76.5 39.5t55.5 76t20 116q0 105 -64 162t-178 57h-170v248h193q110 0 198.5 -26t147 -70t98 -104t57 -126.5t17.5 -140.5q0 -107 -30.5 -195t-91.5 -155t-159.5 -104.5t-226.5 -37.5h-203z" />
    <glyph glyph-name="germandbls" unicode="&#xdf;" horiz-adv-x="1198" 
d="M549 1470v-217q-62 -10 -106 -58.5t-44 -129.5v-1065h-276v1067q0 73 27.5 142t79 126.5t134.5 94t185 40.5zM610 1253v217q206 -9 330.5 -114t124.5 -275q0 -106 -55.5 -187t-126.5 -103q37 -8 78.5 -33.5t82 -67t67 -106.5t26.5 -140q0 -119 -40.5 -212t-112 -151
t-166.5 -88t-208 -30q-30 0 -98 10v240q20 -10 84 -10q100 0 176 64.5t76 174.5q0 66 -26 113.5t-65.5 69.5t-74.5 31.5t-66 9.5h-104v221h92q71 0 124.5 46.5t53.5 141.5q0 24 -7 49.5t-24 54t-53.5 49t-87.5 25.5z" />
    <glyph glyph-name="agrave" unicode="&#xe0;" horiz-adv-x="1054" 
d="M692 119v629q0 43 -37.5 77.5t-128.5 34.5q-84 0 -122.5 -36.5t-43.5 -110.5h-251q12 364 409 364q131 0 219 -24t135 -73t65.5 -110t18.5 -149v-569q0 -78 37 -152h-286q-15 75 -15 119zM631 258v-221q-81 -47 -207 -47q-164 0 -263.5 83.5t-99.5 254.5q0 51 13 93
t34 72.5t54.5 54.5t67.5 39.5t79.5 28t84 19t87.5 12.5l150 19v-201l-150 -23q-76 -12 -109.5 -42t-33.5 -83q0 -50 35 -83t106 -33q92 0 152 57zM459 1180l-303 274h313l188 -274h-198z" />
    <glyph glyph-name="aacute" unicode="&#xe1;" horiz-adv-x="1067" 
d="M692 119v629q0 43 -37.5 77.5t-128.5 34.5q-84 0 -122.5 -36.5t-43.5 -110.5h-251q12 364 409 364q131 0 219 -24t135 -73t65.5 -110t18.5 -149v-569q0 -78 37 -152h-286q-15 75 -15 119zM631 258v-221q-81 -47 -207 -47q-164 0 -263.5 83.5t-99.5 254.5q0 51 13 93
t34 72.5t54.5 54.5t67.5 39.5t79.5 28t84 19t87.5 12.5l150 19v-201l-150 -23q-76 -12 -109.5 -42t-33.5 -83q0 -50 35 -83t106 -33q92 0 152 57zM930 1454l-307 -274h-199l190 274h316z" />
    <glyph glyph-name="acircumflex" unicode="&#xe2;" horiz-adv-x="1067" 
d="M692 119v629q0 43 -37.5 77.5t-128.5 34.5q-84 0 -122.5 -36.5t-43.5 -110.5h-251q12 364 409 364q131 0 219 -24t135 -73t65.5 -110t18.5 -149v-569q0 -78 37 -152h-286q-15 75 -15 119zM631 258v-221q-81 -47 -207 -47q-164 0 -263.5 83.5t-99.5 254.5q0 51 13 93
t34 72.5t54.5 54.5t67.5 39.5t79.5 28t84 19t87.5 12.5l150 19v-201l-150 -23q-76 -12 -109.5 -42t-33.5 -83q0 -50 35 -83t106 -33q92 0 152 57zM193 1180l221 280h260l221 -280h-236l-124 157l-127 -157h-215z" />
    <glyph glyph-name="atilde" unicode="&#xe3;" horiz-adv-x="1067" 
d="M692 119v629q0 43 -37.5 77.5t-128.5 34.5q-84 0 -122.5 -36.5t-43.5 -110.5h-251q12 364 409 364q131 0 219 -24t135 -73t65.5 -110t18.5 -149v-569q0 -78 37 -152h-286q-15 75 -15 119zM631 258v-221q-81 -47 -207 -47q-164 0 -263.5 83.5t-99.5 254.5q0 51 13 93
t34 72.5t54.5 54.5t67.5 39.5t79.5 28t84 19t87.5 12.5l150 19v-201l-150 -23q-76 -12 -109.5 -42t-33.5 -83q0 -50 35 -83t106 -33q92 0 152 57zM772 1427h139q-7 -35 -15.5 -63t-26 -63t-40 -58t-60 -39t-83.5 -16q-57 0 -157.5 39t-147.5 39q-38 0 -55.5 -18t-28.5 -60
h-121q10 51 24.5 89t41.5 76.5t73 59.5t109 21q45 0 131.5 -41t132.5 -41q77 0 84 75z" />
    <glyph glyph-name="adieresis" unicode="&#xe4;" horiz-adv-x="1067" 
d="M692 119v629q0 43 -37.5 77.5t-128.5 34.5q-84 0 -122.5 -36.5t-43.5 -110.5h-251q12 364 409 364q131 0 219 -24t135 -73t65.5 -110t18.5 -149v-569q0 -78 37 -152h-286q-15 75 -15 119zM631 258v-221q-81 -47 -207 -47q-164 0 -263.5 83.5t-99.5 254.5q0 51 13 93
t34 72.5t54.5 54.5t67.5 39.5t79.5 28t84 19t87.5 12.5l150 19v-201l-150 -23q-76 -12 -109.5 -42t-33.5 -83q0 -50 35 -83t106 -33q92 0 152 57zM217 1180v254h254v-254h-254zM614 1180v254h258v-254h-258z" />
    <glyph glyph-name="aring" unicode="&#xe5;" horiz-adv-x="1067" 
d="M692 119v629q0 43 -37.5 77.5t-128.5 34.5q-84 0 -122.5 -36.5t-43.5 -110.5h-251q12 364 409 364q131 0 219 -24t135 -73t65.5 -110t18.5 -149v-569q0 -78 37 -152h-286q-15 75 -15 119zM631 258v-221q-81 -47 -207 -47q-164 0 -263.5 83.5t-99.5 254.5q0 51 13 93
t34 72.5t54.5 54.5t67.5 39.5t79.5 28t84 19t87.5 12.5l150 19v-201l-150 -23q-76 -12 -109.5 -42t-33.5 -83q0 -50 35 -83t106 -33q92 0 152 57zM291 1380q0 102 71 173t173 71q103 0 175 -71t72 -173q0 -103 -72 -174t-175 -71q-101 0 -172.5 71.5t-71.5 173.5zM416 1380
q0 -57 32.5 -95t86.5 -38q56 0 89 38t33 95t-33 95t-89 38q-54 0 -86.5 -38t-32.5 -95z" />
    <glyph glyph-name="ae" unicode="&#xe6;" horiz-adv-x="1732" 
d="M692 76v672q0 43 -37.5 77.5t-128.5 34.5q-84 0 -122.5 -36.5t-43.5 -110.5h-251q12 364 409 364q255 0 356 -119q120 109 283 119v-235q-56 -2 -97.5 -27.5t-64 -68.5t-33 -93.5t-10.5 -109.5v-23q8 -270 205 -309v-236q-101 9 -202 59.5t-167 147.5q-77 -95 -96 -106z
M631 258v-221q-81 -47 -207 -47q-164 0 -263.5 83.5t-99.5 254.5q0 51 13 93t34 72.5t54.5 54.5t67.5 39.5t79.5 28t84 19t87.5 12.5l150 19v-201l-150 -23q-76 -12 -109.5 -42t-33.5 -83q0 -50 35 -83t106 -33q92 0 152 57zM1028 662h344q-4 26 -12 50.5t-24.5 52.5
t-46.5 48.5t-70 28.5v235q235 -14 358 -217q94 -157 94 -397h-653q-4 25 -4 80q0 70 14 119zM1219 -25v236q49 3 86.5 16t62.5 37t41 47t33 58l225 -133q-151 -249 -448 -261z" />
    <glyph glyph-name="ccedilla" unicode="&#xe7;" horiz-adv-x="1097" 
d="M621 842v235q144 -7 245 -85.5t162 -203.5l-217 -118q-55 154 -190 172zM621 -25v236q76 8 123 54.5t81 123.5l222 -129q-158 -270 -426 -285zM559 211v-236q-232 12 -365 158.5t-133 392.5q0 110 33 207t94 172t157 121t214 51v-235q-112 -10 -165.5 -94.5t-53.5 -221.5
q0 -131 53.5 -217.5t165.5 -97.5zM326 -440l47 125q82 -37 159 -37q89 0 89 67q0 27 -20.5 46.5t-57.5 19.5q-47 0 -82 -14l-29 77q48 25 89 33t97 8q91 0 145 -49.5t54 -116.5q0 -102 -77.5 -153t-190.5 -51q-121 0 -223 45z" />
    <glyph glyph-name="egrave" unicode="&#xe8;" horiz-adv-x="1114" 
d="M600 -25v236q49 3 86.5 16t62.5 37t41 47t33 58l226 -133q-151 -249 -449 -261zM410 662h344q-3 26 -12 50.5t-25.5 52t-46.5 48.5t-70 29v235q235 -14 358 -217q95 -159 95 -397h-654q-4 25 -4 80q0 67 15 119zM334 543q0 -291 205 -332v-236q-59 5 -120 23.5t-126.5 60
t-116 100t-83 149t-32.5 200.5q0 121 29.5 218.5t77 160t111.5 105.5t128 62t132 23v-235q-56 -2 -97.5 -27.5t-64 -68.5t-33 -93.5t-10.5 -109.5zM479 1180l-303 274h313l189 -274h-199z" />
    <glyph glyph-name="eacute" unicode="&#xe9;" horiz-adv-x="1114" 
d="M600 -25v236q49 3 86.5 16t62.5 37t41 47t33 58l226 -133q-151 -249 -449 -261zM410 662h344q-3 26 -12 50.5t-25.5 52t-46.5 48.5t-70 29v235q235 -14 358 -217q95 -159 95 -397h-654q-4 25 -4 80q0 67 15 119zM334 543q0 -291 205 -332v-236q-59 5 -120 23.5t-126.5 60
t-116 100t-83 149t-32.5 200.5q0 121 29.5 218.5t77 160t111.5 105.5t128 62t132 23v-235q-56 -2 -97.5 -27.5t-64 -68.5t-33 -93.5t-10.5 -109.5zM956 1454l-307 -274h-198l190 274h315z" />
    <glyph glyph-name="ecircumflex" unicode="&#xea;" horiz-adv-x="1114" 
d="M600 -25v236q49 3 86.5 16t62.5 37t41 47t33 58l226 -133q-151 -249 -449 -261zM410 662h344q-3 26 -12 50.5t-25.5 52t-46.5 48.5t-70 29v235q235 -14 358 -217q95 -159 95 -397h-654q-4 25 -4 80q0 67 15 119zM334 543q0 -291 205 -332v-236q-59 5 -120 23.5t-126.5 60
t-116 100t-83 149t-32.5 200.5q0 121 29.5 218.5t77 160t111.5 105.5t128 62t132 23v-235q-56 -2 -97.5 -27.5t-64 -68.5t-33 -93.5t-10.5 -109.5zM205 1180l221 280h260l221 -280h-235l-125 157l-127 -157h-215z" />
    <glyph glyph-name="edieresis" unicode="&#xeb;" horiz-adv-x="1114" 
d="M600 -25v236q49 3 86.5 16t62.5 37t41 47t33 58l226 -133q-151 -249 -449 -261zM410 662h344q-3 26 -12 50.5t-25.5 52t-46.5 48.5t-70 29v235q235 -14 358 -217q95 -159 95 -397h-654q-4 25 -4 80q0 67 15 119zM334 543q0 -291 205 -332v-236q-59 5 -120 23.5t-126.5 60
t-116 100t-83 149t-32.5 200.5q0 121 29.5 218.5t77 160t111.5 105.5t128 62t132 23v-235q-56 -2 -97.5 -27.5t-64 -68.5t-33 -93.5t-10.5 -109.5zM227 1180v254h254v-254h-254zM625 1180v254h258v-254h-258z" />
    <glyph glyph-name="igrave" unicode="&#xec;" horiz-adv-x="479" 
d="M377 0h-275v1057h275v-1057zM377 0h-275v1057h275v-1057zM221 1180l-239 274h247l148 -274h-156z" />
    <glyph glyph-name="iacute" unicode="&#xed;" horiz-adv-x="479" 
d="M377 0h-275v1057h275v-1057zM500 1454l-230 -274h-149l143 274h236z" />
    <glyph glyph-name="icircumflex" unicode="&#xee;" horiz-adv-x="479" 
d="M377 0h-275v1057h275v-1057zM377 0h-275v1057h275v-1057zM-49 1180l180 280h211l178 -280h-190l-101 157l-104 -157h-174z" />
    <glyph glyph-name="idieresis" unicode="&#xef;" horiz-adv-x="479" 
d="M377 0h-275v1057h275v-1057zM-43 1180v254h219v-254h-219zM299 1180v254h223v-254h-223z" />
    <glyph glyph-name="eth" unicode="&#xf0;" horiz-adv-x="1163" 
d="M557 211v-236q-225 12 -360.5 164t-135.5 373q0 220 124.5 359t338.5 139q88 0 156 -23q26 -45 46.5 -111t25.5 -112q-63 63 -164 63q-123 0 -184.5 -86t-61.5 -219q0 -127 52 -211t163 -100zM618 -25v236q108 18 160.5 114t52.5 240q0 200 -52.5 350.5t-194.5 286.5
l-168 -82l-109 103l164 80q-88 68 -154 102l138 149q163 -91 235 -145l217 107l105 -105l-205 -102q295 -295 295 -768q0 -125 -38.5 -230t-105 -176.5t-154 -113t-186.5 -46.5z" />
    <glyph glyph-name="ntilde" unicode="&#xf1;" horiz-adv-x="1099" 
d="M377 1057v-1057h-275v1057h275zM438 774v238q88 65 203 65q190 0 275 -98t85 -305v-674h-274v633q0 46 -2 73t-9.5 57t-22 45.5t-40.5 25.5t-65 10q-90 0 -150 -70zM774 1427h139q-7 -35 -15.5 -63t-26 -63t-40 -58t-60 -39t-83.5 -16q-57 0 -157.5 39t-147.5 39
q-38 0 -55.5 -18t-28.5 -60h-121q10 51 24.5 89t41.5 76.5t73 59.5t109 21q45 0 131.5 -41t132.5 -41q77 0 84 75z" />
    <glyph glyph-name="ograve" unicode="&#xf2;" horiz-adv-x="1169" 
d="M559 211v-236q-232 12 -365 163.5t-133 387.5q0 110 33 207t94 172t157 121t214 51v-235q-112 -10 -165.5 -94.5t-53.5 -221.5q0 -132 53 -218t166 -97zM621 -25v236q106 12 157 96t51 219q0 142 -55.5 223.5t-152.5 92.5v235q148 -7 259.5 -81t169.5 -196t58 -274
q0 -127 -39.5 -230.5t-107.5 -170.5t-154.5 -105t-185.5 -45zM492 1180l-304 274h314l188 -274h-198z" />
    <glyph glyph-name="oacute" unicode="&#xf3;" horiz-adv-x="1169" 
d="M559 211v-236q-232 12 -365 163.5t-133 387.5q0 110 33 207t94 172t157 121t214 51v-235q-112 -10 -165.5 -94.5t-53.5 -221.5q0 -132 53 -218t166 -97zM621 -25v236q106 12 157 96t51 219q0 142 -55.5 223.5t-152.5 92.5v235q148 -7 259.5 -81t169.5 -196t58 -274
q0 -127 -39.5 -230.5t-107.5 -170.5t-154.5 -105t-185.5 -45zM981 1454l-307 -274h-199l191 274h315z" />
    <glyph glyph-name="ocircumflex" unicode="&#xf4;" horiz-adv-x="1169" 
d="M559 211v-236q-232 12 -365 163.5t-133 387.5q0 110 33 207t94 172t157 121t214 51v-235q-112 -10 -165.5 -94.5t-53.5 -221.5q0 -132 53 -218t166 -97zM621 -25v236q106 12 157 96t51 219q0 142 -55.5 223.5t-152.5 92.5v235q148 -7 259.5 -81t169.5 -196t58 -274
q0 -127 -39.5 -230.5t-107.5 -170.5t-154.5 -105t-185.5 -45zM233 1180l222 280h260l221 -280h-236l-125 157l-126 -157h-216z" />
    <glyph glyph-name="otilde" unicode="&#xf5;" horiz-adv-x="1169" 
d="M559 211v-236q-232 12 -365 163.5t-133 387.5q0 110 33 207t94 172t157 121t214 51v-235q-112 -10 -165.5 -94.5t-53.5 -221.5q0 -132 53 -218t166 -97zM621 -25v236q106 12 157 96t51 219q0 142 -55.5 223.5t-152.5 92.5v235q148 -7 259.5 -81t169.5 -196t58 -274
q0 -127 -39.5 -230.5t-107.5 -170.5t-154.5 -105t-185.5 -45zM813 1427h139q-7 -35 -15.5 -63t-26 -63t-40 -58t-60 -39t-83.5 -16q-57 0 -157.5 39t-147.5 39q-38 0 -55.5 -18t-28.5 -60h-121q10 51 24.5 89t41.5 76.5t73 59.5t109 21q45 0 131.5 -41t132.5 -41q77 0 84 75
z" />
    <glyph glyph-name="odieresis" unicode="&#xf6;" horiz-adv-x="1169" 
d="M559 211v-236q-232 12 -365 163.5t-133 387.5q0 110 33 207t94 172t157 121t214 51v-235q-112 -10 -165.5 -94.5t-53.5 -221.5q0 -132 53 -218t166 -97zM621 -25v236q106 12 157 96t51 219q0 142 -55.5 223.5t-152.5 92.5v235q148 -7 259.5 -81t169.5 -196t58 -274
q0 -127 -39.5 -230.5t-107.5 -170.5t-154.5 -105t-185.5 -45zM256 1180v254h254v-254h-254zM653 1180v254h258v-254h-258z" />
    <glyph glyph-name="divide" unicode="&#xf7;" horiz-adv-x="1220" 
d="M469 989v299h287v-299h-287zM469 150v296h287v-296h-287zM1118 840v-246h-1016v246h1016z" />
    <glyph glyph-name="oslash" unicode="&#xf8;" horiz-adv-x="1169" 
d="M559 584v-174l-121 -152q50 -41 121 -47v-236q-161 9 -276 86l-76 -98h-146l138 170q-138 150 -138 393q0 110 33 207t94 172t157 121t214 51v-235q-112 -10 -165.5 -94.5t-53.5 -221.5q0 -109 31 -178zM621 465v174l118 149q-51 45 -118 54v235q158 -9 274 -92l74 92
h139l-131 -166q131 -153 131 -385q0 -127 -39.5 -230.5t-107.5 -170.5t-154.5 -105t-185.5 -45v236q106 12 157 96t51 219q0 93 -26 166z" />
    <glyph glyph-name="ugrave" unicode="&#xf9;" horiz-adv-x="1099" 
d="M723 0v1057h274v-1057h-274zM662 283v-238q-88 -65 -203 -65q-190 0 -275.5 98t-85.5 305v674h275v-633q0 -46 2 -73t9.5 -57t22 -45.5t40.5 -25.5t65 -10q90 0 150 70zM463 1180l-303 274h313l189 -274h-199z" />
    <glyph glyph-name="uacute" unicode="&#xfa;" horiz-adv-x="1099" 
d="M723 0v1057h274v-1057h-274zM662 283v-238q-88 -65 -203 -65q-190 0 -275.5 98t-85.5 305v674h275v-633q0 -46 2 -73t9.5 -57t22 -45.5t40.5 -25.5t65 -10q90 0 150 70zM954 1454l-307 -274h-198l190 274h315z" />
    <glyph glyph-name="ucircumflex" unicode="&#xfb;" horiz-adv-x="1099" 
d="M723 0v1057h274v-1057h-274zM662 283v-238q-88 -65 -203 -65q-190 0 -275.5 98t-85.5 305v674h275v-633q0 -46 2 -73t9.5 -57t22 -45.5t40.5 -25.5t65 -10q90 0 150 70zM201 1180l221 280h260l221 -280h-235l-125 157l-127 -157h-215z" />
    <glyph glyph-name="udieresis" unicode="&#xfc;" horiz-adv-x="1099" 
d="M723 0v1057h274v-1057h-274zM662 283v-238q-88 -65 -203 -65q-190 0 -275.5 98t-85.5 305v674h275v-633q0 -46 2 -73t9.5 -57t22 -45.5t40.5 -25.5t65 -10q90 0 150 70zM223 1180v254h254v-254h-254zM621 1180v254h258v-254h-258z" />
    <glyph glyph-name="yacute" unicode="&#xfd;" horiz-adv-x="970" 
d="M369 23l315 1034h277l-367 -1147q-14 -41 -25.5 -67.5t-33.5 -55t-50.5 -44t-73.5 -26t-106 -10.5h-166v242h123q42 0 69 15.5t38 58.5zM457 549l-127 -416l-320 924h281zM885 1454l-307 -274h-199l190 274h316z" />
    <glyph glyph-name="thorn" unicode="&#xfe;" horiz-adv-x="1150" 
d="M377 1434v-1727h-275v1727h275zM438 780v242q85 55 209 55q202 0 322.5 -143.5t120.5 -398.5q0 -113 -25 -204.5t-67.5 -153.5t-101 -104t-122.5 -60.5t-135 -18.5q-110 0 -201 51v252q54 -61 146 -61q102 0 165.5 75t63.5 226t-62 230t-163 79q-94 0 -150 -66z" />
    <glyph glyph-name="ydieresis" unicode="&#xff;" horiz-adv-x="970" 
d="M369 23l315 1034h277l-367 -1147q-14 -41 -25.5 -67.5t-33.5 -55t-50.5 -44t-73.5 -26t-106 -10.5h-166v242h123q42 0 69 15.5t38 58.5zM457 549l-127 -416l-320 924h281zM166 1180v254h254v-254h-254zM563 1180v254h258v-254h-258z" />
    <glyph glyph-name="Amacron" unicode="&#x100;" horiz-adv-x="1335" 
d="M467 1339l143 -409l-147 -475h315l84 -238h-477l-70 -217h-295zM498 1434h311l506 -1434h-311zM350 1554v166h604v-166h-604z" />
    <glyph glyph-name="amacron" unicode="&#x101;" horiz-adv-x="1054" 
d="M692 119v629q0 43 -37.5 77.5t-128.5 34.5q-84 0 -122.5 -36.5t-43.5 -110.5h-251q12 364 409 364q131 0 219 -24t135 -73t65.5 -110t18.5 -149v-569q0 -78 37 -152h-286q-15 75 -15 119zM631 258v-221q-81 -47 -207 -47q-164 0 -263.5 83.5t-99.5 254.5q0 51 13 93
t34 72.5t54.5 54.5t67.5 39.5t79.5 28t84 19t87.5 12.5l150 19v-201l-150 -23q-76 -12 -109.5 -42t-33.5 -83q0 -50 35 -83t106 -33q92 0 152 57zM231 1233v174h605v-174h-605z" />
    <glyph glyph-name="Abreve" unicode="&#x102;" horiz-adv-x="1335" 
d="M467 1339l143 -409l-147 -475h315l84 -238h-477l-70 -217h-295zM498 1434h311l506 -1434h-311zM326 1808h168q4 -38 15 -61t33.5 -33t43 -13t57.5 -3q95 0 128 18.5t40 91.5h168q-4 -85 -28 -141t-70.5 -86t-102.5 -41.5t-137 -11.5q-78 0 -131 11.5t-95 41.5t-63.5 86
t-25.5 141z" />
    <glyph glyph-name="abreve" unicode="&#x103;" horiz-adv-x="1054" 
d="M692 119v629q0 43 -37.5 77.5t-128.5 34.5q-84 0 -122.5 -36.5t-43.5 -110.5h-251q12 364 409 364q131 0 219 -24t135 -73t65.5 -110t18.5 -149v-569q0 -78 37 -152h-286q-15 75 -15 119zM631 258v-221q-81 -47 -207 -47q-164 0 -263.5 83.5t-99.5 254.5q0 51 13 93
t34 72.5t54.5 54.5t67.5 39.5t79.5 28t84 19t87.5 12.5l150 19v-201l-150 -23q-76 -12 -109.5 -42t-33.5 -83q0 -50 35 -83t106 -33q92 0 152 57zM221 1462h164q19 -121 164 -121q68 0 107 25t55 96h163q-15 -155 -93.5 -218.5t-231.5 -63.5q-159 0 -237.5 67.5t-90.5 214.5
z" />
    <glyph glyph-name="Aogonek" unicode="&#x104;" horiz-adv-x="1335" 
d="M1133 -297v-123q-67 -24 -142 -24q-94 0 -155.5 45.5t-61.5 138.5q0 128 230 260l-506 1434h311l506 -1434h-123q-71 0 -148 -88.5t-77 -161.5q0 -33 21 -52.5t65 -19.5t80 25zM467 1339l143 -409l-147 -475h315l84 -238h-477l-70 -217h-295z" />
    <glyph glyph-name="aogonek" unicode="&#x105;" horiz-adv-x="1067" 
d="M836 -297v-123q-67 -24 -142 -24q-94 0 -155.5 45.5t-61.5 138.5q0 128 230 260q-15 75 -15 119v629q0 43 -37.5 77.5t-128.5 34.5q-84 0 -122.5 -36.5t-43.5 -110.5h-251q12 364 409 364q131 0 219 -24t135 -73t65.5 -110t18.5 -149v-569q0 -78 37 -152h-92
q-73 0 -151 -86.5t-78 -165.5q0 -70 84 -70q44 0 80 25zM631 258v-221q-81 -47 -207 -47q-164 0 -263.5 83.5t-99.5 254.5q0 51 13 93t34 72.5t54.5 54.5t67.5 39.5t79.5 28t84 19t87.5 12.5l150 19v-201l-150 -23q-76 -12 -109.5 -42t-33.5 -83q0 -50 35 -83t106 -33
q92 0 152 57z" />
    <glyph glyph-name="Cacute" unicode="&#x106;" horiz-adv-x="1423" 
d="M774 1194v276q400 -15 574 -403l-271 -125q-29 95 -109 168.5t-194 83.5zM774 -37v277q113 9 195 82t121 194l282 -133q-27 -62 -62 -117t-88 -110.5t-116 -95.5t-149 -67t-183 -30zM713 240v-277q-201 7 -350.5 108.5t-225.5 269t-76 376.5q0 159 41 288.5t106 212.5
t152.5 140.5t174.5 82.5t178 29v-276q-151 -12 -245.5 -137t-94.5 -338q0 -197 89.5 -331.5t250.5 -147.5zM1108 1741l-266 -185h-199l150 185h315z" />
    <glyph glyph-name="cacute" unicode="&#x107;" horiz-adv-x="1097" 
d="M621 842v235q144 -7 245 -85.5t162 -203.5l-217 -118q-55 154 -190 172zM621 -25v236q76 8 123 54.5t81 123.5l222 -129q-158 -270 -426 -285zM559 211v-236q-232 12 -365 158.5t-133 392.5q0 110 33 207t94 172t157 121t214 51v-235q-112 -10 -165.5 -94.5t-53.5 -221.5
q0 -131 53.5 -217.5t165.5 -97.5zM965 1454l-308 -274h-198l190 274h316z" />
    <glyph glyph-name="Ccircumflex" unicode="&#x108;" horiz-adv-x="1423" 
d="M774 1194v276q400 -15 574 -403l-271 -125q-29 95 -109 168.5t-194 83.5zM774 -37v277q113 9 195 82t121 194l282 -133q-27 -62 -62 -117t-88 -110.5t-116 -95.5t-149 -67t-183 -30zM713 240v-277q-201 7 -350.5 108.5t-225.5 269t-76 376.5q0 159 41 288.5t106 212.5
t152.5 140.5t174.5 82.5t178 29v-276q-151 -12 -245.5 -137t-94.5 -338q0 -197 89.5 -331.5t250.5 -147.5zM395 1556l221 185h261l221 -185h-256l-90 82h-15l-106 -82h-236z" />
    <glyph glyph-name="ccircumflex" unicode="&#x109;" horiz-adv-x="1097" 
d="M621 842v235q144 -7 245 -85.5t162 -203.5l-217 -118q-55 154 -190 172zM621 -25v236q76 8 123 54.5t81 123.5l222 -129q-158 -270 -426 -285zM559 211v-236q-232 12 -365 158.5t-133 392.5q0 110 33 207t94 172t157 121t214 51v-235q-112 -10 -165.5 -94.5t-53.5 -221.5
q0 -131 53.5 -217.5t165.5 -97.5zM229 1180l222 280h260l221 -280h-236l-125 157l-127 -157h-215z" />
    <glyph glyph-name="Cdotaccent" unicode="&#x10a;" horiz-adv-x="1423" 
d="M774 1194v276q400 -15 574 -403l-271 -125q-29 95 -109 168.5t-194 83.5zM774 -37v277q113 9 195 82t121 194l282 -133q-27 -62 -62 -117t-88 -110.5t-116 -95.5t-149 -67t-183 -30zM713 240v-277q-201 7 -350.5 108.5t-225.5 269t-76 376.5q0 159 41 288.5t106 212.5
t152.5 140.5t174.5 82.5t178 29v-276q-151 -12 -245.5 -137t-94.5 -338q0 -197 89.5 -331.5t250.5 -147.5zM608 1556v185h271v-185h-271z" />
    <glyph glyph-name="cdotaccent" unicode="&#x10b;" horiz-adv-x="1085" 
d="M621 842v235q144 -7 245 -85.5t162 -203.5l-217 -118q-55 154 -190 172zM621 -25v236q76 8 123 54.5t81 123.5l222 -129q-158 -270 -426 -285zM559 211v-236q-232 12 -365 158.5t-133 392.5q0 110 33 207t94 172t157 121t214 51v-235q-112 -10 -165.5 -94.5t-53.5 -221.5
q0 -131 53.5 -217.5t165.5 -97.5zM436 1208v236h271v-236h-271z" />
    <glyph glyph-name="Ccaron" unicode="&#x10c;" horiz-adv-x="1423" 
d="M774 1194v276q400 -15 574 -403l-271 -125q-29 95 -109 168.5t-194 83.5zM774 -37v277q113 9 195 82t121 194l282 -133q-27 -62 -62 -117t-88 -110.5t-116 -95.5t-149 -67t-183 -30zM713 240v-277q-201 7 -350.5 108.5t-225.5 269t-76 376.5q0 159 41 288.5t106 212.5
t152.5 140.5t174.5 82.5t178 29v-276q-151 -12 -245.5 -137t-94.5 -338q0 -197 89.5 -331.5t250.5 -147.5zM1092 1741l-222 -185h-260l-221 185h256l90 -82h15l106 82h236z" />
    <glyph glyph-name="ccaron" unicode="&#x10d;" horiz-adv-x="1085" 
d="M621 842v235q144 -7 245 -85.5t162 -203.5l-217 -118q-55 154 -190 172zM621 -25v236q76 8 123 54.5t81 123.5l222 -129q-158 -270 -426 -285zM559 211v-236q-232 12 -365 158.5t-133 392.5q0 110 33 207t94 172t157 121t214 51v-235q-112 -10 -165.5 -94.5t-53.5 -221.5
q0 -131 53.5 -217.5t165.5 -97.5zM928 1460l-221 -280h-261l-221 280h224l126 -157l132 157h221z" />
    <glyph glyph-name="Dcaron" unicode="&#x10e;" horiz-adv-x="1378" 
d="M422 1434v-1434h-299v1434h299zM483 0v266h144q61 0 111 9.5t104.5 39.5t91 79.5t60.5 136t24 202.5q0 202 -104.5 320t-321.5 118h-109v263h140q264 0 432 -125q114 -86 188 -239t74 -335q0 -157 -36.5 -283t-98.5 -209t-149 -139t-183.5 -80t-206.5 -24h-160z
M1010 1720l-222 -184h-260l-221 184h256l90 -82h15l106 82h236z" />
    <glyph glyph-name="dcaron" unicode="&#x10f;" horiz-adv-x="1447" 
d="M774 0v1434h275v-1434h-275zM713 279v-252q-81 -52 -209 -52q-202 0 -322.5 147t-120.5 402q0 113 25 206t67.5 156.5t100.5 107t123 63.5t135 20q110 0 201 -51v-252q-58 66 -150 66q-99 0 -162 -82.5t-63 -235.5q0 -151 61.5 -228t163.5 -77q95 0 150 62zM1411 1454
q16 -63 16 -135q0 -131 -56 -235.5t-120 -153.5l-82 49q64 137 64 225q0 74 -49 213z" />
    <glyph glyph-name="Dcroat" unicode="&#x110;" horiz-adv-x="1415" 
d="M508 0v266h143q61 0 111 9.5t104.5 39.5t91 79.5t60.5 136t24 202.5q0 202 -104.5 320t-321.5 118h-108v263h139q264 0 432 -125q114 -86 188 -239t74 -335q0 -157 -36.5 -283t-98.5 -209t-148.5 -139t-183 -80t-206.5 -24h-160zM446 1434v-598h273v-213h-273v-623h-299
v623h-122v213h122v598h299z" />
    <glyph glyph-name="dcroat" unicode="&#x111;" horiz-adv-x="1169" 
d="M502 1169v174h272v91h273v-91h122v-174h-122v-1169h-273v76q-1 0 -2 1t-2 1q-23 -20 -29.5 -25.5t-34 -23.5t-49 -24.5t-60 -13.5t-83.5 -7q-210 0 -331.5 140.5t-121.5 403.5q0 135 38 241t101.5 169.5t141.5 96t164 32.5q92 0 151.5 -20.5t110.5 -61.5l6 4v180h-272z
M774 459v127q0 37 -8.5 75t-30 80.5t-67 69.5t-109.5 27q-97 0 -160 -78t-63 -230q0 -166 61 -240.5t162 -74.5q93 0 154 62.5t61 181.5z" />
    <glyph glyph-name="Emacron" unicode="&#x112;" horiz-adv-x="1204" 
d="M483 1167v267h613v-267h-613zM483 600v260h580v-260h-580zM483 0v266h639v-266h-639zM422 1434v-1434h-299v1434h299zM303 1554v166h604v-166h-604z" />
    <glyph glyph-name="emacron" unicode="&#x113;" horiz-adv-x="1114" 
d="M600 -25v236q49 3 86.5 16t62.5 37t41 47t33 58l226 -133q-151 -249 -449 -261zM410 662h344q-3 26 -12 50.5t-25.5 52t-46.5 48.5t-70 29v235q235 -14 358 -217q95 -159 95 -397h-654q-4 25 -4 80q0 67 15 119zM334 543q0 -291 205 -332v-236q-59 5 -120 23.5t-126.5 60
t-116 100t-83 149t-32.5 200.5q0 121 29.5 218.5t77 160t111.5 105.5t128 62t132 23v-235q-56 -2 -97.5 -27.5t-64 -68.5t-33 -93.5t-10.5 -109.5zM262 1233v174h604v-174h-604z" />
    <glyph glyph-name="Ebreve" unicode="&#x114;" horiz-adv-x="1204" 
d="M483 1167v267h613v-267h-613zM483 600v260h580v-260h-580zM483 0v266h639v-266h-639zM422 1434v-1434h-299v1434h299zM287 1808h168q4 -38 15 -61t33.5 -33t43 -13t57.5 -3q95 0 128 18.5t40 91.5h168q-4 -85 -28 -141t-70.5 -86t-102.5 -41.5t-137 -11.5
q-78 0 -131 11.5t-95 41.5t-63.5 86t-25.5 141z" />
    <glyph glyph-name="ebreve" unicode="&#x115;" horiz-adv-x="1114" 
d="M600 -25v236q49 3 86.5 16t62.5 37t41 47t33 58l226 -133q-151 -249 -449 -261zM410 662h344q-3 26 -12 50.5t-25.5 52t-46.5 48.5t-70 29v235q235 -14 358 -217q95 -159 95 -397h-654q-4 25 -4 80q0 67 15 119zM334 543q0 -291 205 -332v-236q-59 5 -120 23.5t-126.5 60
t-116 100t-83 149t-32.5 200.5q0 121 29.5 218.5t77 160t111.5 105.5t128 62t132 23v-235q-56 -2 -97.5 -27.5t-64 -68.5t-33 -93.5t-10.5 -109.5zM238 1462h163q19 -121 164 -121q68 0 107 25t55 96h164q-15 -155 -93.5 -218.5t-232.5 -63.5q-159 0 -237 67.5t-90 214.5z
" />
    <glyph glyph-name="Edotaccent" unicode="&#x116;" horiz-adv-x="1204" 
d="M483 1167v267h613v-267h-613zM483 600v260h580v-260h-580zM483 0v266h639v-266h-639zM422 1434v-1434h-299v1434h299zM471 1536v184h270v-184h-270z" />
    <glyph glyph-name="edotaccent" unicode="&#x117;" horiz-adv-x="1114" 
d="M600 -25v236q49 3 86.5 16t62.5 37t41 47t33 58l226 -133q-151 -249 -449 -261zM410 662h344q-3 26 -12 50.5t-25.5 52t-46.5 48.5t-70 29v235q235 -14 358 -217q95 -159 95 -397h-654q-4 25 -4 80q0 67 15 119zM334 543q0 -291 205 -332v-236q-59 5 -120 23.5t-126.5 60
t-116 100t-83 149t-32.5 200.5q0 121 29.5 218.5t77 160t111.5 105.5t128 62t132 23v-235q-56 -2 -97.5 -27.5t-64 -68.5t-33 -93.5t-10.5 -109.5zM430 1208v236h270v-236h-270z" />
    <glyph glyph-name="Eogonek" unicode="&#x118;" horiz-adv-x="1204" 
d="M422 1434v-1434h-299v1434h299zM483 0v266h639v-266q-74 -56 -120 -124t-46 -122q0 -69 86 -69q46 0 80 24v-123q-67 -24 -141 -24q-94 0 -155.5 45.5t-61.5 138.5q0 127 217 254h-498zM483 1167v267h613v-267h-613zM483 600v260h580v-260h-580z" />
    <glyph glyph-name="eogonek" unicode="&#x119;" horiz-adv-x="1114" 
d="M334 543q0 -291 205 -332v-236q-59 5 -120 23.5t-126.5 60t-116 100t-83 149t-32.5 200.5q0 121 29.5 218.5t77 160t111.5 105.5t128 62t132 23v-235q-56 -2 -97.5 -27.5t-64 -68.5t-33 -93.5t-10.5 -109.5zM410 662h344q-3 26 -12 50.5t-25.5 52t-46.5 48.5t-70 29v235
q235 -14 358 -217q95 -159 95 -397h-654q-4 25 -4 80q0 67 15 119zM788 -285v-123q-68 -24 -141 -24q-94 0 -155.5 45.5t-61.5 138.5q0 111 170 223v236q49 3 86.5 16t62.5 37t41 47t33 58l226 -133q-97 -164 -263 -226q-71 -56 -117 -125.5t-46 -124.5q0 -69 86 -69
q45 0 79 24z" />
    <glyph glyph-name="Ecaron" unicode="&#x11a;" horiz-adv-x="1204" 
d="M483 1167v267h613v-267h-613zM483 600v260h580v-260h-580zM483 0v266h639v-266h-639zM422 1434v-1434h-299v1434h299zM965 1720l-222 -184h-260l-221 184h256l90 -82h15l106 82h236z" />
    <glyph glyph-name="ecaron" unicode="&#x11b;" horiz-adv-x="1114" 
d="M600 -25v236q49 3 86.5 16t62.5 37t41 47t33 58l226 -133q-151 -249 -449 -261zM410 662h344q-3 26 -12 50.5t-25.5 52t-46.5 48.5t-70 29v235q235 -14 358 -217q95 -159 95 -397h-654q-4 25 -4 80q0 67 15 119zM334 543q0 -291 205 -332v-236q-59 5 -120 23.5t-126.5 60
t-116 100t-83 149t-32.5 200.5q0 121 29.5 218.5t77 160t111.5 105.5t128 62t132 23v-235q-56 -2 -97.5 -27.5t-64 -68.5t-33 -93.5t-10.5 -109.5zM915 1460l-221 -280h-260l-221 280h223l127 -157l131 157h221z" />
    <glyph glyph-name="Gcircumflex" unicode="&#x11c;" horiz-adv-x="1478" 
d="M774 1194v276q100 -3 188.5 -31.5t149.5 -68.5t111 -92t78 -97.5t45 -90.5l-254 -132q-17 38 -39.5 71.5t-60 71.5t-94 63t-124.5 30zM774 -37v277q84 4 148.5 32t101.5 71.5t55.5 93.5t18.5 104h-328v250h596v-791h-258v119h-4q-61 -74 -147 -112.5t-183 -43.5zM713 240
v-277q-201 7 -350.5 108.5t-225.5 269t-76 376.5q0 159 41 288.5t106 212.5t152.5 140.5t174.5 82.5t178 29v-276q-151 -12 -245.5 -137t-94.5 -338q0 -197 89.5 -331.5t250.5 -147.5zM395 1556l221 185h261l221 -185h-256l-90 82h-15l-106 -82h-236z" />
    <glyph glyph-name="gcircumflex" unicode="&#x11d;" horiz-adv-x="1118" 
d="M334 567q0 -140 57 -208t152 -68q83 0 145 55v-235q-75 -52 -192 -52q-69 0 -131 18t-118 57.5t-97 97.5t-65 144t-24 191q0 241 123.5 375.5t321.5 134.5q103 0 182 -57v-242q-60 66 -141 66q-96 0 -154.5 -67t-58.5 -210zM750 41v1016h266v-996q0 -67 -12 -125.5
t-44.5 -116.5t-83 -99.5t-133.5 -67t-190 -25.5q-74 0 -137 10.5t-107.5 26.5t-80 41t-57.5 48t-38.5 54t-24 53t-11.5 50.5t-4.5 40.5t-0.5 29h273q0 -11 2 -22.5t12.5 -30.5t27.5 -33t51 -24.5t79 -10.5q116 0 164.5 45t48.5 137zM213 1180l221 280h260l221 -280h-235
l-125 157l-127 -157h-215z" />
    <glyph glyph-name="Gbreve" unicode="&#x11e;" horiz-adv-x="1478" 
d="M774 1194v276q100 -3 188.5 -31.5t149.5 -68.5t111 -92t78 -97.5t45 -90.5l-254 -132q-17 38 -39.5 71.5t-60 71.5t-94 63t-124.5 30zM774 -37v277q84 4 148.5 32t101.5 71.5t55.5 93.5t18.5 104h-328v250h596v-791h-258v119h-4q-61 -74 -147 -112.5t-183 -43.5zM713 240
v-277q-201 7 -350.5 108.5t-225.5 269t-76 376.5q0 159 41 288.5t106 212.5t152.5 140.5t174.5 82.5t178 29v-276q-151 -12 -245.5 -137t-94.5 -338q0 -197 89.5 -331.5t250.5 -147.5zM422 1829h168q7 -71 41.5 -91t107.5 -20q95 0 128 19t40 92h168q-4 -85 -28 -141
t-70 -86t-102.5 -42t-137.5 -12q-78 0 -131 11.5t-95 42t-63.5 86.5t-25.5 141z" />
    <glyph glyph-name="gbreve" unicode="&#x11f;" horiz-adv-x="1134" 
d="M334 567q0 -140 57 -208t152 -68q83 0 145 55v-235q-75 -52 -192 -52q-69 0 -131 18t-118 57.5t-97 97.5t-65 144t-24 191q0 241 123.5 375.5t321.5 134.5q103 0 182 -57v-242q-60 66 -141 66q-96 0 -154.5 -67t-58.5 -210zM750 41v1016h266v-996q0 -67 -12 -125.5
t-44.5 -116.5t-83 -99.5t-133.5 -67t-190 -25.5q-74 0 -137 10.5t-107.5 26.5t-80 41t-57.5 48t-38.5 54t-24 53t-11.5 50.5t-4.5 40.5t-0.5 29h273q0 -11 2 -22.5t12.5 -30.5t27.5 -33t51 -24.5t79 -10.5q116 0 164.5 45t48.5 137zM238 1462h163q19 -121 164 -121
q68 0 107 25t55 96h164q-15 -155 -93.5 -218.5t-232.5 -63.5q-159 0 -237 67.5t-90 214.5z" />
    <glyph glyph-name="Gdotaccent" unicode="&#x120;" horiz-adv-x="1478" 
d="M774 1194v276q100 -3 188.5 -31.5t149.5 -68.5t111 -92t78 -97.5t45 -90.5l-254 -132q-17 38 -39.5 71.5t-60 71.5t-94 63t-124.5 30zM774 -37v277q84 4 148.5 32t101.5 71.5t55.5 93.5t18.5 104h-328v250h596v-791h-258v119h-4q-61 -74 -147 -112.5t-183 -43.5zM713 240
v-277q-201 7 -350.5 108.5t-225.5 269t-76 376.5q0 159 41 288.5t106 212.5t152.5 140.5t174.5 82.5t178 29v-276q-151 -12 -245.5 -137t-94.5 -338q0 -197 89.5 -331.5t250.5 -147.5zM608 1556v185h271v-185h-271z" />
    <glyph glyph-name="gdotaccent" unicode="&#x121;" horiz-adv-x="1134" 
d="M334 567q0 -140 57 -208t152 -68q83 0 145 55v-235q-75 -52 -192 -52q-69 0 -131 18t-118 57.5t-97 97.5t-65 144t-24 191q0 241 123.5 375.5t321.5 134.5q103 0 182 -57v-242q-60 66 -141 66q-96 0 -154.5 -67t-58.5 -210zM750 41v1016h266v-996q0 -67 -12 -125.5
t-44.5 -116.5t-83 -99.5t-133.5 -67t-190 -25.5q-74 0 -137 10.5t-107.5 26.5t-80 41t-57.5 48t-38.5 54t-24 53t-11.5 50.5t-4.5 40.5t-0.5 29h273q0 -11 2 -22.5t12.5 -30.5t27.5 -33t51 -24.5t79 -10.5q116 0 164.5 45t48.5 137zM430 1208v236h270v-236h-270z" />
    <glyph glyph-name="uni0122" unicode="&#x122;" horiz-adv-x="1478" 
d="M774 1194v276q100 -3 188.5 -31.5t149.5 -68.5t111 -92t78 -97.5t45 -90.5l-254 -132q-17 38 -39.5 71.5t-60 71.5t-94 63t-124.5 30zM774 -37v277q84 4 148.5 32t101.5 71.5t55.5 93.5t18.5 104h-328v250h596v-791h-258v119h-4q-61 -74 -147 -112.5t-183 -43.5zM713 240
v-277q-201 7 -350.5 108.5t-225.5 269t-76 376.5q0 159 41 288.5t106 212.5t152.5 140.5t174.5 82.5t178 29v-276q-151 -12 -245.5 -137t-94.5 -338q0 -197 89.5 -331.5t250.5 -147.5zM860 -143v-195q0 -71 -52 -134.5t-124 -98.5l-43 75q45 23 71.5 64t26.5 88h-102v201
h223z" />
    <glyph glyph-name="uni0123" unicode="&#x123;" horiz-adv-x="1134" 
d="M432 1202v195q0 71 52 134.5t124 98.5l43 -76q-45 -24 -71.5 -64t-26.5 -87h102v-201h-223zM334 567q0 -140 57 -208t152 -68q83 0 145 55v-235q-75 -52 -192 -52q-69 0 -131 18t-118 57.5t-97 97.5t-65 144t-24 191q0 241 123.5 375.5t321.5 134.5q103 0 182 -57v-242
q-60 66 -141 66q-96 0 -154.5 -67t-58.5 -210zM750 41v1016h266v-996q0 -67 -12 -125.5t-44.5 -116.5t-83 -99.5t-133.5 -67t-190 -25.5q-74 0 -137 10.5t-107.5 26.5t-80 41t-57.5 48t-38.5 54t-24 53t-11.5 50.5t-4.5 40.5t-0.5 29h273q0 -11 2 -22.5t12.5 -30.5t27.5 -33
t51 -24.5t79 -10.5q116 0 164.5 45t48.5 137z" />
    <glyph glyph-name="Hcircumflex" unicode="&#x124;" horiz-adv-x="1402" 
d="M670 885v-264h-248v-621h-299v1434h299v-549h248zM731 621v264h250v549h299v-1434h-299v621h-250zM350 1536l221 184h260l222 -184h-256l-90 82h-15l-106 -82h-236z" />
    <glyph glyph-name="hcircumflex" unicode="&#x125;" horiz-adv-x="1099" 
d="M377 1434v-1434h-275v1434h275zM438 774v238q88 65 203 65q190 0 275 -98t85 -305v-674h-274v633q0 46 -2 73t-9.5 57t-22 45.5t-40.5 25.5t-65 10q-90 0 -150 -70zM227 1536l222 184h260l221 -184h-256l-90 82h-15l-106 -82h-236z" />
    <glyph glyph-name="Hbar" unicode="&#x126;" horiz-adv-x="1445" 
d="M752 1104v143h249v187h299v-187h125v-143h-125v-1104h-299v621h-249v264h249v219h-249zM690 1247v-143h-248v-219h248v-264h-248v-621h-299v1104h-123v143h123v187h299v-187h248z" />
    <glyph glyph-name="hbar" unicode="&#x127;" horiz-adv-x="1120" 
d="M397 1434v-109h273v-143h-273v-1182h-274v1182h-123v143h123v109h274zM459 754v237q90 66 203 66q189 0 274.5 -98.5t85.5 -305.5v-653h-274v612q0 46 -2 73.5t-9.5 57t-22.5 45t-41 25.5t-65 10q-90 0 -149 -69z" />
    <glyph glyph-name="Itilde" unicode="&#x128;" horiz-adv-x="544" 
d="M422 0h-299v1434h299v-1434zM100 1538h-100q0 96 38.5 158.5t111.5 62.5q48 0 96 -21t87 -42t66 -21q19 0 32 23t13 57h101q0 -99 -39.5 -161t-106.5 -62q-47 0 -126 43t-123 43q-23 0 -36.5 -23.5t-13.5 -56.5z" />
    <glyph glyph-name="itilde" unicode="&#x129;" horiz-adv-x="479" 
d="M377 0h-275v1057h275v-1057zM426 1427h115q-7 -37 -13.5 -65t-21.5 -64.5t-34 -60t-49.5 -40.5t-68.5 -17q-46 0 -128 41t-122 41q-30 0 -43.5 -19t-23.5 -63h-98q8 53 19.5 92t33.5 79t59.5 61.5t89.5 21.5q37 0 107 -42t108 -42q62 0 70 77z" />
    <glyph glyph-name="Imacron" unicode="&#x12a;" horiz-adv-x="544" 
d="M422 0h-299v1434h299v-1434zM20 1554v166h506v-166h-506z" />
    <glyph glyph-name="imacron" unicode="&#x12b;" horiz-adv-x="479" 
d="M377 0h-275v1057h275v-1057zM0 1235v172h479v-172h-479z" />
    <glyph glyph-name="Ibreve" unicode="&#x12c;" horiz-adv-x="544" 
d="M422 0h-299v1434h299v-1434zM-55 1808h168q4 -38 15 -61t33.5 -33t43 -13t57.5 -3q95 0 128 18.5t40 91.5h168q-4 -85 -28 -141t-70.5 -86t-102.5 -41.5t-137 -11.5q-78 0 -131 11.5t-95 41.5t-63.5 86t-25.5 141z" />
    <glyph glyph-name="ibreve" unicode="&#x12d;" horiz-adv-x="479" 
d="M377 0h-275v1057h275v-1057zM-84 1462h164q19 -121 164 -121q68 0 107 25t55 96h163q-15 -155 -93.5 -218.5t-231.5 -63.5q-159 0 -237.5 67.5t-90.5 214.5z" />
    <glyph glyph-name="Iogonek" unicode="&#x12e;" horiz-adv-x="544" 
d="M401 -291v-123q-67 -24 -141 -24q-94 0 -155.5 45.5t-61.5 138.5q0 127 217 254h-137v1434h299v-1434q-78 -37 -132 -106t-54 -140q0 -69 86 -69q45 0 79 24z" />
    <glyph glyph-name="iogonek" unicode="&#x12f;" horiz-adv-x="479" 
d="M377 -291v-123q-67 -24 -141 -24q-94 0 -156 46t-62 138q0 126 218 254h-134v1057h275v-1057q-69 -45 -117.5 -118t-48.5 -128q0 -69 86 -69q46 0 80 24zM377 1180h-275v254h275v-254z" />
    <glyph glyph-name="Idotaccent" unicode="&#x130;" horiz-adv-x="544" 
d="M422 0h-299v1434h299v-1434zM131 1536v184h270v-184h-270z" />
    <glyph glyph-name="dotlessi" unicode="&#x131;" horiz-adv-x="479" 
d="M377 0h-275v1057h275v-1057z" />
    <glyph glyph-name="IJ" unicode="&#x132;" horiz-adv-x="1183" 
d="M422 0h-299v1434h299v-1434zM772 0h-186v266h86q62 0 81 28t19 101v1039h299v-998q0 -68 -1 -101.5t-6.5 -89.5t-16 -83.5t-32 -64.5t-53 -54t-79.5 -30t-111 -13z" />
    <glyph glyph-name="ij" unicode="&#x133;" horiz-adv-x="974" 
d="M377 1180h-275v254h275v-254zM377 0h-275v1057h275v-1057zM877 1180h-275v254h275v-254zM877 1057v-1067q0 -69 -16 -119.5t-42.5 -80.5t-66.5 -48.5t-80 -24.5t-92 -6q-56 0 -156 8v236h102q42 0 59 33.5t17 115.5v953h275z" />
    <glyph glyph-name="Jcircumflex" unicode="&#x134;" horiz-adv-x="638" 
d="M227 0h-186v266h86q63 0 81.5 28t18.5 101v1039h299v-998q0 -68 -1 -101.5t-6.5 -89.5t-16 -83.5t-32 -64.5t-53 -54t-79.5 -30t-111 -13zM27 1536l221 184h260l221 -184h-256l-90 82h-14l-107 -82h-235z" />
    <glyph glyph-name="jcircumflex" unicode="&#x135;" horiz-adv-x="520" 
d="M397 1057v-1067q0 -69 -16 -119.5t-42.5 -80.5t-66.5 -48.5t-80 -24.5t-92 -6q-55 0 -155 8v236h102q42 0 59 33.5t17 115.5v953h274zM-88 1180l221 280h260l221 -280h-235l-125 157l-127 -157h-215z" />
    <glyph glyph-name="uni0136" unicode="&#x136;" horiz-adv-x="1396" 
d="M422 1434v-1434h-299v1434h299zM1331 1434l-848 -916v356l521 560h327zM696 657l201 217l469 -874h-328zM805 -123v-194q0 -71 -52 -135t-124 -99l-43 76q45 24 71.5 64t26.5 87h-102v201h223z" />
    <glyph glyph-name="uni0137" unicode="&#x137;" horiz-adv-x="1132" 
d="M377 1434v-1434h-275v1434h275zM559 446l197 205l346 -651h-314zM1059 1057l-621 -647v319l307 328h314zM668 -123v-194q0 -71 -52 -135t-124 -99l-43 76q45 24 71.5 64t26.5 87h-103v201h224z" />
    <glyph glyph-name="kgreenlandic" unicode="&#x138;" horiz-adv-x="1128" 
d="M377 1057v-1057h-275v1057h275zM438 666l314 391h313l-403 -484l436 -573h-314l-346 463v203z" />
    <glyph glyph-name="Lacute" unicode="&#x139;" horiz-adv-x="1077" 
d="M422 1434v-1434h-299v1434h299zM483 0v266h553v-266h-553zM637 1720l-266 -184h-199l150 184h315z" />
    <glyph glyph-name="lacute" unicode="&#x13a;" horiz-adv-x="479" 
d="M377 0h-275v1434h275v-1434zM588 1720l-266 -184h-199l149 184h316z" />
    <glyph glyph-name="uni013B" unicode="&#x13b;" horiz-adv-x="1077" 
d="M422 1434v-1434h-299v1434h299zM483 0v266h553v-266h-553zM692 -123v-194q0 -71 -52 -135t-124 -99l-43 76q45 24 71.5 64t26.5 87h-102v201h223z" />
    <glyph glyph-name="uni013C" unicode="&#x13c;" horiz-adv-x="479" 
d="M377 0h-275v1434h275v-1434zM354 -123v-194q0 -71 -52 -135t-124 -99l-43 76q45 24 71.5 64t26.5 87h-102v201h223z" />
    <glyph glyph-name="Lcaron" unicode="&#x13d;" horiz-adv-x="1077" 
d="M422 1434v-1434h-299v1434h299zM483 0v266h553v-266h-553zM877 1454q16 -63 16 -135q0 -131 -56 -235.5t-120 -153.5l-82 49q63 134 63 225q0 74 -49 213z" />
    <glyph glyph-name="lcaron" unicode="&#x13e;" horiz-adv-x="770" 
d="M377 0h-275v1434h275v-1434zM733 1454q17 -67 17 -135q0 -131 -56.5 -235.5t-120.5 -153.5l-81 49q63 134 63 225q0 74 -49 213z" />
    <glyph glyph-name="Ldot" unicode="&#x13f;" horiz-adv-x="1077" 
d="M422 1434v-1434h-299v1434h299zM483 0v266h553v-266h-553zM588 655v185h270v-185h-270z" />
    <glyph glyph-name="ldot" unicode="&#x140;" horiz-adv-x="794" 
d="M377 0h-275v1434h275v-1434zM504 618v236h270v-236h-270z" />
    <glyph glyph-name="Lslash" unicode="&#x141;" horiz-adv-x="1101" 
d="M715 891l-269 -189v-702h-299v512l-137 -96v231l137 96v691h299v-500l269 188v-231zM508 0v266h553v-266h-553z" />
    <glyph glyph-name="lslash" unicode="&#x142;" horiz-adv-x="573" 
d="M10 436v223l129 95v680h275v-508l149 112v-221l-149 -112v-705h-275v532z" />
    <glyph glyph-name="Nacute" unicode="&#x143;" horiz-adv-x="1374" 
d="M1251 238l-284 440v756h284v-1196zM123 1196l285 -442v-754h-285v1196zM967 0l-844 1311v123h283l845 -1311v-123h-284zM1028 1720l-266 -184h-199l150 184h315z" />
    <glyph glyph-name="nacute" unicode="&#x144;" horiz-adv-x="1099" 
d="M377 1057v-1057h-275v1057h275zM438 774v238q88 65 203 65q190 0 275 -98t85 -305v-674h-274v633q0 46 -2 73t-9.5 57t-22 45.5t-40.5 25.5t-65 10q-90 0 -150 -70zM958 1454l-307 -274h-198l190 274h315z" />
    <glyph glyph-name="uni0145" unicode="&#x145;" horiz-adv-x="1374" 
d="M1251 238l-284 440v756h284v-1196zM123 1196l285 -442v-754h-285v1196zM967 0l-844 1311v123h283l845 -1311v-123h-284zM819 -123v-194q0 -71 -52 -135t-124 -99l-43 76q45 24 71.5 64t26.5 87h-102v201h223z" />
    <glyph glyph-name="uni0146" unicode="&#x146;" horiz-adv-x="1099" 
d="M377 1057v-1057h-275v1057h275zM438 774v238q88 65 203 65q190 0 275 -98t85 -305v-674h-274v633q0 46 -2 73t-9.5 57t-22 45.5t-40.5 25.5t-65 10q-90 0 -150 -70zM662 -123v-194q0 -71 -52.5 -135t-124.5 -99l-43 76q45 24 72 64t27 87h-103v201h224z" />
    <glyph glyph-name="Ncaron" unicode="&#x147;" horiz-adv-x="1374" 
d="M1251 238l-284 440v756h284v-1196zM123 1196l285 -442v-754h-285v1196zM967 0l-844 1311v123h283l845 -1311v-123h-284zM1042 1720l-221 -184h-260l-221 184h256l90 -82h14l107 82h235z" />
    <glyph glyph-name="ncaron" unicode="&#x148;" horiz-adv-x="1099" 
d="M377 1057v-1057h-275v1057h275zM438 774v238q88 65 203 65q190 0 275 -98t85 -305v-674h-274v633q0 46 -2 73t-9.5 57t-22 45.5t-40.5 25.5t-65 10q-90 0 -150 -70zM899 1460l-221 -280h-260l-221 280h223l127 -157l131 157h221z" />
    <glyph glyph-name="Eng" unicode="&#x14a;" horiz-adv-x="1374" 
d="M1251 123v-137q0 -87 -15.5 -144.5t-57.5 -103t-120 -66t-198 -20.5h-168v254h129q28 0 46.5 2.5t42.5 10.5t38 28.5t17 52.5l-842 1311v123h283zM1251 238l-284 440v756h284v-1196zM123 1196l285 -442v-754h-285v1196z" />
    <glyph glyph-name="eng" unicode="&#x14b;" horiz-adv-x="1099" 
d="M377 1057v-1057h-275v1057h275zM727 41v592q0 46 -2 73t-9.5 57t-22 45.5t-40.5 25.5t-65 10q-90 0 -150 -70v238q88 65 203 65q190 0 275 -98t85 -305v-727q0 -134 -62.5 -200t-197.5 -66h-198v243h104q40 0 60 24.5t20 92.5z" />
    <glyph glyph-name="Omacron" unicode="&#x14c;" horiz-adv-x="1486" 
d="M774 1194v276q88 -4 173 -28t173.5 -80t154.5 -138t108 -213t42 -294q0 -151 -37.5 -276.5t-100.5 -210.5t-148 -145.5t-176.5 -89t-188.5 -32.5v277q66 5 124.5 35.5t108 86.5t78.5 147.5t29 207.5q0 100 -21.5 181.5t-55.5 133.5t-80 88t-91 53t-92 21zM713 1470v-276
q-49 -4 -95 -21.5t-91 -54.5t-78.5 -89t-54.5 -132.5t-21 -179.5q0 -113 28.5 -203.5t77.5 -147t108 -88.5t126 -38v-277q-82 4 -160.5 26t-152 63t-135 104t-107.5 143.5t-71.5 187.5t-25.5 230q0 159 41 288.5t106 212.5t152.5 140.5t174.5 82.5t178 29zM442 1575v166h605
v-166h-605z" />
    <glyph glyph-name="omacron" unicode="&#x14d;" horiz-adv-x="1169" 
d="M559 211v-236q-232 12 -365 163.5t-133 387.5q0 110 33 207t94 172t157 121t214 51v-235q-112 -10 -165.5 -94.5t-53.5 -221.5q0 -132 53 -218t166 -97zM621 -25v236q106 12 157 96t51 219q0 142 -55.5 223.5t-152.5 92.5v235q148 -7 259.5 -81t169.5 -196t58 -274
q0 -127 -39.5 -230.5t-107.5 -170.5t-154.5 -105t-185.5 -45zM283 1233v174h604v-174h-604z" />
    <glyph glyph-name="Obreve" unicode="&#x14e;" horiz-adv-x="1486" 
d="M774 1194v276q88 -4 173 -28t173.5 -80t154.5 -138t108 -213t42 -294q0 -151 -37.5 -276.5t-100.5 -210.5t-148 -145.5t-176.5 -89t-188.5 -32.5v277q66 5 124.5 35.5t108 86.5t78.5 147.5t29 207.5q0 100 -21.5 181.5t-55.5 133.5t-80 88t-91 53t-92 21zM713 1470v-276
q-49 -4 -95 -21.5t-91 -54.5t-78.5 -89t-54.5 -132.5t-21 -179.5q0 -113 28.5 -203.5t77.5 -147t108 -88.5t126 -38v-277q-82 4 -160.5 26t-152 63t-135 104t-107.5 143.5t-71.5 187.5t-25.5 230q0 159 41 288.5t106 212.5t152.5 140.5t174.5 82.5t178 29zM418 1829h168
q7 -71 41.5 -91t107.5 -20q95 0 128 19t40 92h168q-4 -85 -28 -141t-70 -86t-102.5 -42t-137.5 -12q-78 0 -131 11.5t-95 42t-63.5 86.5t-25.5 141z" />
    <glyph glyph-name="obreve" unicode="&#x14f;" horiz-adv-x="1169" 
d="M559 211v-236q-232 12 -365 163.5t-133 387.5q0 110 33 207t94 172t157 121t214 51v-235q-112 -10 -165.5 -94.5t-53.5 -221.5q0 -132 53 -218t166 -97zM621 -25v236q106 12 157 96t51 219q0 142 -55.5 223.5t-152.5 92.5v235q148 -7 259.5 -81t169.5 -196t58 -274
q0 -127 -39.5 -230.5t-107.5 -170.5t-154.5 -105t-185.5 -45zM258 1462h164q19 -121 164 -121q68 0 107 25t55 96h163q-15 -155 -93.5 -218.5t-231.5 -63.5q-159 0 -237.5 67.5t-90.5 214.5z" />
    <glyph glyph-name="Ohungarumlaut" unicode="&#x150;" horiz-adv-x="1486" 
d="M774 1194v276q88 -4 173 -28t173.5 -80t154.5 -138t108 -213t42 -294q0 -151 -37.5 -276.5t-100.5 -210.5t-148 -145.5t-176.5 -89t-188.5 -32.5v277q66 5 124.5 35.5t108 86.5t78.5 147.5t29 207.5q0 100 -21.5 181.5t-55.5 133.5t-80 88t-91 53t-92 21zM713 1470v-276
q-49 -4 -95 -21.5t-91 -54.5t-78.5 -89t-54.5 -132.5t-21 -179.5q0 -113 28.5 -203.5t77.5 -147t108 -88.5t126 -38v-277q-82 4 -160.5 26t-152 63t-135 104t-107.5 143.5t-71.5 187.5t-25.5 230q0 159 41 288.5t106 212.5t152.5 140.5t174.5 82.5t178 29zM920 1741
l-275 -185h-196l155 185h316zM1335 1741l-274 -185h-199l158 185h315z" />
    <glyph glyph-name="ohungarumlaut" unicode="&#x151;" horiz-adv-x="1169" 
d="M559 211v-236q-232 12 -365 163.5t-133 387.5q0 110 33 207t94 172t157 121t214 51v-235q-112 -10 -165.5 -94.5t-53.5 -221.5q0 -132 53 -218t166 -97zM621 -25v236q106 12 157 96t51 219q0 142 -55.5 223.5t-152.5 92.5v235q148 -7 259.5 -81t169.5 -196t58 -274
q0 -127 -39.5 -230.5t-107.5 -170.5t-154.5 -105t-185.5 -45zM754 1454l-295 -274h-197l176 274h316zM1169 1454l-295 -274h-198l178 274h315z" />
    <glyph glyph-name="OE" unicode="&#x152;" horiz-adv-x="2037" 
d="M1255 1434v-1434h-159q-35 0 -159 -18t-163 -19v277q45 3 65.5 5t55.5 10t61 21v869q-65 45 -182 49v276q63 -4 173.5 -20t146.5 -16h161zM713 1470v-276q-49 -4 -95 -21.5t-91 -54.5t-78.5 -89t-54.5 -132.5t-21 -179.5q0 -113 28.5 -203.5t77.5 -147t108 -88.5t126 -38
v-277q-82 4 -160.5 26t-152 63t-135 104t-107.5 143.5t-71.5 187.5t-25.5 230q0 159 41 288.5t106 212.5t152.5 140.5t174.5 82.5t178 29zM1317 0v266h639v-266h-639zM1317 1167v267h612v-267h-612zM1317 600v260h579v-260h-579z" />
    <glyph glyph-name="oe" unicode="&#x153;" horiz-adv-x="1882" 
d="M621 -25v236q106 12 157 96t51 219q0 142 -55.5 223.5t-152.5 92.5v235q215 -12 344 -157q126 142 342 157v-235q-56 -2 -97.5 -27.5t-64 -68.5t-33 -93.5t-10.5 -109.5q0 -291 205 -332v-236q-85 7 -178 47.5t-164 114.5q-131 -146 -344 -162zM559 211v-236
q-232 12 -365 163.5t-133 387.5q0 110 33 207t94 172t157 121t214 51v-235q-112 -10 -165.5 -94.5t-53.5 -221.5q0 -132 53 -218t166 -97zM1178 662h344q-3 26 -12 50.5t-25.5 52t-46.5 48.5t-70 29v235q235 -14 358 -217q95 -159 95 -397h-654q-4 25 -4 80q0 67 15 119z
M1368 -25v236q49 3 86.5 16t62.5 37t41 47t33 58l226 -133q-151 -249 -449 -261z" />
    <glyph glyph-name="Racute" unicode="&#x154;" horiz-adv-x="1314" 
d="M483 760h236q88 0 141 53t53 164q0 100 -55 152.5t-139 52.5h-236v252h244q225 0 355 -118.5t130 -332.5q0 -309 -249 -420l311 -563h-330l-285 516h-176v244zM422 1434v-1434h-299v1434h299zM956 1720l-266 -184h-198l149 184h315z" />
    <glyph glyph-name="racute" unicode="&#x155;" horiz-adv-x="765" 
d="M377 1057v-1057h-275v1057h275zM438 731v252q87 84 240 84h37v-279h-84q-130 0 -193 -57zM750 1454l-308 -274h-198l190 274h316z" />
    <glyph glyph-name="uni0156" unicode="&#x156;" horiz-adv-x="1314" 
d="M483 760h236q88 0 141 53t53 164q0 100 -55 152.5t-139 52.5h-236v252h244q225 0 355 -118.5t130 -332.5q0 -309 -249 -420l311 -563h-330l-285 516h-176v244zM422 1434v-1434h-299v1434h299zM784 -123v-194q0 -71 -52 -135t-124 -99l-43 76q45 24 72 64t27 87h-103v201
h223z" />
    <glyph glyph-name="uni0157" unicode="&#x157;" horiz-adv-x="765" 
d="M377 1057v-1057h-275v1057h275zM438 731v252q87 84 240 84h37v-279h-84q-130 0 -193 -57zM350 -123v-194q0 -71 -52 -135t-124 -99l-43 76q45 24 71.5 64t26.5 87h-102v201h223z" />
    <glyph glyph-name="Rcaron" unicode="&#x158;" horiz-adv-x="1314" 
d="M483 760h236q88 0 141 53t53 164q0 100 -55 152.5t-139 52.5h-236v252h244q225 0 355 -118.5t130 -332.5q0 -309 -249 -420l311 -563h-330l-285 516h-176v244zM422 1434v-1434h-299v1434h299zM991 1720l-221 -184h-260l-221 184h256l90 -82h14l107 82h235z" />
    <glyph glyph-name="rcaron" unicode="&#x159;" horiz-adv-x="765" 
d="M377 1057v-1057h-275v1057h275zM438 731v252q87 84 240 84h37v-279h-84q-130 0 -193 -57zM760 1460l-221 -280h-260l-222 280h224l127 -157l131 157h221z" />
    <glyph glyph-name="Sacute" unicode="&#x15a;" horiz-adv-x="1357" 
d="M715 1210v260q110 -6 205 -35.5t161.5 -75t112 -93t76.5 -101.5l-252 -153q-20 31 -38.5 54.5t-55 57.5t-90.5 56.5t-119 29.5zM653 233v-270q-203 7 -359.5 100t-242.5 244l258 156q18 -28 33.5 -49t48 -54.5t66.5 -56.5t86 -43t110 -27zM715 -37v270q45 0 89.5 9.5
t86.5 28.5t68 53.5t26 78.5q0 138 -205 170l-286 45q-53 9 -103 26t-101.5 49.5t-90 74.5t-62.5 105t-24 137q0 96 32.5 174.5t86 130t124.5 87t145 51.5t152 17v-258q-112 -1 -172.5 -46.5t-60.5 -108.5q0 -127 196 -156l256 -39q196 -29 310 -134.5t114 -291.5
q0 -93 -36 -175.5t-105 -148.5t-182.5 -106t-257.5 -43zM1018 1741l-266 -185h-199l149 185h316z" />
    <glyph glyph-name="sacute" unicode="&#x15b;" horiz-adv-x="1064" 
d="M565 -27v232q73 5 116.5 34t43.5 74q0 16 -7.5 29t-24.5 22.5t-36 16.5t-51 14t-59.5 12t-72.5 13.5t-79 15.5q-151 31 -221 104t-70 199q0 151 112 240t288 98v-225q-60 -4 -91.5 -28t-31.5 -64q0 -20 12.5 -35t37.5 -25t52 -16t66 -12l145 -25q156 -27 233 -107
t77 -192q0 -170 -118 -268t-321 -107zM504 205v-232q-283 6 -463 195l201 168q47 -52 117 -88t145 -43zM565 852v225q246 -8 410 -180l-170 -168q-101 112 -240 123zM934 1454l-307 -274h-199l190 274h316z" />
    <glyph glyph-name="Scircumflex" unicode="&#x15c;" horiz-adv-x="1357" 
d="M715 1210v260q110 -6 205 -35.5t161.5 -75t112 -93t76.5 -101.5l-252 -153q-20 31 -38.5 54.5t-55 57.5t-90.5 56.5t-119 29.5zM653 233v-270q-203 7 -359.5 100t-242.5 244l258 156q18 -28 33.5 -49t48 -54.5t66.5 -56.5t86 -43t110 -27zM715 -37v270q45 0 89.5 9.5
t86.5 28.5t68 53.5t26 78.5q0 138 -205 170l-286 45q-53 9 -103 26t-101.5 49.5t-90 74.5t-62.5 105t-24 137q0 96 32.5 174.5t86 130t124.5 87t145 51.5t152 17v-258q-112 -1 -172.5 -46.5t-60.5 -108.5q0 -127 196 -156l256 -39q196 -29 310 -134.5t114 -291.5
q0 -93 -36 -175.5t-105 -148.5t-182.5 -106t-257.5 -43zM330 1556l221 185h260l221 -185h-256l-90 82h-14l-107 -82h-235z" />
    <glyph glyph-name="scircumflex" unicode="&#x15d;" horiz-adv-x="1064" 
d="M565 -27v232q73 5 116.5 34t43.5 74q0 16 -7.5 29t-24.5 22.5t-36 16.5t-51 14t-59.5 12t-72.5 13.5t-79 15.5q-151 31 -221 104t-70 199q0 151 112 240t288 98v-225q-60 -4 -91.5 -28t-31.5 -64q0 -20 12.5 -35t37.5 -25t52 -16t66 -12l145 -25q156 -27 233 -107
t77 -192q0 -170 -118 -268t-321 -107zM504 205v-232q-283 6 -463 195l201 168q47 -52 117 -88t145 -43zM565 852v225q246 -8 410 -180l-170 -168q-101 112 -240 123zM182 1180l221 280h261l221 -280h-236l-125 157l-127 -157h-215z" />
    <glyph glyph-name="uni015E" unicode="&#x15e;" horiz-adv-x="1357" 
d="M715 1210v260q110 -6 205 -35.5t161.5 -75t112 -93t76.5 -101.5l-252 -153q-20 31 -38.5 54.5t-55 57.5t-90.5 56.5t-119 29.5zM653 233v-270q-203 7 -359.5 100t-242.5 244l258 156q18 -28 33.5 -49t48 -54.5t66.5 -56.5t86 -43t110 -27zM715 -37v270q45 0 89.5 9.5
t86.5 28.5t68 53.5t26 78.5q0 138 -205 170l-286 45q-53 9 -103 26t-101.5 49.5t-90 74.5t-62.5 105t-24 137q0 96 32.5 174.5t86 130t124.5 87t145 51.5t152 17v-258q-112 -1 -172.5 -46.5t-60.5 -108.5q0 -127 196 -156l256 -39q196 -29 310 -134.5t114 -291.5
q0 -93 -36 -175.5t-105 -148.5t-182.5 -106t-257.5 -43zM432 -440l47 125q82 -37 160 -37q88 0 88 67q0 27 -20.5 46.5t-57.5 19.5q-47 0 -82 -14l-28 77q48 25 89 33t97 8q91 0 145 -49.5t54 -116.5q0 -102 -78 -153t-191 -51q-121 0 -223 45z" />
    <glyph glyph-name="uni015F" unicode="&#x15f;" horiz-adv-x="1064" 
d="M565 -27v232q73 5 116.5 34t43.5 74q0 16 -7.5 29t-24.5 22.5t-36 16.5t-51 14t-59.5 12t-72.5 13.5t-79 15.5q-151 31 -221 104t-70 199q0 151 112 240t288 98v-225q-60 -4 -91.5 -28t-31.5 -64q0 -20 12.5 -35t37.5 -25t52 -16t66 -12l145 -25q156 -27 233 -107
t77 -192q0 -170 -118 -268t-321 -107zM504 205v-232q-283 6 -463 195l201 168q47 -52 117 -88t145 -43zM565 852v225q246 -8 410 -180l-170 -168q-101 112 -240 123zM281 -440l47 125q82 -37 159 -37q88 0 88 67q0 27 -20 46.5t-57 19.5q-47 0 -82 -14l-29 77q48 25 89 33
t97 8q91 0 145 -49.5t54 -116.5q0 -102 -77.5 -153t-190.5 -51q-121 0 -223 45z" />
    <glyph glyph-name="Scaron" unicode="&#x160;" horiz-adv-x="1357" 
d="M715 1210v260q110 -6 205 -35.5t161.5 -75t112 -93t76.5 -101.5l-252 -153q-20 31 -38.5 54.5t-55 57.5t-90.5 56.5t-119 29.5zM653 233v-270q-203 7 -359.5 100t-242.5 244l258 156q18 -28 33.5 -49t48 -54.5t66.5 -56.5t86 -43t110 -27zM715 -37v270q45 0 89.5 9.5
t86.5 28.5t68 53.5t26 78.5q0 138 -205 170l-286 45q-53 9 -103 26t-101.5 49.5t-90 74.5t-62.5 105t-24 137q0 96 32.5 174.5t86 130t124.5 87t145 51.5t152 17v-258q-112 -1 -172.5 -46.5t-60.5 -108.5q0 -127 196 -156l256 -39q196 -29 310 -134.5t114 -291.5
q0 -93 -36 -175.5t-105 -148.5t-182.5 -106t-257.5 -43zM1030 1741l-221 -185h-260l-221 185h256l90 -82h14l107 82h235z" />
    <glyph glyph-name="scaron" unicode="&#x161;" horiz-adv-x="1064" 
d="M565 -27v232q73 5 116.5 34t43.5 74q0 16 -7.5 29t-24.5 22.5t-36 16.5t-51 14t-59.5 12t-72.5 13.5t-79 15.5q-151 31 -221 104t-70 199q0 151 112 240t288 98v-225q-60 -4 -91.5 -28t-31.5 -64q0 -20 12.5 -35t37.5 -25t52 -16t66 -12l145 -25q156 -27 233 -107
t77 -192q0 -170 -118 -268t-321 -107zM504 205v-232q-283 6 -463 195l201 168q47 -52 117 -88t145 -43zM565 852v225q246 -8 410 -180l-170 -168q-101 112 -240 123zM872 1460l-221 -280h-260l-221 280h223l127 -157l131 157h221z" />
    <glyph glyph-name="uni0162" unicode="&#x162;" horiz-adv-x="1183" 
d="M803 1167v267h340v-267h-340zM381 1167h-340v267h340v-267zM442 1434h299v-1434h-299v1434zM332 -420l47 125q82 -37 160 -37q88 0 88 68q0 27 -20 46t-58 19q-47 0 -82 -14l-29 78q80 41 187 41q91 0 144.5 -49.5t53.5 -116.5q0 -102 -77.5 -153.5t-190.5 -51.5
q-121 0 -223 45z" />
    <glyph glyph-name="uni0163" unicode="&#x163;" horiz-adv-x="757" 
d="M700 827h-217v-448q0 -79 24.5 -107t100.5 -28q53 0 92 2v-250q-41 -6 -174 -6q-97 0 -160 18t-98 57t-48 90t-13 128v544h-176v230h176v377h276v-377h217v-230zM199 -420l47 125q82 -37 160 -37q88 0 88 68q0 27 -20 46t-58 19q-47 0 -82 -14l-29 78q80 41 187 41
q91 0 144.5 -49.5t53.5 -116.5q0 -102 -77.5 -153.5t-190.5 -51.5q-121 0 -223 45z" />
    <glyph glyph-name="Tcaron" unicode="&#x164;" horiz-adv-x="1183" 
d="M803 1167v267h340v-267h-340zM381 1167h-340v267h340v-267zM442 1434h299v-1434h-299v1434zM938 1720l-221 -184h-260l-221 184h256l90 -82h14l106 82h236z" />
    <glyph glyph-name="tcaron" unicode="&#x165;" horiz-adv-x="1112" 
d="M700 827h-217v-448q0 -79 24.5 -107t100.5 -28q53 0 92 2v-250q-41 -6 -174 -6q-97 0 -160 18t-98 57t-48 90t-13 128v544h-176v230h176v377h276v-377h217v-230zM1057 1454q16 -63 16 -135q0 -131 -56 -235.5t-120 -153.5l-82 49q64 137 64 225q0 71 -50 213z" />
    <glyph glyph-name="Tbar" unicode="&#x166;" horiz-adv-x="1185" 
d="M442 1434h299v-631h281v-174h-281v-629h-299v629h-278v174h278v631zM803 1167v267h340v-267h-340zM381 1167h-340v267h340v-267z" />
    <glyph glyph-name="tbar" unicode="&#x167;" horiz-adv-x="757" 
d="M700 827h-217v-131h197v-192h-197v-125q0 -79 24.5 -107t100.5 -28l99 2v-250q-74 -4 -181 -4q-97 0 -160 17.5t-98 56.5t-48 89.5t-13 127.5v221h-156v192h156v131h-176v230h176v377h276v-377h217v-230z" />
    <glyph glyph-name="Utilde" unicode="&#x168;" horiz-adv-x="1368" 
d="M643 238v-275q-69 3 -138 19.5t-141 53t-126.5 88.5t-89.5 134t-35 182v994h301v-899q0 -147 57 -218t172 -79zM705 -37v275q133 6 191 73.5t58 220.5v902h301v-963q0 -72 -15 -138t-54 -133.5t-99.5 -117.5t-158.5 -83t-223 -36zM457 1536h-129q0 97 48.5 160t143.5 63
q63 0 125.5 -21.5t113.5 -43t85 -21.5q25 0 42 23.5t17 58.5h131q0 -101 -51 -163t-139 -62q-61 0 -163 43t-161 43q-28 0 -45.5 -23.5t-17.5 -56.5z" />
    <glyph glyph-name="utilde" unicode="&#x169;" horiz-adv-x="1099" 
d="M723 0v1057h274v-1057h-274zM662 283v-238q-88 -65 -203 -65q-190 0 -275.5 98t-85.5 305v674h275v-633q0 -46 2 -73t9.5 -57t22 -45.5t40.5 -25.5t65 -10q90 0 150 70zM780 1427h140q-7 -35 -15.5 -63t-26 -63t-40.5 -58t-60.5 -39t-83.5 -16q-57 0 -157.5 39t-147.5 39
q-38 0 -55.5 -18t-28.5 -60h-121q10 51 24.5 89t41.5 76.5t73 59.5t109 21q45 0 131.5 -41t132.5 -41q77 0 84 75z" />
    <glyph glyph-name="Umacron" unicode="&#x16a;" horiz-adv-x="1368" 
d="M643 238v-275q-69 3 -138 19.5t-141 53t-126.5 88.5t-89.5 134t-35 182v994h301v-899q0 -147 57 -218t172 -79zM705 -37v275q133 6 191 73.5t58 220.5v902h301v-963q0 -72 -15 -138t-54 -133.5t-99.5 -117.5t-158.5 -83t-223 -36zM381 1554v166h604v-166h-604z" />
    <glyph glyph-name="umacron" unicode="&#x16b;" horiz-adv-x="1099" 
d="M723 0v1057h274v-1057h-274zM662 283v-238q-88 -65 -203 -65q-190 0 -275.5 98t-85.5 305v674h275v-633q0 -46 2 -73t9.5 -57t22 -45.5t40.5 -25.5t65 -10q90 0 150 70zM250 1233v174h604v-174h-604z" />
    <glyph glyph-name="Ubreve" unicode="&#x16c;" horiz-adv-x="1368" 
d="M643 238v-275q-69 3 -138 19.5t-141 53t-126.5 88.5t-89.5 134t-35 182v994h301v-899q0 -147 57 -218t172 -79zM705 -37v275q133 6 191 73.5t58 220.5v902h301v-963q0 -72 -15 -138t-54 -133.5t-99.5 -117.5t-158.5 -83t-223 -36zM348 1808h168q4 -38 15.5 -61t33.5 -33
t43 -13t58 -3q95 0 128 18.5t40 91.5h167q-4 -85 -28 -141t-70 -86t-102 -41.5t-137 -11.5q-78 0 -131 11.5t-95.5 41.5t-64 86t-25.5 141z" />
    <glyph glyph-name="ubreve" unicode="&#x16d;" horiz-adv-x="1099" 
d="M723 0v1057h274v-1057h-274zM662 283v-238q-88 -65 -203 -65q-190 0 -275.5 98t-85.5 305v674h275v-633q0 -46 2 -73t9.5 -57t22 -45.5t40.5 -25.5t65 -10q90 0 150 70zM225 1462h164q19 -121 164 -121q68 0 107 25t55 96h164q-15 -155 -93.5 -218.5t-232.5 -63.5
q-159 0 -237.5 67.5t-90.5 214.5z" />
    <glyph glyph-name="Uring" unicode="&#x16e;" horiz-adv-x="1368" 
d="M643 238v-275q-69 3 -138 19.5t-141 53t-126.5 88.5t-89.5 134t-35 182v994h301v-899q0 -147 57 -218t172 -79zM705 -37v275q133 6 191 73.5t58 220.5v902h301v-963q0 -72 -15 -138t-54 -133.5t-99.5 -117.5t-158.5 -83t-223 -36zM481 1665q0 82 56.5 138.5t138.5 56.5
q83 0 140.5 -56.5t57.5 -138.5q0 -83 -57.5 -140t-140.5 -57q-82 0 -138.5 57t-56.5 140zM600 1665q0 -36 21 -61t55 -25q36 0 58 25t22 61t-22 61t-58 25q-34 0 -55 -25t-21 -61z" />
    <glyph glyph-name="uring" unicode="&#x16f;" horiz-adv-x="1099" 
d="M723 0v1057h274v-1057h-274zM662 283v-238q-88 -65 -203 -65q-190 0 -275.5 98t-85.5 305v674h275v-633q0 -46 2 -73t9.5 -57t22 -45.5t40.5 -25.5t65 -10q90 0 150 70zM307 1380q0 102 71 173t173 71q103 0 175.5 -71t72.5 -173t-72.5 -173.5t-175.5 -71.5
q-101 0 -172.5 71.5t-71.5 173.5zM432 1380q0 -57 32.5 -95t86.5 -38q56 0 89.5 38t33.5 95t-33.5 95t-89.5 38q-54 0 -86.5 -38t-32.5 -95z" />
    <glyph glyph-name="Uhungarumlaut" unicode="&#x170;" horiz-adv-x="1374" 
d="M643 238v-275q-69 3 -138 19.5t-141 53t-126.5 88.5t-89.5 134t-35 182v994h301v-899q0 -147 57 -218t172 -79zM705 -37v275q133 6 191 73.5t58 220.5v902h301v-963q0 -72 -15 -138t-54 -133.5t-99.5 -117.5t-158.5 -83t-223 -36zM846 1720l-275 -184h-196l155 184h316z
M1262 1720l-275 -184h-199l158 184h316z" />
    <glyph glyph-name="uhungarumlaut" unicode="&#x171;" horiz-adv-x="1099" 
d="M723 0v1057h274v-1057h-274zM662 283v-238q-88 -65 -203 -65q-190 0 -275.5 98t-85.5 305v674h275v-633q0 -46 2 -73t9.5 -57t22 -45.5t40.5 -25.5t65 -10q90 0 150 70zM733 1454l-295 -274h-196l176 274h315zM1149 1454l-295 -274h-199l179 274h315z" />
    <glyph glyph-name="Uogonek" unicode="&#x172;" horiz-adv-x="1368" 
d="M705 -37v275q133 6 191 73.5t58 220.5v902h301v-963q0 -60 -10.5 -116.5t-38 -115.5t-69 -107t-108.5 -87t-152 -59q-62 -56 -101 -119t-39 -113q0 -69 86 -69q46 0 80 24v-123q-68 -24 -141 -24q-94 0 -155.5 45.5t-61.5 138.5q0 110 160 217zM643 238v-275
q-69 3 -138 19.5t-141 53t-126.5 88.5t-89.5 134t-35 182v994h301v-899q0 -147 57 -218t172 -79z" />
    <glyph glyph-name="uogonek" unicode="&#x173;" horiz-adv-x="1099" 
d="M723 0v1057h274v-1057h-79q-54 0 -107.5 -47t-83 -104t-29.5 -95q0 -69 86 -69q46 0 80 24v-123q-67 -24 -141 -24q-94 0 -155.5 45.5t-61.5 138.5q0 127 217 254zM662 283v-238q-88 -65 -203 -65q-190 0 -275.5 98t-85.5 305v674h275v-633q0 -46 2 -73t9.5 -57t22 -45.5
t40.5 -25.5t65 -10q90 0 150 70z" />
    <glyph glyph-name="Wcircumflex" unicode="&#x174;" horiz-adv-x="1767" 
d="M692 0h-317l-344 1434h303zM584 684l151 750h295l383 -1434h-297l-242 915l-153 -776zM1290 698l150 736h297l-295 -1305zM537 1536l221 184h260l221 -184h-256l-90 82h-14l-107 -82h-235z" />
    <glyph glyph-name="wcircumflex" unicode="&#x175;" horiz-adv-x="1523" 
d="M627 113l-121 419l153 525h242l293 -1057h-264l-168 580zM291 1057l303 -1057h-264l-320 1057h281zM1227 111l-129 469l135 477h280zM432 1180l221 280h260l222 -280h-236l-125 157l-127 -157h-215z" />
    <glyph glyph-name="Ycircumflex" unicode="&#x176;" horiz-adv-x="1263" 
d="M778 578v-578h-297v578l-461 856h304zM662 922l282 512h299l-430 -797zM293 1536l221 184h260l221 -184h-256l-90 82h-14l-107 -82h-235z" />
    <glyph glyph-name="ycircumflex" unicode="&#x177;" horiz-adv-x="970" 
d="M369 23l315 1034h277l-367 -1147q-14 -41 -25.5 -67.5t-33.5 -55t-50.5 -44t-73.5 -26t-106 -10.5h-166v242h123q42 0 69 15.5t38 58.5zM457 549l-127 -416l-320 924h281zM131 1180l221 280h260l222 -280h-236l-125 157l-127 -157h-215z" />
    <glyph glyph-name="Ydieresis" unicode="&#x178;" horiz-adv-x="1271" 
d="M778 578v-578h-297v578l-461 856h304zM662 922l282 512h299l-430 -797zM319 1536v184h254v-184h-254zM717 1536v184h258v-184h-258z" />
    <glyph glyph-name="Zacute" unicode="&#x179;" horiz-adv-x="1296" 
d="M944 1434l-211 -267h-596v267h807zM1024 1434h170v-252l-940 -1182h-172v248zM336 0l211 266h667v-266h-878zM977 1720l-266 -184h-199l150 184h315z" />
    <glyph glyph-name="zacute" unicode="&#x17a;" horiz-adv-x="974" 
d="M659 1057l-188 -230h-375v230h563zM739 1057h172v-203l-704 -854h-156v223zM287 0l188 229h438v-229h-626zM889 1454l-307 -274h-199l190 274h316z" />
    <glyph glyph-name="Zdotaccent" unicode="&#x17b;" horiz-adv-x="1296" 
d="M944 1434l-211 -267h-596v267h807zM1024 1434h170v-252l-940 -1182h-172v248zM336 0l211 266h667v-266h-878zM522 1536v184h271v-184h-271zM522 1536v184h271v-184h-271z" />
    <glyph glyph-name="zdotaccent" unicode="&#x17c;" horiz-adv-x="974" 
d="M659 1057l-188 -230h-375v230h563zM739 1057h172v-203l-704 -854h-156v223zM287 0l188 229h438v-229h-626zM354 1208v236h271v-236h-271z" />
    <glyph glyph-name="Zcaron" unicode="&#x17d;" horiz-adv-x="1296" 
d="M944 1434l-211 -267h-596v267h807zM1024 1434h170v-252l-940 -1182h-172v248zM336 0l211 266h667v-266h-878zM1024 1720l-221 -184h-260l-221 184h256l90 -82h14l106 82h236z" />
    <glyph glyph-name="zcaron" unicode="&#x17e;" horiz-adv-x="974" 
d="M659 1057l-188 -230h-375v230h563zM739 1057h172v-203l-704 -854h-156v223zM287 0l188 229h438v-229h-626zM831 1460l-221 -280h-260l-221 280h223l127 -157l131 157h221z" />
    <glyph glyph-name="longs" unicode="&#x17f;" horiz-adv-x="665" 
d="M664 1221l-119 2q-51 0 -77 -16t-26 -62v-1145h-276v827h-166v230h168v170q0 233 268 233q130 0 228 -10v-229z" />
    <glyph glyph-name="AEacute" unicode="&#x1fc;" horiz-adv-x="1984" 
d="M1176 1167l-43 267h702v-267h-659zM1266 600l-43 260h579v-260h-536zM1360 0l-43 266h606v-266h-563zM1071 1434l227 -1434h-299l-227 1434h299zM723 1339l63 -409l-239 -475h315l39 -238h-477l-113 -217h-291zM1386 1720l-266 -184h-198l149 184h315z" />
    <glyph glyph-name="aeacute" unicode="&#x1fd;" horiz-adv-x="1732" 
d="M692 76v672q0 43 -37.5 77.5t-128.5 34.5q-84 0 -122.5 -36.5t-43.5 -110.5h-251q12 364 409 364q255 0 356 -119q120 109 283 119v-235q-56 -2 -97.5 -27.5t-64 -68.5t-33 -93.5t-10.5 -109.5v-23q8 -270 205 -309v-236q-101 9 -202 59.5t-167 147.5q-77 -95 -96 -106z
M631 258v-221q-81 -47 -207 -47q-164 0 -263.5 83.5t-99.5 254.5q0 51 13 93t34 72.5t54.5 54.5t67.5 39.5t79.5 28t84 19t87.5 12.5l150 19v-201l-150 -23q-76 -12 -109.5 -42t-33.5 -83q0 -50 35 -83t106 -33q92 0 152 57zM1028 662h344q-4 26 -12 50.5t-24.5 52.5
t-46.5 48.5t-70 28.5v235q235 -14 358 -217q94 -157 94 -397h-653q-4 25 -4 80q0 70 14 119zM1219 -25v236q49 3 86.5 16t62.5 37t41 47t33 58l225 -133q-151 -249 -448 -261zM1284 1454l-307 -274h-199l191 274h315z" />
    <glyph glyph-name="Oslashacute" unicode="&#x1fe;" horiz-adv-x="1486" 
d="M774 618v254l187 244q-81 67 -187 78v276q209 -11 365 -120l92 120h194l-170 -223q170 -199 170 -530q0 -151 -37.5 -276.5t-100.5 -210.5t-148 -145.5t-176.5 -89t-188.5 -32.5v277q66 5 124.5 35.5t108 86.5t78.5 147.5t29 207.5q0 157 -55 274zM713 813v-254
l-187 -242q79 -67 187 -77v-277q-203 10 -363 121l-92 -121h-197l172 225q-172 203 -172 529q0 159 41 288.5t106 212.5t152.5 140.5t174.5 82.5t178 29v-276q-49 -4 -95 -21.5t-91 -54.5t-78.5 -89t-54.5 -132.5t-21 -179.5q0 -162 55 -275zM1106 1741l-266 -185h-199
l150 185h315z" />
    <glyph glyph-name="oslashacute" unicode="&#x1ff;" horiz-adv-x="1169" 
d="M559 584v-174l-121 -152q50 -41 121 -47v-236q-161 9 -276 86l-76 -98h-146l138 170q-138 150 -138 393q0 110 33 207t94 172t157 121t214 51v-235q-112 -10 -165.5 -94.5t-53.5 -221.5q0 -109 31 -178zM621 465v174l118 149q-51 45 -118 54v235q158 -9 274 -92l74 92
h139l-131 -166q131 -153 131 -385q0 -127 -39.5 -230.5t-107.5 -170.5t-154.5 -105t-185.5 -45v236q106 12 157 96t51 219q0 93 -26 166zM979 1454l-307 -274h-199l191 274h315z" />
    <glyph glyph-name="uni0218" unicode="&#x218;" horiz-adv-x="1357" 
d="M799 -123v-194q0 -71 -52 -135t-124 -99l-43 76q45 24 71.5 64t26.5 87h-103v201h224zM715 1210v260q110 -6 205 -35.5t161.5 -75t112 -93t76.5 -101.5l-252 -153q-20 31 -38.5 54.5t-55 57.5t-90.5 56.5t-119 29.5zM653 233v-270q-203 7 -359.5 100t-242.5 244l258 156
q18 -28 33.5 -49t48 -54.5t66.5 -56.5t86 -43t110 -27zM715 -37v270q45 0 89.5 9.5t86.5 28.5t68 53.5t26 78.5q0 138 -205 170l-286 45q-53 9 -103 26t-101.5 49.5t-90 74.5t-62.5 105t-24 137q0 96 32.5 174.5t86 130t124.5 87t145 51.5t152 17v-258q-112 -1 -172.5 -46.5
t-60.5 -108.5q0 -127 196 -156l256 -39q196 -29 310 -134.5t114 -291.5q0 -93 -36 -175.5t-105 -148.5t-182.5 -106t-257.5 -43z" />
    <glyph glyph-name="uni0219" unicode="&#x219;" horiz-adv-x="1064" 
d="M641 -123v-194q0 -71 -52 -135t-124 -99l-43 76q45 24 71.5 64t26.5 87h-102v201h223zM565 -27v232q73 5 116.5 34t43.5 74q0 16 -7.5 29t-24.5 22.5t-36 16.5t-51 14t-59.5 12t-72.5 13.5t-79 15.5q-151 31 -221 104t-70 199q0 151 112 240t288 98v-225
q-60 -4 -91.5 -28t-31.5 -64q0 -20 12.5 -35t37.5 -25t52 -16t66 -12l145 -25q156 -27 233 -107t77 -192q0 -170 -118 -268t-321 -107zM504 205v-232q-283 6 -463 195l201 168q47 -52 117 -88t145 -43zM565 852v225q246 -8 410 -180l-170 -168q-101 112 -240 123z" />
    <glyph glyph-name="uni021A" unicode="&#x21a;" horiz-adv-x="1183" 
d="M803 1167v267h340v-267h-340zM381 1167h-340v267h340v-267zM442 1434h299v-1434h-299v1434zM705 -123v-194q0 -71 -52.5 -135t-124.5 -99l-43 76q45 24 72 64t27 87h-103v201h224z" />
    <glyph glyph-name="uni021B" unicode="&#x21b;" horiz-adv-x="757" 
d="M700 827h-217v-448q0 -79 24.5 -107t100.5 -28q53 0 92 2v-250q-41 -6 -174 -6q-97 0 -160 18t-98 57t-48 90t-13 128v544h-176v230h176v377h276v-377h217v-230zM598 -123v-194q0 -71 -52 -135t-124 -99l-43 76q45 24 71.5 64t26.5 87h-102v201h223z" />
    <glyph glyph-name="dotlessj" unicode="&#x237;" horiz-adv-x="520" 
d="M397 1057v-1067q0 -69 -16 -119.5t-42.5 -80.5t-66.5 -48.5t-80 -24.5t-92 -6q-55 0 -155 8v236h102q42 0 59 33.5t17 115.5v953h274z" />
    <glyph glyph-name="schwa" unicode="&#x259;" horiz-adv-x="1114" 
d="M514 1077v-235q-49 -3 -86.5 -16t-62.5 -37t-41 -47t-33 -58l-225 133q150 248 448 260zM705 391h-345q3 -26 12 -50.5t25.5 -52t46.5 -48.5t70 -29v-236q-120 7 -210.5 65t-147.5 153q-95 159 -95 397h654q4 -25 4 -80q0 -70 -14 -119zM780 510q0 291 -205 332v235
q59 -5 120 -23.5t126.5 -60t116 -99.5t83 -148.5t32.5 -200.5q0 -121 -29.5 -219t-77 -160.5t-111.5 -105.5t-128 -62t-132 -23v236q56 2 97.5 27.5t64 68.5t33 93.5t10.5 109.5z" />
    <glyph glyph-name="circumflex" unicode="&#x2c6;" horiz-adv-x="825" 
d="M61 1180l222 280h260l221 -280h-236l-125 157l-127 -157h-215z" />
    <glyph glyph-name="caron" unicode="&#x2c7;" horiz-adv-x="825" 
d="M764 1460l-221 -280h-260l-222 280h224l127 -157l131 157h221z" />
    <glyph glyph-name="uni02C9" unicode="&#x2c9;" horiz-adv-x="727" 
d="M61 1233v174h605v-174h-605z" />
    <glyph glyph-name="breve" unicode="&#x2d8;" horiz-adv-x="796" 
d="M72 1462h164q19 -121 163 -121q68 0 107 25t55 96h164q-15 -155 -93.5 -218.5t-232.5 -63.5q-159 0 -237 67.5t-90 214.5z" />
    <glyph glyph-name="dotaccent" unicode="&#x2d9;" horiz-adv-x="393" 
d="M61 1208v236h271v-236h-271z" />
    <glyph glyph-name="ring" unicode="&#x2da;" horiz-adv-x="614" 
d="M61 1380q0 102 71 173t173 71q103 0 175.5 -71t72.5 -173t-72.5 -173.5t-175.5 -71.5q-101 0 -172.5 71.5t-71.5 173.5zM186 1380q0 -57 32.5 -95t86.5 -38q56 0 89.5 38t33.5 95t-33.5 95t-89.5 38q-54 0 -86.5 -38t-32.5 -95z" />
    <glyph glyph-name="ogonek" unicode="&#x2db;" horiz-adv-x="606" 
d="M420 -291v-123q-67 -24 -141 -24q-94 0 -156 46t-62 138q0 128 230 260h129q-72 -57 -119 -127t-47 -125q0 -69 86 -69q46 0 80 24z" />
    <glyph glyph-name="tilde" unicode="&#x2dc;" horiz-adv-x="858" 
d="M657 1427h140q-7 -35 -15.5 -63t-26 -63t-40.5 -58t-60.5 -39t-83.5 -16q-57 0 -157.5 39t-147.5 39q-38 0 -55.5 -18t-28.5 -60h-121q10 51 24.5 89t41.5 76.5t73 59.5t109 21q45 0 131.5 -41t132.5 -41q77 0 84 75z" />
    <glyph glyph-name="hungarumlaut" unicode="&#x2dd;" horiz-adv-x="1034" 
d="M553 1454l-295 -274h-197l177 274h315zM969 1454l-295 -274h-199l178 274h316z" />
    <glyph glyph-name="gravecmb" unicode="&#x300;" horiz-adv-x="0" 
d="M-637 1180l-303 274h313l189 -274h-199z" />
    <glyph glyph-name="acutecmb" unicode="&#x301;" horiz-adv-x="0" 
d="M-190 1454l-308 -274h-198l190 274h316z" />
    <glyph glyph-name="uni0302" unicode="&#x302;" horiz-adv-x="0" 
d="M-932 1159l221 281h260l222 -281h-236l-125 158l-127 -158h-215z" />
    <glyph glyph-name="tildecmb" unicode="&#x303;" horiz-adv-x="0" 
d="M-346 1407h139q-7 -35 -15.5 -63t-26 -63t-40 -58.5t-60 -39.5t-83.5 -16q-57 0 -157.5 39t-147.5 39q-38 0 -55.5 -18t-28.5 -60h-121q10 51 24.5 89t41.5 76.5t73 59.5t109 21q45 0 131.5 -41t132.5 -41q77 0 84 76z" />
    <glyph glyph-name="uni0304" unicode="&#x304;" horiz-adv-x="0" 
d="M-881 1212v174h605v-174h-605z" />
    <glyph glyph-name="uni0306" unicode="&#x306;" horiz-adv-x="0" 
d="M-942 1442h127q11 -71 64.5 -101t125.5 -30q93 0 142.5 28.5t66.5 102.5h127q-20 -151 -105 -217t-241 -66q-146 0 -220.5 68.5t-86.5 214.5z" />
    <glyph glyph-name="uni0307" unicode="&#x307;" horiz-adv-x="0" 
d="M-758 1188v235h271v-235h-271z" />
    <glyph glyph-name="uni0308" unicode="&#x308;" horiz-adv-x="0" 
d="M-922 1192v231h254v-231h-254zM-524 1192v231h258v-231h-258z" />
    <glyph glyph-name="uni030A" unicode="&#x30a;" horiz-adv-x="30" 
d="M-840 1360q0 102 71 173t173 71q103 0 175.5 -71t72.5 -173q0 -103 -72.5 -174.5t-175.5 -71.5q-101 0 -172.5 71.5t-71.5 174.5zM-715 1360q0 -57 32.5 -95t86.5 -38q56 0 89.5 38t33.5 95t-33.5 95t-89.5 38q-54 0 -86.5 -38t-32.5 -95z" />
    <glyph glyph-name="uni030B" unicode="&#x30b;" horiz-adv-x="0" 
d="M-430 1434l-295 -275h-197l177 275h315zM-14 1434l-295 -275h-199l178 275h316z" />
    <glyph glyph-name="uni030C" unicode="&#x30c;" horiz-adv-x="0" 
d="M-270 1440l-222 -281h-260l-221 281h223l127 -158l131 158h222z" />
    <glyph glyph-name="dotbelowcmb" unicode="&#x323;" horiz-adv-x="0" 
d="M-717 -367v236h260v-236h-260z" />
    <glyph glyph-name="uni0327" unicode="&#x327;" horiz-adv-x="606" 
d="M-776 -420l47 125q82 -37 160 -37q88 0 88 68q0 27 -20 46t-58 19q-47 0 -82 -14l-29 78q80 41 187 41q91 0 144.5 -49.5t53.5 -116.5q0 -102 -77.5 -153.5t-190.5 -51.5q-121 0 -223 45z" />
    <glyph glyph-name="uni0328" unicode="&#x328;" horiz-adv-x="0" 
d="M-401 -254l96 -45q-107 -137 -268 -137q-17 0 -34 1.5t-44 7t-49 18t-43 31.5t-33 51t-12 73q0 129 229 260h129q-93 -84 -129.5 -141.5t-36.5 -112.5q0 -28 24 -47.5t54 -19.5q36 0 63 12.5t54 48.5z" />
    <glyph glyph-name="uni0374" unicode="&#x374;" horiz-adv-x="526" 
d="M444 1434l-184 -439h-178l68 439h294z" />
    <glyph glyph-name="uni0375" unicode="&#x375;" horiz-adv-x="526" 
d="M82 -348l184 438h178l-67 -438h-295z" />
    <glyph glyph-name="uni037E" unicode="&#x37e;" horiz-adv-x="540" 
d="M131 758v299h287v-299h-287zM414 303v-283q0 -101 -62.5 -197.5t-154.5 -137.5l-58 100q57 28 90 93.5t33 131.5h-139v293h291z" />
    <glyph glyph-name="tonos" unicode="&#x384;" horiz-adv-x="485" 
d="M424 1495l-184 -336h-179l68 336h295z" />
    <glyph glyph-name="dieresistonos" unicode="&#x385;" horiz-adv-x="1114" 
d="M729 1434l-137 -254h-178l20 254h295zM98 1180v231h254v-231h-254zM770 1180v231h258v-231h-258z" />
    <glyph glyph-name="Alphatonos" unicode="&#x386;" horiz-adv-x="1294" 
d="M446 1339l144 -409l-148 -475h316l84 -238h-477l-70 -217h-295zM477 1434h311l506 -1434h-311zM383 1495l-184 -336h-179l68 336h295z" />
    <glyph glyph-name="anoteleia" unicode="&#x387;" horiz-adv-x="532" 
d="M123 571v297h287v-297h-287z" />
    <glyph glyph-name="Epsilontonos" unicode="&#x388;" horiz-adv-x="1566" 
d="M846 1167v267h612v-267h-612zM846 600v260h579v-260h-579zM846 0v266h639v-266h-639zM784 1434v-1434h-299v1434h299zM362 1495l-184 -336h-178l68 336h294z" />
    <glyph glyph-name="Etatonos" unicode="&#x389;" horiz-adv-x="1765" 
d="M1032 885v-264h-248v-621h-299v1434h299v-549h248zM1094 621v264h249v549h299v-1434h-299v621h-249zM362 1495l-184 -336h-178l68 336h294z" />
    <glyph glyph-name="Iotatonos" unicode="&#x38a;" horiz-adv-x="907" 
d="M784 0h-299v1434h299v-1434zM362 1495l-184 -336h-178l68 336h294z" />
    <glyph glyph-name="Omicrontonos" unicode="&#x38c;" horiz-adv-x="1634" 
d="M922 1194v276q88 -4 173 -28t173.5 -80t154.5 -138t108 -213t42 -294q0 -151 -37.5 -276.5t-100.5 -210.5t-148 -145.5t-176.5 -89t-188.5 -32.5v277q66 5 124.5 35.5t108 86.5t78.5 147.5t29 207.5q0 100 -21.5 181.5t-55.5 133.5t-80 88t-91 53t-92 21zM860 1470v-276
q-49 -4 -95 -21.5t-91 -54.5t-78.5 -89t-54.5 -132.5t-21 -179.5q0 -113 28.5 -203.5t77.5 -147t108 -88.5t126 -38v-277q-99 4 -192 34.5t-177 92t-146.5 147t-99 209.5t-36.5 271q0 159 40.5 288.5t106 212.5t152.5 140.5t174 82.5t178 29zM362 1495l-184 -336h-178
l68 336h294z" />
    <glyph glyph-name="Upsilontonos" unicode="&#x38e;" horiz-adv-x="1730" 
d="M1194 336v-336h-297v281q0 163 -45 320.5t-120 281.5t-164.5 220.5t-186.5 158.5l197 202q32 -19 78.5 -58.5t105 -103t118 -140t116.5 -173.5t100.5 -198t70.5 -220.5t27 -234.5zM1229 569q-16 102 -65 218.5t-85 179.5q24 59 61 117.5t69.5 100t83 92.5t76 74t75.5 66
t57 49l209 -196q-161 -106 -292.5 -288.5t-188.5 -412.5zM362 1495l-184 -336h-178l68 336h294z" />
    <glyph glyph-name="Omegatonos" unicode="&#x38f;" horiz-adv-x="1652" 
d="M942 1194v276q62 -2 122 -12.5t125.5 -34.5t122.5 -60t109 -92.5t89 -127.5t59 -170.5t22 -216.5q0 -173 -53.5 -294.5t-169.5 -228.5v-4h223v-229h-579v229q122 59 196 203.5t74 325.5q0 200 -89 311t-251 125zM883 1470l-2 -276q-164 -7 -253 -122.5t-89 -313.5
q0 -177 69 -323.5t187 -205.5v-229h-568v229h230v4q-119 110 -174.5 232.5t-55.5 288.5q0 114 21.5 211.5t58 168.5t88.5 128.5t109.5 95t123.5 62.5t128.5 36.5t126.5 13.5zM362 1495l-184 -336h-178l68 336h294z" />
    <glyph glyph-name="iotadieresistonos" unicode="&#x390;" horiz-adv-x="544" 
d="M422 0h-299v1434h299v-1434zM444 1810l-137 -254h-178l21 254h294zM-186 1556v232h254v-232h-254zM485 1556v232h258v-232h-258z" />
    <glyph glyph-name="Alpha" unicode="&#x391;" horiz-adv-x="1335" 
d="M467 1339l143 -409l-147 -475h315l84 -238h-477l-70 -217h-295zM498 1434h311l506 -1434h-311z" />
    <glyph glyph-name="Beta" unicode="&#x392;" horiz-adv-x="1316" 
d="M483 0v254h260q89 0 150 53t61 131q0 105 -64.5 150t-164.5 45h-242v233h199q115 0 168 44t53 130q0 144 -178 144h-242v250h283q127 0 225 -41t156.5 -125t58.5 -201q0 -114 -50 -188.5t-138 -110.5v-6q100 -22 168.5 -121.5t68.5 -222.5q0 -193 -129 -305.5
t-352 -112.5h-291zM422 1434v-1434h-299v1434h299z" />
    <glyph glyph-name="Gamma" unicode="&#x393;" horiz-adv-x="1103" 
d="M422 1434v-1434h-299v1434h299zM483 1167v267h580v-267h-580z" />
    <glyph glyph-name="uni0394" unicode="&#x394;" horiz-adv-x="1308" 
d="M51 266h1206v-266h-1206v266zM1233 328h-311l-430 1106h311zM383 328h-309l385 1018l149 -383z" />
    <glyph glyph-name="Epsilon" unicode="&#x395;" horiz-adv-x="1204" 
d="M483 1167v267h613v-267h-613zM483 600v260h580v-260h-580zM483 0v266h639v-266h-639zM422 1434v-1434h-299v1434h299z" />
    <glyph glyph-name="Zeta" unicode="&#x396;" horiz-adv-x="1296" 
d="M944 1434l-211 -267h-596v267h807zM1024 1434h170v-252l-940 -1182h-172v248zM336 0l211 266h667v-266h-878z" />
    <glyph glyph-name="Eta" unicode="&#x397;" horiz-adv-x="1402" 
d="M670 885v-264h-248v-621h-299v1434h299v-549h248zM731 621v264h250v549h299v-1434h-299v621h-250z" />
    <glyph glyph-name="Theta" unicode="&#x398;" horiz-adv-x="1486" 
d="M467 598v248h553v-248h-553zM774 1194v276q88 -4 173 -28t173.5 -80t154.5 -138t108 -213t42 -294q0 -151 -37.5 -276.5t-100.5 -210.5t-148 -145.5t-176.5 -89t-188.5 -32.5v277q66 5 124.5 35.5t108 86.5t78.5 147.5t29 207.5q0 100 -21.5 181.5t-55.5 133.5t-80 88
t-91 53t-92 21zM713 1470v-276q-49 -4 -95 -21.5t-91 -54.5t-78.5 -89t-54.5 -132.5t-21 -179.5q0 -113 28.5 -203.5t77.5 -147t108 -88.5t126 -38v-277q-82 4 -160.5 26t-152 63t-135 104t-107.5 143.5t-71.5 187.5t-25.5 230q0 159 41 288.5t106 212.5t152.5 140.5
t174.5 82.5t178 29z" />
    <glyph glyph-name="Iota" unicode="&#x399;" horiz-adv-x="544" 
d="M422 0h-299v1434h299v-1434z" />
    <glyph glyph-name="Kappa" unicode="&#x39a;" horiz-adv-x="1396" 
d="M422 1434v-1434h-299v1434h299zM1331 1434l-848 -916v356l521 560h327zM696 657l201 217l469 -874h-328z" />
    <glyph glyph-name="Lambda" unicode="&#x39b;" horiz-adv-x="1314" 
d="M1305 0h-312l-501 1434h307zM315 0h-309l453 1346l143 -404z" />
    <glyph glyph-name="Mu" unicode="&#x39c;" horiz-adv-x="1595" 
d="M123 1264l283 -756v-508h-283v1264zM973 88l-139 373l356 973h283zM406 1434l534 -1434h-281l-536 1434h283zM1190 502l283 762v-1264h-283v502z" />
    <glyph glyph-name="Nu" unicode="&#x39d;" horiz-adv-x="1374" 
d="M1251 238l-284 440v756h284v-1196zM123 1196l285 -442v-754h-285v1196zM967 0l-844 1311v123h283l845 -1311v-123h-284z" />
    <glyph glyph-name="Xi" unicode="&#x39e;" horiz-adv-x="1122" 
d="M88 1171v263h946v-263h-946zM121 598v262h880v-262h-880zM61 0v266h1000v-266h-1000z" />
    <glyph glyph-name="Omicron" unicode="&#x39f;" horiz-adv-x="1486" 
d="M774 1194v276q88 -4 173 -28t173.5 -80t154.5 -138t108 -213t42 -294q0 -151 -37.5 -276.5t-100.5 -210.5t-148 -145.5t-176.5 -89t-188.5 -32.5v277q66 5 124.5 35.5t108 86.5t78.5 147.5t29 207.5q0 100 -21.5 181.5t-55.5 133.5t-80 88t-91 53t-92 21zM713 1470v-276
q-49 -4 -95 -21.5t-91 -54.5t-78.5 -89t-54.5 -132.5t-21 -179.5q0 -113 28.5 -203.5t77.5 -147t108 -88.5t126 -38v-277q-82 4 -160.5 26t-152 63t-135 104t-107.5 143.5t-71.5 187.5t-25.5 230q0 159 41 288.5t106 212.5t152.5 140.5t174.5 82.5t178 29z" />
    <glyph glyph-name="Pi" unicode="&#x3a0;" horiz-adv-x="1382" 
d="M659 1434v-267h-237v-1167h-299v1434h536zM723 1167v267h537v-1434h-299v1167h-238z" />
    <glyph glyph-name="Rho" unicode="&#x3a1;" horiz-adv-x="1255" 
d="M422 1434v-1434h-299v1434h299zM483 475v248h170q49 0 90 12.5t76.5 39.5t55.5 76t20 116q0 105 -64 162t-178 57h-170v248h193q110 0 198.5 -26t147 -70t98 -104t57 -126.5t17.5 -140.5q0 -107 -30.5 -195t-91.5 -155t-159.5 -104.5t-226.5 -37.5h-203z" />
    <glyph glyph-name="Sigma" unicode="&#x3a3;" horiz-adv-x="1296" 
d="M289 1434l569 -717l-631 -717h-145v248l412 469l-369 465v252h164zM369 1434h813v-267h-600zM545 266h669v-266h-905z" />
    <glyph glyph-name="Tau" unicode="&#x3a4;" horiz-adv-x="1183" 
d="M803 1167v267h340v-267h-340zM381 1167h-340v267h340v-267zM442 1434h299v-1434h-299v1434z" />
    <glyph glyph-name="Upsilon" unicode="&#x3a5;" horiz-adv-x="1368" 
d="M831 336v-336h-296v281q0 163 -45 320.5t-120 281.5t-165 220.5t-187 158.5l197 202q32 -19 78.5 -58.5t105 -103t118 -140t116.5 -173.5t100.5 -198t70.5 -220.5t27 -234.5zM866 569q-16 102 -65 219t-84 179q24 59 61 117.5t69.5 100t83 92.5t76 74t75.5 66t57 49
l209 -196q-161 -106 -293 -288.5t-189 -412.5z" />
    <glyph glyph-name="Phi" unicode="&#x3a6;" horiz-adv-x="1609" 
d="M655 -41v1495h299v-1495h-299zM594 420v-281q-86 15 -163.5 46t-145.5 80.5t-117.5 113.5t-78 149.5t-28.5 184.5q0 108 31 199t82 154.5t121 111.5t144 75t155 41v-276q-106 -35 -163.5 -114.5t-57.5 -184.5q0 -112 58 -189t163 -110zM1016 139v285q104 32 163.5 108
t59.5 187q0 109 -58 187t-165 112v276q80 -14 152.5 -40t143.5 -73t122 -109.5t82.5 -154.5t31.5 -202q0 -106 -29.5 -195.5t-79 -153t-118.5 -111t-144.5 -75.5t-160.5 -41z" />
    <glyph glyph-name="Chi" unicode="&#x3a7;" horiz-adv-x="1378" 
d="M432 1434l926 -1434h-350l-916 1434h340zM647 451l-278 -451h-349l457 723zM729 1085l215 349h342l-385 -617z" />
    <glyph glyph-name="Psi" unicode="&#x3a8;" horiz-adv-x="1568" 
d="M635 0v1434h299v-1434h-299zM573 645v-280q-224 19 -347.5 166t-123.5 407v496h310v-490q0 -58 7.5 -103t25 -85t50 -67.5t78.5 -43.5zM995 365v280q88 28 125 103.5t37 195.5v490h309v-494q0 -266 -123.5 -409.5t-347.5 -165.5z" />
    <glyph glyph-name="uni03A9" unicode="&#x3a9;" horiz-adv-x="1486" 
d="M776 1194v276q62 -2 122 -12.5t125.5 -34.5t122.5 -60t109 -92.5t89 -127.5t59 -170.5t22 -216.5q0 -173 -53.5 -294.5t-169.5 -228.5v-4h223v-229h-579v229q122 59 196 203.5t74 325.5q0 200 -89 311t-251 125zM717 1470l-2 -276q-164 -7 -253 -122.5t-89 -313.5
q0 -177 69 -323.5t187 -205.5v-229h-568v229h230v4q-119 110 -174.5 232.5t-55.5 288.5q0 114 21.5 211.5t58 168.5t88.5 128.5t109.5 95t123.5 62.5t128.5 36.5t126.5 13.5z" />
    <glyph glyph-name="Iotadieresis" unicode="&#x3aa;" horiz-adv-x="544" 
d="M422 0h-299v1434h299v-1434zM-59 1536v184h254v-184h-254zM338 1536v184h258v-184h-258z" />
    <glyph glyph-name="Upsilondieresis" unicode="&#x3ab;" horiz-adv-x="1368" 
d="M831 336v-336h-296v281q0 163 -45 320.5t-120 281.5t-165 220.5t-187 158.5l197 202q32 -19 78.5 -58.5t105 -103t118 -140t116.5 -173.5t100.5 -198t70.5 -220.5t27 -234.5zM866 569q-16 102 -65 219t-84 179q24 59 61 117.5t69.5 100t83 92.5t76 74t75.5 66t57 49
l209 -196q-161 -106 -293 -288.5t-189 -412.5zM358 1536v184h254v-184h-254zM756 1536v184h258v-184h-258z" />
    <glyph glyph-name="alphatonos" unicode="&#x3ac;" horiz-adv-x="1335" 
d="M958 1720l-204 -184h-199l88 184h315zM467 1339l143 -409l-147 -475h315l84 -238h-477l-70 -217h-295zM498 1434h311l506 -1434h-311z" />
    <glyph glyph-name="epsilontonos" unicode="&#x3ad;" horiz-adv-x="1204" 
d="M883 1720l-205 -184h-199l88 184h316zM483 1167v267h613v-267h-613zM483 600v260h580v-260h-580zM483 0v266h639v-266h-639zM422 1434v-1434h-299v1434h299z" />
    <glyph glyph-name="etatonos" unicode="&#x3ae;" horiz-adv-x="1402" 
d="M987 1720l-205 -184h-198l88 184h315zM670 885v-264h-248v-621h-299v1434h299v-549h248zM731 621v264h250v549h299v-1434h-299v621h-250z" />
    <glyph glyph-name="iotatonos" unicode="&#x3af;" horiz-adv-x="544" 
d="M571 1720l-204 -184h-199l88 184h315zM422 0h-299v1434h299v-1434z" />
    <glyph glyph-name="upsilondieresistonos" unicode="&#x3b0;" horiz-adv-x="1368" 
d="M831 336v-336h-296v281q0 163 -45 320.5t-120 281.5t-165 220.5t-187 158.5l197 202q32 -19 78.5 -58.5t105 -103t118 -140t116.5 -173.5t100.5 -198t70.5 -220.5t27 -234.5zM866 569q-16 102 -65 219t-84 179q24 59 61 117.5t69.5 100t83 92.5t76 74t75.5 66t57 49
l209 -196q-161 -106 -293 -288.5t-189 -412.5zM856 1790l-137 -254h-178l20 254h295zM225 1536v231h254v-231h-254zM897 1536v231h258v-231h-258z" />
    <glyph glyph-name="alpha" unicode="&#x3b1;" horiz-adv-x="1335" 
d="M467 1339l143 -409l-147 -475h315l84 -238h-477l-70 -217h-295zM498 1434h311l506 -1434h-311z" />
    <glyph glyph-name="beta" unicode="&#x3b2;" horiz-adv-x="1316" 
d="M483 0v254h260q89 0 150 53t61 131q0 105 -64.5 150t-164.5 45h-242v233h199q115 0 168 44t53 130q0 144 -178 144h-242v250h283q127 0 225 -41t156.5 -125t58.5 -201q0 -114 -50 -188.5t-138 -110.5v-6q100 -22 168.5 -121.5t68.5 -222.5q0 -193 -129 -305.5
t-352 -112.5h-291zM422 1434v-1434h-299v1434h299z" />
    <glyph glyph-name="gamma" unicode="&#x3b3;" horiz-adv-x="1103" 
d="M422 1434v-1434h-299v1434h299zM483 1167v267h580v-267h-580z" />
    <glyph glyph-name="delta" unicode="&#x3b4;" horiz-adv-x="1308" 
d="M51 266h1206v-266h-1206v266zM1233 328h-311l-430 1106h311zM383 328h-309l385 1018l149 -383z" />
    <glyph glyph-name="epsilon" unicode="&#x3b5;" horiz-adv-x="1204" 
d="M483 1167v267h613v-267h-613zM483 600v260h580v-260h-580zM483 0v266h639v-266h-639zM422 1434v-1434h-299v1434h299z" />
    <glyph glyph-name="zeta" unicode="&#x3b6;" horiz-adv-x="1296" 
d="M944 1434l-211 -267h-596v267h807zM1024 1434h170v-252l-940 -1182h-172v248zM336 0l211 266h667v-266h-878z" />
    <glyph glyph-name="eta" unicode="&#x3b7;" horiz-adv-x="1402" 
d="M670 885v-264h-248v-621h-299v1434h299v-549h248zM731 621v264h250v549h299v-1434h-299v621h-250z" />
    <glyph glyph-name="theta" unicode="&#x3b8;" horiz-adv-x="1486" 
d="M467 598v248h553v-248h-553zM774 1194v276q88 -4 173 -28t173.5 -80t154.5 -138t108 -213t42 -294q0 -151 -37.5 -276.5t-100.5 -210.5t-148 -145.5t-176.5 -89t-188.5 -32.5v277q66 5 124.5 35.5t108 86.5t78.5 147.5t29 207.5q0 100 -21.5 181.5t-55.5 133.5t-80 88
t-91 53t-92 21zM713 1470v-276q-49 -4 -95 -21.5t-91 -54.5t-78.5 -89t-54.5 -132.5t-21 -179.5q0 -113 28.5 -203.5t77.5 -147t108 -88.5t126 -38v-277q-82 4 -160.5 26t-152 63t-135 104t-107.5 143.5t-71.5 187.5t-25.5 230q0 159 41 288.5t106 212.5t152.5 140.5
t174.5 82.5t178 29z" />
    <glyph glyph-name="iota" unicode="&#x3b9;" horiz-adv-x="544" 
d="M422 0h-299v1434h299v-1434z" />
    <glyph glyph-name="kappa" unicode="&#x3ba;" horiz-adv-x="1372" 
d="M422 1434v-1434h-299v1434h299zM1331 1434l-848 -916v356l521 560h327zM696 657l201 217l469 -874h-328z" />
    <glyph glyph-name="lambda" unicode="&#x3bb;" horiz-adv-x="1314" 
d="M1305 0h-312l-501 1434h307zM315 0h-309l453 1346l143 -404z" />
    <glyph glyph-name="uni03BC" unicode="&#x3bc;" horiz-adv-x="1595" 
d="M123 1264l283 -756v-508h-283v1264zM973 88l-139 373l356 973h283zM406 1434l534 -1434h-281l-536 1434h283zM1190 502l283 762v-1264h-283v502z" />
    <glyph glyph-name="nu" unicode="&#x3bd;" horiz-adv-x="1374" 
d="M1251 238l-284 440v756h284v-1196zM123 1196l285 -442v-754h-285v1196zM967 0l-844 1311v123h283l845 -1311v-123h-284z" />
    <glyph glyph-name="xi" unicode="&#x3be;" horiz-adv-x="1122" 
d="M88 1171v263h946v-263h-946zM121 598v262h880v-262h-880zM61 0v266h1000v-266h-1000z" />
    <glyph glyph-name="omicron" unicode="&#x3bf;" horiz-adv-x="1486" 
d="M774 1194v276q88 -4 173 -28t173.5 -80t154.5 -138t108 -213t42 -294q0 -151 -37.5 -276.5t-100.5 -210.5t-148 -145.5t-176.5 -89t-188.5 -32.5v277q66 5 124.5 35.5t108 86.5t78.5 147.5t29 207.5q0 100 -21.5 181.5t-55.5 133.5t-80 88t-91 53t-92 21zM713 1470v-276
q-49 -4 -95 -21.5t-91 -54.5t-78.5 -89t-54.5 -132.5t-21 -179.5q0 -113 28.5 -203.5t77.5 -147t108 -88.5t126 -38v-277q-82 4 -160.5 26t-152 63t-135 104t-107.5 143.5t-71.5 187.5t-25.5 230q0 159 41 288.5t106 212.5t152.5 140.5t174.5 82.5t178 29z" />
    <glyph glyph-name="pi" unicode="&#x3c0;" horiz-adv-x="1382" 
d="M659 1434v-267h-237v-1167h-299v1434h536zM723 1167v267h537v-1434h-299v1167h-238z" />
    <glyph glyph-name="rho" unicode="&#x3c1;" horiz-adv-x="1255" 
d="M422 1434v-1434h-299v1434h299zM483 475v248h170q49 0 90 12.5t76.5 39.5t55.5 76t20 116q0 105 -64 162t-178 57h-170v248h193q110 0 198.5 -26t147 -70t98 -104t57 -126.5t17.5 -140.5q0 -107 -30.5 -195t-91.5 -155t-159.5 -104.5t-226.5 -37.5h-203z" />
    <glyph glyph-name="uni03C2" unicode="&#x3c2;" horiz-adv-x="1296" 
d="M289 1434l569 -717l-631 -717h-145v248l412 469l-369 465v252h164zM369 1434h813v-267h-600zM545 266h669v-266h-905z" />
    <glyph glyph-name="sigma" unicode="&#x3c3;" horiz-adv-x="1296" 
d="M289 1434l569 -717l-631 -717h-145v248l412 469l-369 465v252h164zM369 1434h813v-267h-600zM545 266h669v-266h-905z" />
    <glyph glyph-name="tau" unicode="&#x3c4;" horiz-adv-x="1183" 
d="M803 1167v267h340v-267h-340zM381 1167h-340v267h340v-267zM442 1434h299v-1434h-299v1434z" />
    <glyph glyph-name="upsilon" unicode="&#x3c5;" horiz-adv-x="1368" 
d="M831 336v-336h-296v281q0 163 -45 320.5t-120 281.5t-165 220.5t-187 158.5l197 202q32 -19 78.5 -58.5t105 -103t118 -140t116.5 -173.5t100.5 -198t70.5 -220.5t27 -234.5zM866 569q-16 102 -65 219t-84 179q24 59 61 117.5t69.5 100t83 92.5t76 74t75.5 66t57 49
l209 -196q-161 -106 -293 -288.5t-189 -412.5z" />
    <glyph glyph-name="phi" unicode="&#x3c6;" horiz-adv-x="1609" 
d="M655 -41v1495h299v-1495h-299zM594 420v-281q-86 15 -163.5 46t-145.5 80.5t-117.5 113.5t-78 149.5t-28.5 184.5q0 108 31 199t82 154.5t121 111.5t144 75t155 41v-276q-106 -35 -163.5 -114.5t-57.5 -184.5q0 -112 58 -189t163 -110zM1016 139v285q104 32 163.5 108
t59.5 187q0 109 -58 187t-165 112v276q80 -14 152.5 -40t143.5 -73t122 -109.5t82.5 -154.5t31.5 -202q0 -106 -29.5 -195.5t-79 -153t-118.5 -111t-144.5 -75.5t-160.5 -41z" />
    <glyph glyph-name="chi" unicode="&#x3c7;" horiz-adv-x="1378" 
d="M432 1434l926 -1434h-350l-916 1434h340zM647 451l-278 -451h-349l457 723zM729 1085l215 349h342l-385 -617z" />
    <glyph glyph-name="psi" unicode="&#x3c8;" horiz-adv-x="1568" 
d="M635 0v1434h299v-1434h-299zM573 645v-280q-224 19 -347.5 166t-123.5 407v496h310v-490q0 -58 7.5 -103t25 -85t50 -67.5t78.5 -43.5zM995 365v280q88 28 125 103.5t37 195.5v490h309v-494q0 -266 -123.5 -409.5t-347.5 -165.5z" />
    <glyph glyph-name="omega" unicode="&#x3c9;" horiz-adv-x="1486" 
d="M776 1194v276q62 -2 122 -12.5t125.5 -34.5t122.5 -60t109 -92.5t89 -127.5t59 -170.5t22 -216.5q0 -173 -53.5 -294.5t-169.5 -228.5v-4h223v-229h-579v229q122 59 196 203.5t74 325.5q0 200 -89 311t-251 125zM717 1470l-2 -276q-164 -7 -253 -122.5t-89 -313.5
q0 -177 69 -323.5t187 -205.5v-229h-568v229h230v4q-119 110 -174.5 232.5t-55.5 288.5q0 114 21.5 211.5t58 168.5t88.5 128.5t109.5 95t123.5 62.5t128.5 36.5t126.5 13.5z" />
    <glyph glyph-name="iotadieresis" unicode="&#x3ca;" horiz-adv-x="544" 
d="M422 0h-299v1434h299v-1434zM-57 1536v184h254v-184h-254zM340 1536v184h258v-184h-258z" />
    <glyph glyph-name="upsilondieresis" unicode="&#x3cb;" horiz-adv-x="1368" 
d="M831 336v-336h-296v281q0 163 -45 320.5t-120 281.5t-165 220.5t-187 158.5l197 202q32 -19 78.5 -58.5t105 -103t118 -140t116.5 -173.5t100.5 -198t70.5 -220.5t27 -234.5zM866 569q-16 102 -65 219t-84 179q24 59 61 117.5t69.5 100t83 92.5t76 74t75.5 66t57 49
l209 -196q-161 -106 -293 -288.5t-189 -412.5zM358 1536v184h254v-184h-254zM756 1536v184h258v-184h-258z" />
    <glyph glyph-name="omicrontonos" unicode="&#x3cc;" horiz-adv-x="1486" 
d="M1040 1741l-204 -185h-199l88 185h315zM774 1194v276q88 -4 173 -28t173.5 -80t154.5 -138t108 -213t42 -294q0 -151 -37.5 -276.5t-100.5 -210.5t-148 -145.5t-176.5 -89t-188.5 -32.5v277q66 5 124.5 35.5t108 86.5t78.5 147.5t29 207.5q0 100 -21.5 181.5t-55.5 133.5
t-80 88t-91 53t-92 21zM713 1470v-276q-49 -4 -95 -21.5t-91 -54.5t-78.5 -89t-54.5 -132.5t-21 -179.5q0 -113 28.5 -203.5t77.5 -147t108 -88.5t126 -38v-277q-82 4 -160.5 26t-152 63t-135 104t-107.5 143.5t-71.5 187.5t-25.5 230q0 159 41 288.5t106 212.5t152.5 140.5
t174.5 82.5t178 29z" />
    <glyph glyph-name="upsilontonos" unicode="&#x3cd;" horiz-adv-x="1368" 
d="M979 1720l-205 -184h-199l89 184h315zM831 336v-336h-296v281q0 163 -45 320.5t-120 281.5t-165 220.5t-187 158.5l197 202q32 -19 78.5 -58.5t105 -103t118 -140t116.5 -173.5t100.5 -198t70.5 -220.5t27 -234.5zM866 569q-16 102 -65 219t-84 179q24 59 61 117.5
t69.5 100t83 92.5t76 74t75.5 66t57 49l209 -196q-161 -106 -293 -288.5t-189 -412.5z" />
    <glyph glyph-name="omegatonos" unicode="&#x3ce;" horiz-adv-x="1486" 
d="M1036 1741l-205 -185h-198l88 185h315zM776 1194v276q62 -2 122 -12.5t125.5 -34.5t122.5 -60t109 -92.5t89 -127.5t59 -170.5t22 -216.5q0 -173 -53.5 -294.5t-169.5 -228.5v-4h223v-229h-579v229q122 59 196 203.5t74 325.5q0 200 -89 311t-251 125zM717 1470l-2 -276
q-164 -7 -253 -122.5t-89 -313.5q0 -177 69 -323.5t187 -205.5v-229h-568v229h230v4q-119 110 -174.5 232.5t-55.5 288.5q0 114 21.5 211.5t58 168.5t88.5 128.5t109.5 95t123.5 62.5t128.5 36.5t126.5 13.5z" />
    <glyph glyph-name="uni0400" unicode="&#x400;" horiz-adv-x="1204" 
d="M483 1167v267h613v-267h-613zM483 600v260h580v-260h-580zM483 0v266h639v-266h-639zM422 1434v-1434h-299v1434h299zM553 1536l-262 184h293l168 -184h-199z" />
    <glyph glyph-name="uni0401" unicode="&#x401;" horiz-adv-x="1204" 
d="M483 1167v267h613v-267h-613zM483 600v260h580v-260h-580zM483 0v266h639v-266h-639zM422 1434v-1434h-299v1434h299zM279 1536v184h253v-184h-253zM676 1536v184h258v-184h-258z" />
    <glyph glyph-name="uni0402" unicode="&#x402;" horiz-adv-x="1622" 
d="M711 1176v-1176h-299v1176h-371v258h1092v-258h-422zM772 686v229q162 43 309 43q102 0 179.5 -25.5t126.5 -68t79 -106.5t42 -134t12 -157v-305q0 -130 -18.5 -219t-65.5 -157.5t-132.5 -101t-213.5 -32.5h-195v268h106q53 0 89 8t68 29.5t47.5 65.5t15.5 112v332
q0 246 -213 246q-136 0 -236 -27z" />
    <glyph glyph-name="uni0403" unicode="&#x403;" horiz-adv-x="1103" 
d="M422 1434v-1434h-299v1434h299zM483 1167v267h580v-267h-580zM924 1720l-267 -184h-198l149 184h316z" />
    <glyph glyph-name="uni0404" unicode="&#x404;" horiz-adv-x="1423" 
d="M713 240v-277q-201 7 -350.5 108.5t-225.5 269t-76 376.5q0 159 41 288.5t106 212.5t152.5 140.5t174.5 82.5t178 29v-276q-124 -11 -211.5 -97t-116.5 -237h508v-260h-512q26 -154 111 -252t221 -108zM774 -37v277q113 9 195 82t121 194l282 -133q-27 -62 -62 -117
t-88 -110.5t-116 -95.5t-149 -67t-183 -30zM774 1194v276q400 -15 574 -403l-271 -125q-29 95 -109 168.5t-194 83.5z" />
    <glyph glyph-name="uni0405" unicode="&#x405;" horiz-adv-x="1357" 
d="M715 1210v260q110 -6 205 -35.5t161.5 -75t112 -93t76.5 -101.5l-252 -153q-20 31 -38.5 54.5t-55 57.5t-90.5 56.5t-119 29.5zM653 233v-270q-203 7 -359.5 100t-242.5 244l258 156q18 -28 33.5 -49t48 -54.5t66.5 -56.5t86 -43t110 -27zM715 -37v270q45 0 89.5 9.5
t86.5 28.5t68 53.5t26 78.5q0 138 -205 170l-286 45q-53 9 -103 26t-101.5 49.5t-90 74.5t-62.5 105t-24 137q0 96 32.5 174.5t86 130t124.5 87t145 51.5t152 17v-258q-112 -1 -172.5 -46.5t-60.5 -108.5q0 -127 196 -156l256 -39q196 -29 310 -134.5t114 -291.5
q0 -93 -36 -175.5t-105 -148.5t-182.5 -106t-257.5 -43z" />
    <glyph glyph-name="uni0406" unicode="&#x406;" horiz-adv-x="544" 
d="M422 0h-299v1434h299v-1434z" />
    <glyph glyph-name="uni0407" unicode="&#x407;" horiz-adv-x="544" 
d="M422 0h-299v1434h299v-1434zM0 1536v184h211v-184h-211zM328 1536v184h215v-184h-215z" />
    <glyph glyph-name="uni0408" unicode="&#x408;" horiz-adv-x="638" 
d="M227 0h-186v266h86q63 0 81.5 28t18.5 101v1039h299v-998q0 -68 -1 -101.5t-6.5 -89.5t-16 -83.5t-32 -64.5t-53 -54t-79.5 -30t-111 -13z" />
    <glyph glyph-name="uni0409" unicode="&#x409;" horiz-adv-x="2113" 
d="M741 1434v-263h-174v-305q0 -287 -24.5 -435t-93.5 -245q-64 -90 -161.5 -138t-246.5 -48v266q56 0 95.5 13.5t64.5 56.5t38.5 79.5t20 127.5t7.5 154t1 202v535h473zM805 1171v263h475v-1434h-299v1171h-176zM1341 731v246h224q127 0 223 -38t152.5 -106t84 -155
t27.5 -193q0 -73 -15 -139.5t-52 -130.5t-92.5 -111t-142.5 -75.5t-196 -28.5h-213v266h193q114 0 178 57t64 162q0 129 -69 187.5t-173 58.5h-193z" />
    <glyph glyph-name="uni040A" unicode="&#x40a;" horiz-adv-x="2113" 
d="M670 885v-264h-248v-621h-299v1434h299v-549h248zM731 621v264h250v549h299v-1434h-299v621h-250zM1341 731v246h224q127 0 223 -38t152.5 -106t84 -155t27.5 -193q0 -73 -15 -139.5t-52 -130.5t-92.5 -111t-142.5 -75.5t-196 -28.5h-213v266h193q114 0 178 57t64 162
q0 129 -69 187.5t-173 58.5h-193z" />
    <glyph glyph-name="uni040B" unicode="&#x40b;" horiz-adv-x="1622" 
d="M711 1176v-1176h-299v1176h-371v258h1092v-258h-422zM772 686v229q162 43 309 43q102 0 179.5 -25.5t126.5 -68t79 -106.5t42 -134t12 -157v-467h-299v467q0 246 -213 246q-136 0 -236 -27z" />
    <glyph glyph-name="uni040C" unicode="&#x40c;" horiz-adv-x="1300" 
d="M1233 1434l-514 -648l551 -786h-340l-447 629v272l422 533h328zM422 1434v-1434h-299v1434h299zM977 1720l-266 -184h-199l150 184h315z" />
    <glyph glyph-name="uni040D" unicode="&#x40d;" horiz-adv-x="1402" 
d="M422 1434v-1434h-299v1434h299zM981 1434h299v-1434h-299v1434zM920 838l-437 -736v490l437 737v-491zM631 1536l-262 184h293l167 -184h-198z" />
    <glyph glyph-name="uni040E" unicode="&#x40e;" horiz-adv-x="1312" 
d="M659 817l-157 -352l-482 969h340zM539 393l450 1041h324l-504 -1168q-70 -162 -165.5 -214t-313.5 -52h-166v266h61q164 0 221 21.5t93 105.5zM346 1808h168q4 -38 15.5 -61t33.5 -33t43 -13t58 -3q95 0 127.5 18.5t39.5 91.5h168q-4 -85 -28 -141t-70 -86t-102 -41.5
t-137 -11.5q-78 0 -131 11.5t-95.5 41.5t-64 86t-25.5 141z" />
    <glyph glyph-name="uni040F" unicode="&#x40f;" horiz-adv-x="1382" 
d="M547 -348v348h-424v1434h299v-1168h541v1168h297v-1434h-414v-348h-299z" />
    <glyph glyph-name="uni0410" unicode="&#x410;" horiz-adv-x="1335" 
d="M467 1339l143 -409l-147 -475h315l84 -238h-477l-70 -217h-295zM498 1434h311l506 -1434h-311z" />
    <glyph glyph-name="uni0411" unicode="&#x411;" horiz-adv-x="1255" 
d="M422 0h-299v1434h299v-1434zM483 0v266h193q114 0 178 57t64 162q0 54 -14 94t-35.5 63t-54.5 37t-65 18.5t-73 4.5h-193v242h224q252 0 369.5 -121.5t117.5 -337.5q0 -73 -15 -139.5t-52 -130.5t-92.5 -111t-142.5 -75.5t-196 -28.5h-213zM483 1434h584v-267h-584v267z
" />
    <glyph glyph-name="uni0412" unicode="&#x412;" horiz-adv-x="1316" 
d="M483 0v254h260q89 0 150 53t61 131q0 105 -64.5 150t-164.5 45h-242v233h199q115 0 168 44t53 130q0 144 -178 144h-242v250h283q127 0 225 -41t156.5 -125t58.5 -201q0 -114 -50 -188.5t-138 -110.5v-6q100 -22 168.5 -121.5t68.5 -222.5q0 -193 -129 -305.5
t-352 -112.5h-291zM422 1434v-1434h-299v1434h299z" />
    <glyph glyph-name="uni0413" unicode="&#x413;" horiz-adv-x="1103" 
d="M422 1434v-1434h-299v1434h299zM483 1167v267h580v-267h-580z" />
    <glyph glyph-name="uni0414" unicode="&#x414;" horiz-adv-x="1517" 
d="M739 266v-266h-399v-348h-299v614q55 7 93 24.5t63.5 57t39.5 79.5t21 121.5t8.5 151.5t1.5 199v535h471v-267h-172v-301q0 -415 -69 -600h241zM801 0v266h182v901h-182v267h479v-1168h197v-614h-299v348h-377z" />
    <glyph glyph-name="uni0415" unicode="&#x415;" horiz-adv-x="1204" 
d="M483 1167v267h613v-267h-613zM483 600v260h580v-260h-580zM483 0v266h639v-266h-639zM422 1434v-1434h-299v1434h299z" />
    <glyph glyph-name="uni0416" unicode="&#x416;" horiz-adv-x="2015" 
d="M1968 1434l-514 -648l531 -786h-361l-405 629v272l401 533h348zM1157 1434v-1434h-299v1434h299zM561 786l-514 648h348l402 -533v-272l-406 -629h-360z" />
    <glyph glyph-name="uni0417" unicode="&#x417;" horiz-adv-x="1312" 
d="M627 1470v-235q-67 -5 -114 -26t-74.5 -58.5t-41.5 -77t-24 -96.5l-281 31q92 450 535 462zM688 1237v233q233 -9 379.5 -123t146.5 -282q0 -64 -23 -117.5t-61 -88.5t-78 -57.5t-83 -35.5q40 -10 84.5 -34t91 -64t76.5 -103.5t30 -138.5q0 -103 -44.5 -189
t-121.5 -144.5t-179.5 -92t-217.5 -37.5v246q45 4 87 17.5t81 38t62.5 66t23.5 93.5q0 49 -17 87.5t-46 60.5t-59 37t-66 20.5t-55 7.5t-37 2h-136v217h140q41 0 80.5 9t79 28.5t63.5 58.5t24 92q0 82 -67 134.5t-158 58.5zM627 207v-244q-258 7 -391 127t-175 367l285 35
q9 -52 19 -87t30.5 -74.5t48.5 -63t74.5 -40.5t108.5 -20z" />
    <glyph glyph-name="uni0418" unicode="&#x418;" horiz-adv-x="1402" 
d="M422 1434v-1434h-299v1434h299zM981 1434h299v-1434h-299v1434zM920 838l-437 -736v490l437 737v-491z" />
    <glyph glyph-name="uni0419" unicode="&#x419;" horiz-adv-x="1402" 
d="M422 1434v-1434h-299v1434h299zM981 1434h299v-1434h-299v1434zM920 838l-437 -736v490l437 737v-491zM369 1808h168q4 -38 15 -61t33.5 -33t43 -13t57.5 -3q95 0 128 18.5t40 91.5h168q-4 -85 -28 -141t-70.5 -86t-102.5 -41.5t-137 -11.5q-78 0 -131 11.5t-95 41.5
t-63.5 86t-25.5 141z" />
    <glyph glyph-name="uni041A" unicode="&#x41a;" horiz-adv-x="1300" 
d="M1233 1434l-514 -648l551 -786h-340l-447 629v272l422 533h328zM422 1434v-1434h-299v1434h299z" />
    <glyph glyph-name="uni041B" unicode="&#x41b;" horiz-adv-x="1402" 
d="M741 1434v-267h-174v-301q0 -287 -24.5 -435t-93.5 -245q-64 -90 -161.5 -138t-246.5 -48v266q56 0 95.5 13.5t64.5 56.5t38.5 79.5t20 127.5t7.5 154t1 202v535h473zM805 1167v267h475v-1434h-299v1167h-176z" />
    <glyph glyph-name="uni041C" unicode="&#x41c;" horiz-adv-x="1595" 
d="M123 1264l283 -756v-508h-283v1264zM973 88l-139 373l356 973h283zM406 1434l534 -1434h-281l-536 1434h283zM1190 502l283 762v-1264h-283v502z" />
    <glyph glyph-name="uni041D" unicode="&#x41d;" horiz-adv-x="1402" 
d="M670 885v-264h-248v-621h-299v1434h299v-549h248zM731 621v264h250v549h299v-1434h-299v621h-250z" />
    <glyph glyph-name="uni041E" unicode="&#x41e;" horiz-adv-x="1486" 
d="M774 1194v276q88 -4 173 -28t173.5 -80t154.5 -138t108 -213t42 -294q0 -151 -37.5 -276.5t-100.5 -210.5t-148 -145.5t-176.5 -89t-188.5 -32.5v277q66 5 124.5 35.5t108 86.5t78.5 147.5t29 207.5q0 100 -21.5 181.5t-55.5 133.5t-80 88t-91 53t-92 21zM713 1470v-276
q-49 -4 -95 -21.5t-91 -54.5t-78.5 -89t-54.5 -132.5t-21 -179.5q0 -113 28.5 -203.5t77.5 -147t108 -88.5t126 -38v-277q-82 4 -160.5 26t-152 63t-135 104t-107.5 143.5t-71.5 187.5t-25.5 230q0 159 41 288.5t106 212.5t152.5 140.5t174.5 82.5t178 29z" />
    <glyph glyph-name="uni041F" unicode="&#x41f;" horiz-adv-x="1382" 
d="M659 1434v-267h-237v-1167h-299v1434h536zM723 1167v267h537v-1434h-299v1167h-238z" />
    <glyph glyph-name="uni0420" unicode="&#x420;" horiz-adv-x="1255" 
d="M422 1434v-1434h-299v1434h299zM483 475v248h170q49 0 90 12.5t76.5 39.5t55.5 76t20 116q0 105 -64 162t-178 57h-170v248h193q110 0 198.5 -26t147 -70t98 -104t57 -126.5t17.5 -140.5q0 -107 -30.5 -195t-91.5 -155t-159.5 -104.5t-226.5 -37.5h-203z" />
    <glyph glyph-name="uni0421" unicode="&#x421;" horiz-adv-x="1423" 
d="M774 1194v276q400 -15 574 -403l-271 -125q-29 95 -109 168.5t-194 83.5zM774 -37v277q113 9 195 82t121 194l282 -133q-27 -62 -62 -117t-88 -110.5t-116 -95.5t-149 -67t-183 -30zM713 240v-277q-201 7 -350.5 108.5t-225.5 269t-76 376.5q0 159 41 288.5t106 212.5
t152.5 140.5t174.5 82.5t178 29v-276q-151 -12 -245.5 -137t-94.5 -338q0 -197 89.5 -331.5t250.5 -147.5z" />
    <glyph glyph-name="uni0422" unicode="&#x422;" horiz-adv-x="1183" 
d="M803 1167v267h340v-267h-340zM381 1167h-340v267h340v-267zM442 1434h299v-1434h-299v1434z" />
    <glyph glyph-name="uni0423" unicode="&#x423;" horiz-adv-x="1312" 
d="M659 817l-157 -352l-482 969h340zM539 393l450 1041h324l-504 -1168q-70 -162 -165.5 -214t-313.5 -52h-166v266h61q164 0 221 21.5t93 105.5z" />
    <glyph glyph-name="uni0424" unicode="&#x424;" horiz-adv-x="1609" 
d="M655 -41v1495h299v-1495h-299zM594 420v-281q-86 15 -163.5 46t-145.5 80.5t-117.5 113.5t-78 149.5t-28.5 184.5q0 108 31 199t82 154.5t121 111.5t144 75t155 41v-276q-106 -35 -163.5 -114.5t-57.5 -184.5q0 -112 58 -189t163 -110zM1016 139v285q104 32 163.5 108
t59.5 187q0 109 -58 187t-165 112v276q80 -14 152.5 -40t143.5 -73t122 -109.5t82.5 -154.5t31.5 -202q0 -106 -29.5 -195.5t-79 -153t-118.5 -111t-144.5 -75.5t-160.5 -41z" />
    <glyph glyph-name="uni0425" unicode="&#x425;" horiz-adv-x="1378" 
d="M432 1434l926 -1434h-350l-916 1434h340zM647 451l-278 -451h-349l457 723zM729 1085l215 349h342l-385 -617z" />
    <glyph glyph-name="uni0426" unicode="&#x426;" horiz-adv-x="1497" 
d="M659 266v-266h-536v1434h299v-1168h237zM723 0v266h238v1168h299v-1168h196v-614h-299v348h-434z" />
    <glyph glyph-name="uni0427" unicode="&#x427;" horiz-adv-x="1329" 
d="M846 786v-268q-159 -43 -305 -43q-102 0 -179.5 25.5t-126.5 68.5t-79 107t-42 134t-12 157v467h299v-465q0 -51 7 -89t21.5 -62t31.5 -39t44 -22.5t50.5 -9.5t58.5 -2q84 0 232 41zM907 0v1434h299v-1434h-299z" />
    <glyph glyph-name="uni0428" unicode="&#x428;" horiz-adv-x="1978" 
d="M600 266v-266h-477v1434h299v-1168h178zM1378 0v266h178v1168h299v-1434h-477zM1317 266v-266h-655v266h178v1168h299v-1168h178z" />
    <glyph glyph-name="uni0429" unicode="&#x429;" horiz-adv-x="2091" 
d="M1378 0v266h178v1168h299v-1168h195v-614h-299v348h-373zM1317 266v-266h-655v266h178v1168h299v-1168h178zM600 266v-266h-477v1434h299v-1168h178z" />
    <glyph glyph-name="uni042A" unicode="&#x42a;" horiz-adv-x="1468" 
d="M41 1167v267h594v-1434h-299v1167h-295zM696 731v246h224q127 0 223 -38t152.5 -106t84 -155t27.5 -193q0 -73 -15 -139.5t-52 -130.5t-92.5 -111t-142.5 -75.5t-196 -28.5h-213v266h193q113 0 177 57t64 162q0 129 -68.5 187.5t-172.5 58.5h-193z" />
    <glyph glyph-name="uni042B" unicode="&#x42b;" horiz-adv-x="1759" 
d="M422 0h-299v1434h299v-1434zM483 731v246h224q127 0 223 -38t152.5 -106t84 -155t27.5 -193q0 -73 -15 -139.5t-52 -130.5t-92.5 -111t-142.5 -75.5t-196 -28.5h-213v266h193q114 0 178 57t64 162q0 129 -69 187.5t-173 58.5h-193zM1636 0h-299v1434h299v-1434z" />
    <glyph glyph-name="uni042C" unicode="&#x42c;" horiz-adv-x="1255" 
d="M422 0h-299v1434h299v-1434zM483 731v246h224q127 0 223 -38t152.5 -106t84 -155t27.5 -193q0 -73 -15 -139.5t-52 -130.5t-92.5 -111t-142.5 -75.5t-196 -28.5h-213v266h193q114 0 178 57t64 162q0 129 -69 187.5t-173 58.5h-193z" />
    <glyph glyph-name="uni042D" unicode="&#x42d;" horiz-adv-x="1423" 
d="M711 -37v277q136 10 220.5 107.5t110.5 252.5h-512v260h508q-29 151 -116 237t-211 97v276q91 -4 178 -29t174 -82.5t152.5 -140.5t106 -212.5t40.5 -288.5q0 -156 -44.5 -291.5t-126 -236.5t-205.5 -161t-275 -65zM649 240v-277q-97 3 -183 30t-149 67t-116 95.5
t-88 110.5t-62 117l283 133q39 -122 120.5 -194.5t194.5 -81.5zM649 1470v-276q-114 -10 -194 -83.5t-109 -168.5l-270 125q174 388 573 403z" />
    <glyph glyph-name="uni042E" unicode="&#x42e;" horiz-adv-x="2031" 
d="M422 0h-299v1434h299v-574h192q16 128 64 231.5t112 171t145 114.5t160.5 68t161.5 25v-276q-49 -4 -94.5 -21.5t-91 -54.5t-79 -89t-54 -132.5t-20.5 -179.5q0 -113 28.5 -203.5t77 -147t107.5 -88.5t126 -38v-277q-115 5 -221 46.5t-196 117t-151 197.5t-77 276h-190
v-600zM1319 1194v276q88 -4 173 -28t173.5 -80t154.5 -138t108 -213t42 -294q0 -151 -37.5 -276.5t-100.5 -210.5t-148 -145.5t-176.5 -89t-188.5 -32.5v277q66 5 124.5 35.5t108 86.5t78.5 147.5t29 207.5q0 100 -21.5 181.5t-55.5 133.5t-80 88t-91 53t-92 21z" />
    <glyph glyph-name="uni042F" unicode="&#x42f;" horiz-adv-x="1335" 
d="M616 760h236v-244h-176l-285 -516h-330l312 563q-250 112 -250 420q0 214 130 332.5t355 118.5h244v-252h-236q-84 0 -139 -52.5t-55 -152.5q0 -111 53 -164t141 -53zM913 0v1434h299v-1434h-299z" />
    <glyph glyph-name="uni0430" unicode="&#x430;" horiz-adv-x="1054" 
d="M692 119v629q0 43 -37.5 77.5t-128.5 34.5q-84 0 -122.5 -36.5t-43.5 -110.5h-251q12 364 409 364q131 0 219 -24t135 -73t65.5 -110t18.5 -149v-569q0 -78 37 -152h-286q-15 75 -15 119zM631 258v-221q-81 -47 -207 -47q-164 0 -263.5 83.5t-99.5 254.5q0 51 13 93
t34 72.5t54.5 54.5t67.5 39.5t79.5 28t84 19t87.5 12.5l150 19v-201l-150 -23q-76 -12 -109.5 -42t-33.5 -83q0 -50 35 -83t106 -33q92 0 152 57z" />
    <glyph glyph-name="uni0431" unicode="&#x431;" horiz-adv-x="1167" 
d="M416 649v256q92 56 231 56q197 0 328 -134t131 -350q0 -128 -61 -240.5t-171.5 -183.5t-246.5 -78v238q82 12 139 86.5t57 173.5q0 105 -64 182.5t-167 77.5q-108 0 -176 -84zM61 631q0 389 224 573q70 58 165.5 100t173 60.5t158.5 41t119 44.5l105 -221
q-38 -21 -97.5 -37t-117.5 -26.5t-122 -24.5t-118 -36.5t-98.5 -56t-69.5 -90t-25 -131.5v-264q0 -97 17 -166t48.5 -106.5t65.5 -55t78 -22.5v-238q-232 8 -369 175.5t-137 480.5z" />
    <glyph glyph-name="uni0432" unicode="&#x432;" horiz-adv-x="1036" 
d="M438 1057h154q154 0 251 -74t97 -207q0 -66 -31.5 -121t-79.5 -90q63 -32 104.5 -102.5t41.5 -147.5q0 -146 -101 -230.5t-276 -84.5h-160v221h140q51 0 85.5 32t34.5 79q0 63 -38 90t-97 27h-125v206h97q129 0 129 101q0 82 -101 82h-125v219zM377 1057v-1057h-275v1057
h275z" />
    <glyph glyph-name="uni0433" unicode="&#x433;" horiz-adv-x="878" 
d="M377 1057v-1057h-275v1057h275zM438 827v230h400v-230h-400z" />
    <glyph glyph-name="uni0434" unicode="&#x434;" horiz-adv-x="1173" 
d="M563 1057v-230h-86v-192q0 -150 -11 -243.5t-44 -162.5h141v-229h-250v-246h-272v475q26 3 46.5 10.5t37 17t28 27t20 34t14 46t9 54.5t5 68t2 78t0.5 93v400h360zM625 827v230h366v-828h142v-475h-275v246h-233v229h92v598h-92z" />
    <glyph glyph-name="uni0435" unicode="&#x435;" horiz-adv-x="1114" 
d="M600 -25v236q49 3 86.5 16t62.5 37t41 47t33 58l226 -133q-151 -249 -449 -261zM410 662h344q-3 26 -12 50.5t-25.5 52t-46.5 48.5t-70 29v235q235 -14 358 -217q95 -159 95 -397h-654q-4 25 -4 80q0 67 15 119zM334 543q0 -291 205 -332v-236q-59 5 -120 23.5t-126.5 60
t-116 100t-83 149t-32.5 200.5q0 121 29.5 218.5t77 160t111.5 105.5t128 62t132 23v-235q-56 -2 -97.5 -27.5t-64 -68.5t-33 -93.5t-10.5 -109.5z" />
    <glyph glyph-name="uni0436" unicode="&#x436;" horiz-adv-x="1736" 
d="M1006 1057v-1057h-275v1057h275zM1067 666l293 391h313l-383 -484l416 -573h-313l-326 463v203zM377 1057l293 -391v-203l-326 -463h-313l415 573l-383 484h314z" />
    <glyph glyph-name="uni0437" unicode="&#x437;" horiz-adv-x="1040" 
d="M494 1081v-209q-72 -10 -105 -56.5t-45 -125.5l-260 25q70 351 410 366zM555 -25v215q58 7 100.5 40t42.5 92q0 35 -15.5 61.5t-36 39t-48 20t-43 9t-29.5 1.5h-127v196h131q56 0 102 26t46 85q0 46 -36.5 75.5t-86.5 36.5v209q178 -7 288.5 -93.5t110.5 -213.5
q0 -138 -139 -211q67 -33 115.5 -94.5t48.5 -146.5q0 -152 -121.5 -245.5t-302.5 -101.5zM494 190v-215q-197 7 -298.5 100t-134.5 285l265 35q8 -46 17 -76t27 -61t49 -47.5t75 -20.5z" />
    <glyph glyph-name="uni0438" unicode="&#x438;" horiz-adv-x="1095" 
d="M377 0h-275v1057h275v-1057zM719 1057h274v-1057h-274v1057zM657 948v-450l-219 -389v450z" />
    <glyph glyph-name="uni0439" unicode="&#x439;" horiz-adv-x="1095" 
d="M377 0h-275v1057h275v-1057zM719 1057h274v-1057h-274v1057zM657 948v-450l-219 -389v450zM221 1462h164q19 -121 164 -121q68 0 107 25t55 96h163q-15 -155 -93.5 -218.5t-231.5 -63.5q-159 0 -237.5 67.5t-90.5 214.5z" />
    <glyph glyph-name="uni043A" unicode="&#x43a;" horiz-adv-x="1128" 
d="M377 1057v-1057h-275v1057h275zM438 666l314 391h313l-403 -484l436 -573h-314l-346 463v203z" />
    <glyph glyph-name="uni043B" unicode="&#x43b;" horiz-adv-x="1093" 
d="M563 1057v-230h-86v-192q0 -145 -11.5 -244.5t-40 -178t-78.5 -123t-124.5 -67t-181.5 -22.5v227q26 3 47 10.5t37 17t28 27.5t20.5 34t14 46.5t8.5 54.5t4.5 68.5t2 78.5t0.5 93v400h360zM625 827v230h366v-1057h-274v827h-92z" />
    <glyph glyph-name="uni043C" unicode="&#x43c;" horiz-adv-x="1296" 
d="M102 897l254 -623v-274h-254v897zM782 0h-247l-433 1057h250zM688 393l256 664h250l-379 -973zM940 227l254 660v-887h-254v227z" />
    <glyph glyph-name="uni043D" unicode="&#x43d;" horiz-adv-x="1095" 
d="M516 668v-230h-139v-438h-275v1057h275v-389h139zM580 438v230h139v389h274v-1057h-274v438h-139z" />
    <glyph glyph-name="uni043E" unicode="&#x43e;" horiz-adv-x="1169" 
d="M559 211v-236q-232 12 -365 163.5t-133 387.5q0 110 33 207t94 172t157 121t214 51v-235q-112 -10 -165.5 -94.5t-53.5 -221.5q0 -132 53 -218t166 -97zM621 -25v236q106 12 157 96t51 219q0 142 -55.5 223.5t-152.5 92.5v235q148 -7 259.5 -81t169.5 -196t58 -274
q0 -127 -39.5 -230.5t-107.5 -170.5t-154.5 -105t-185.5 -45z" />
    <glyph glyph-name="uni043F" unicode="&#x43f;" horiz-adv-x="1081" 
d="M510 1057v-230h-133v-827h-275v1057h408zM571 827v230h408v-1057h-274v827h-134z" />
    <glyph glyph-name="uni0440" unicode="&#x440;" horiz-adv-x="1150" 
d="M377 1057v-1350h-275v1350h275zM438 780v242q85 55 209 55q202 0 322.5 -143.5t120.5 -398.5q0 -113 -25 -204.5t-67.5 -153.5t-101 -104t-122.5 -60.5t-135 -18.5q-110 0 -201 51v252q54 -61 146 -61q102 0 165.5 75t63.5 226t-62 230t-163 79q-94 0 -150 -66z" />
    <glyph glyph-name="uni0441" unicode="&#x441;" horiz-adv-x="1097" 
d="M621 842v235q144 -7 245 -85.5t162 -203.5l-217 -118q-55 154 -190 172zM621 -25v236q76 8 123 54.5t81 123.5l222 -129q-158 -270 -426 -285zM559 211v-236q-232 12 -365 158.5t-133 392.5q0 110 33 207t94 172t157 121t214 51v-235q-112 -10 -165.5 -94.5t-53.5 -221.5
q0 -131 53.5 -217.5t165.5 -97.5z" />
    <glyph glyph-name="uni0442" unicode="&#x442;" horiz-adv-x="935" 
d="M895 831h-289v-831h-276v831h-289v226h854v-226z" />
    <glyph glyph-name="uni0443" unicode="&#x443;" horiz-adv-x="970" 
d="M369 23l315 1034h277l-367 -1147q-14 -41 -25.5 -67.5t-33.5 -55t-50.5 -44t-73.5 -26t-106 -10.5h-166v242h123q42 0 69 15.5t38 58.5zM457 549l-127 -416l-320 924h281z" />
    <glyph glyph-name="uni0444" unicode="&#x444;" horiz-adv-x="1454" 
d="M528 215v-238q-73 7 -139 30.5t-127 68.5t-105 107.5t-70 154t-26 201.5q0 120 40.5 221.5t107 167.5t149 104t170.5 43v-237q-87 -16 -137.5 -91.5t-50.5 -211.5q0 -83 17 -145t46.5 -97t60 -53t64.5 -25zM590 -293v1727h274v-1727h-274zM926 -23v238q34 7 64.5 25
t60 53t46.5 97t17 145q0 136 -50.5 211.5t-137.5 91.5v237q88 -5 170.5 -43t149 -104t107 -167.5t40.5 -221.5q0 -110 -26 -201.5t-70 -154t-105 -107.5t-127 -68.5t-139 -30.5z" />
    <glyph glyph-name="uni0445" unicode="&#x445;" horiz-adv-x="1073" 
d="M375 1057l684 -1057h-305l-693 1057h314zM338 522l154 -233l-175 -289h-303zM584 846l123 211h305l-277 -447z" />
    <glyph glyph-name="uni0446" unicode="&#x446;" horiz-adv-x="1161" 
d="M508 229v-229h-406v1057h275v-828h131zM573 0v229h134v828h272v-828h141v-475h-272v246h-275z" />
    <glyph glyph-name="uni0447" unicode="&#x447;" horiz-adv-x="1048" 
d="M676 0v1057h270v-1057h-270zM614 561v-207q-88 -18 -176 -18q-100 0 -170 28t-107 80.5t-53 115.5t-16 145v352h275v-352q0 -152 122 -152q70 0 125 8z" />
    <glyph glyph-name="uni0448" unicode="&#x448;" horiz-adv-x="1513" 
d="M467 229v-229h-365v1057h275v-828h90zM1047 0v229h90v828h274v-1057h-364zM985 229v-229h-457v229h90v828h277v-828h90z" />
    <glyph glyph-name="uni0449" unicode="&#x449;" horiz-adv-x="1589" 
d="M1047 0v229h90v828h274v-828h143v-475h-276v246h-231zM985 229v-229h-457v229h90v828h277v-828h90zM467 229v-229h-365v1057h275v-828h90z" />
    <glyph glyph-name="uni044A" unicode="&#x44a;" horiz-adv-x="1144" 
d="M41 827v230h487v-1057h-274v827h-213zM590 217h92q68 0 105.5 35t37.5 100q0 80 -41 116t-102 36h-92v213h115q99 0 173.5 -28t118 -78t65 -115t21.5 -144q0 -69 -20 -129t-63 -111.5t-121 -81.5t-183 -30h-106v217z" />
    <glyph glyph-name="uni044B" unicode="&#x44b;" horiz-adv-x="1388" 
d="M1286 0h-272v1057h272v-1057zM438 217h92q68 0 106 35t38 100q0 80 -41.5 116t-102.5 36h-92v213h115q99 0 173.5 -28t118.5 -78t65.5 -115t21.5 -144q0 -69 -20 -129t-63 -111.5t-121 -81.5t-183 -30h-107v217zM377 0h-275v1057h275v-1057z" />
    <glyph glyph-name="uni044C" unicode="&#x44c;" horiz-adv-x="993" 
d="M438 217h92q68 0 106 35t38 100q0 80 -41.5 116t-102.5 36h-92v213h115q99 0 173.5 -28t118.5 -78t65.5 -115t21.5 -144q0 -69 -20 -129t-63 -111.5t-121 -81.5t-183 -30h-107v217zM377 0h-275v1057h275v-1057z" />
    <glyph glyph-name="uni044D" unicode="&#x44d;" horiz-adv-x="1097" 
d="M539 -25v236q88 9 140.5 65.5t70.5 147.5h-330v227h325q-45 177 -206 191v235q118 -5 213.5 -51t157 -121t94 -172t32.5 -207q0 -246 -132.5 -392.5t-364.5 -158.5zM477 211v-236q-268 15 -426 285l221 129q34 -77 81.5 -123.5t123.5 -54.5zM477 1077v-235
q-135 -18 -190 -172l-217 118q61 125 162 203.5t245 85.5z" />
    <glyph glyph-name="uni044E" unicode="&#x44e;" horiz-adv-x="1558" 
d="M377 0h-275v1057h275v-406h84q34 182 160.5 299.5t326.5 126.5v-235q-112 -10 -165.5 -94.5t-53.5 -221.5q0 -132 53 -218t166 -97v-236q-206 10 -334.5 131.5t-156.5 317.5h-80v-424zM1010 -25v236q106 12 157.5 96.5t51.5 218.5q0 142 -56 223.5t-153 92.5v235
q148 -7 259.5 -81t169.5 -196t58 -274q0 -127 -39.5 -230.5t-107.5 -170.5t-154.5 -105t-185.5 -45z" />
    <glyph glyph-name="uni044F" unicode="&#x44f;" horiz-adv-x="1050" 
d="M614 580v-215h-116l-170 -365h-297l227 416q-172 79 -172 301q0 163 98.5 251.5t274.5 88.5h155v-221h-131q-56 0 -93.5 -32t-37.5 -91q0 -66 38 -99.5t95 -33.5h129zM676 0v1057h272v-1057h-272z" />
    <glyph glyph-name="uni0450" unicode="&#x450;" horiz-adv-x="1114" 
d="M600 -25v236q49 3 86.5 16t62.5 37t41 47t33 58l226 -133q-151 -249 -449 -261zM410 662h344q-3 26 -12 50.5t-25.5 52t-46.5 48.5t-70 29v235q235 -14 358 -217q95 -159 95 -397h-654q-4 25 -4 80q0 67 15 119zM334 543q0 -291 205 -332v-236q-59 5 -120 23.5t-126.5 60
t-116 100t-83 149t-32.5 200.5q0 121 29.5 218.5t77 160t111.5 105.5t128 62t132 23v-235q-56 -2 -97.5 -27.5t-64 -68.5t-33 -93.5t-10.5 -109.5zM479 1180l-303 274h313l189 -274h-199z" />
    <glyph glyph-name="uni0451" unicode="&#x451;" horiz-adv-x="1114" 
d="M600 -25v236q49 3 86.5 16t62.5 37t41 47t33 58l226 -133q-151 -249 -449 -261zM410 662h344q-3 26 -12 50.5t-25.5 52t-46.5 48.5t-70 29v235q235 -14 358 -217q95 -159 95 -397h-654q-4 25 -4 80q0 67 15 119zM334 543q0 -291 205 -332v-236q-59 5 -120 23.5t-126.5 60
t-116 100t-83 149t-32.5 200.5q0 121 29.5 218.5t77 160t111.5 105.5t128 62t132 23v-235q-56 -2 -97.5 -27.5t-64 -68.5t-33 -93.5t-10.5 -109.5zM227 1180v254h254v-254h-254zM625 1180v254h258v-254h-258z" />
    <glyph glyph-name="uni0452" unicode="&#x452;" horiz-adv-x="1138" 
d="M397 1434v-86h297v-189h-297v-1159h-274v1159h-123v189h123v86h274zM459 774v238q88 65 203 65q190 0 275 -98t85 -305v-744q0 -69 -16 -119.5t-42.5 -80.5t-66.5 -48t-80 -24t-92 -6q-56 0 -156 8v236h103q42 0 59 33.5t17 115.5v588q0 46 -2 73.5t-9.5 57t-22.5 45
t-41 25.5t-65 10q-89 0 -149 -70z" />
    <glyph glyph-name="uni0453" unicode="&#x453;" horiz-adv-x="878" 
d="M377 1057v-1057h-275v1057h275zM438 827v230h400v-230h-400zM862 1454l-307 -274h-199l191 274h315z" />
    <glyph glyph-name="uni0454" unicode="&#x454;" horiz-adv-x="1097" 
d="M559 211v-236q-232 12 -365 158.5t-133 392.5q0 110 33 207t94 172t157 121t214 51v-235q-162 -14 -207 -191h326v-227h-330q18 -91 70.5 -147.5t140.5 -65.5zM621 -25v236q76 8 123 54.5t81 123.5l222 -129q-158 -270 -426 -285zM621 842v235q144 -7 245 -85.5
t162 -203.5l-217 -118q-55 154 -190 172z" />
    <glyph glyph-name="uni0455" unicode="&#x455;" horiz-adv-x="1064" 
d="M565 -27v232q73 5 116.5 34t43.5 74q0 16 -7.5 29t-24.5 22.5t-36 16.5t-51 14t-59.5 12t-72.5 13.5t-79 15.5q-151 31 -221 104t-70 199q0 151 112 240t288 98v-225q-60 -4 -91.5 -28t-31.5 -64q0 -20 12.5 -35t37.5 -25t52 -16t66 -12l145 -25q156 -27 233 -107
t77 -192q0 -170 -118 -268t-321 -107zM504 205v-232q-283 6 -463 195l201 168q47 -52 117 -88t145 -43zM565 852v225q246 -8 410 -180l-170 -168q-101 112 -240 123z" />
    <glyph glyph-name="uni0456" unicode="&#x456;" horiz-adv-x="479" 
d="M377 1180h-275v254h275v-254zM377 0h-275v1057h275v-1057z" />
    <glyph glyph-name="uni0457" unicode="&#x457;" horiz-adv-x="479" 
d="M377 0h-275v1057h275v-1057zM-88 1180v254h254v-254h-254zM309 1180v254h258v-254h-258z" />
    <glyph glyph-name="uni0458" unicode="&#x458;" horiz-adv-x="495" 
d="M397 1180h-274v254h274v-254zM397 1057v-1067q0 -69 -16 -119.5t-42.5 -80.5t-66.5 -48.5t-80 -24.5t-92 -6q-55 0 -155 8v236h102q42 0 59 33.5t17 115.5v953h274z" />
    <glyph glyph-name="uni0459" unicode="&#x459;" horiz-adv-x="1605" 
d="M563 1057v-230h-86v-192q0 -145 -11.5 -244.5t-40 -178t-78.5 -123t-124.5 -67t-181.5 -22.5v227q26 3 47 10.5t37 17t28 27.5t20.5 34t14 46.5t8.5 54.5t4.5 68.5t2 78.5t0.5 93v400h360zM625 827v230h366v-1057h-274v827h-92zM1053 217h92q68 0 105.5 35t37.5 100
q0 80 -41 116t-102 36h-92v213h114q99 0 173.5 -28t118.5 -78t65.5 -115t21.5 -144q0 -69 -20 -129t-63 -111.5t-121 -81.5t-183 -30h-106v217z" />
    <glyph glyph-name="uni045A" unicode="&#x45a;" horiz-adv-x="1609" 
d="M516 668v-230h-139v-438h-275v1057h275v-389h139zM580 438v230h139v389h274v-1057h-274v438h-139zM1055 217h92q68 0 105.5 35t37.5 100q0 80 -41 116t-102 36h-92v213h114q99 0 173.5 -28t118.5 -78t65.5 -115t21.5 -144q0 -69 -20 -129t-63 -111.5t-121 -81.5t-183 -30
h-106v217z" />
    <glyph glyph-name="uni045B" unicode="&#x45b;" horiz-adv-x="1138" 
d="M397 1434v-86h297v-189h-297v-1159h-274v1159h-123v189h123v86h274zM459 774v238q88 65 203 65q190 0 275 -98t85 -305v-674h-274v633q0 46 -2 73.5t-9.5 57t-22.5 45t-41 25.5t-65 10q-89 0 -149 -70z" />
    <glyph glyph-name="uni045C" unicode="&#x45c;" horiz-adv-x="1128" 
d="M377 1057v-1057h-275v1057h275zM438 666l314 391h313l-403 -484l436 -573h-314l-346 463v203zM936 1454l-307 -274h-199l191 274h315z" />
    <glyph glyph-name="uni045D" unicode="&#x45d;" horiz-adv-x="1095" 
d="M377 0h-275v1057h275v-1057zM719 1057h274v-1057h-274v1057zM657 948v-450l-219 -389v450zM457 1180l-303 274h313l188 -274h-198z" />
    <glyph glyph-name="uni045E" unicode="&#x45e;" horiz-adv-x="970" 
d="M369 23l315 1034h277l-367 -1147q-14 -41 -25.5 -67.5t-33.5 -55t-50.5 -44t-73.5 -26t-106 -10.5h-166v242h123q42 0 69 15.5t38 58.5zM457 549l-127 -416l-320 924h281zM154 1462h163q19 -121 164 -121q68 0 107 25t55 96h164q-15 -155 -93.5 -218.5t-232.5 -63.5
q-159 0 -237 67.5t-90 214.5z" />
    <glyph glyph-name="uni045F" unicode="&#x45f;" horiz-adv-x="1079" 
d="M406 -246v246h-304v1057h273v-828h330v828h272v-1057h-295v-246h-276z" />
    <glyph glyph-name="uni0490" unicode="&#x490;" horiz-adv-x="1103" 
d="M422 1434v-1434h-299v1434h299zM483 1167v267h285v204h295v-471h-580z" />
    <glyph glyph-name="uni0491" unicode="&#x491;" horiz-adv-x="878" 
d="M438 1057h125v237h275v-467h-400v230zM377 1057v-1057h-275v1057h275z" />
    <glyph glyph-name="uni04C1" unicode="&#x4c1;" horiz-adv-x="2015" 
d="M1968 1434l-514 -648l531 -786h-361l-405 629v272l401 533h348zM1157 1434v-1434h-299v1434h299zM561 786l-514 648h348l402 -533v-272l-406 -629h-360zM682 1808h168q4 -38 15 -61t33.5 -33t43 -13t57.5 -3q95 0 128 18.5t40 91.5h168q-4 -85 -28 -141t-70.5 -86
t-102.5 -41.5t-137 -11.5q-78 0 -131 11.5t-95 41.5t-63.5 86t-25.5 141z" />
    <glyph glyph-name="uni04C2" unicode="&#x4c2;" horiz-adv-x="1736" 
d="M1006 1057v-1057h-275v1057h275zM1067 666l293 391h313l-383 -484l416 -573h-313l-326 463v203zM377 1057l293 -391v-203l-326 -463h-313l415 573l-383 484h314zM543 1462h164q19 -121 163 -121q68 0 107 25t55 96h164q-15 -155 -93.5 -218.5t-232.5 -63.5
q-159 0 -237 67.5t-90 214.5z" />
    <glyph glyph-name="uni04D0" unicode="&#x4d0;" horiz-adv-x="1335" 
d="M467 1339l143 -409l-147 -475h315l84 -238h-477l-70 -217h-295zM498 1434h311l506 -1434h-311zM340 1808h168q4 -38 15 -61t33.5 -33t43 -13t57.5 -3q95 0 128 18.5t40 91.5h168q-4 -85 -28 -141t-70.5 -86t-102.5 -41.5t-137 -11.5q-78 0 -131 11.5t-95 41.5t-63.5 86
t-25.5 141z" />
    <glyph glyph-name="uni04D1" unicode="&#x4d1;" horiz-adv-x="1054" 
d="M692 119v629q0 43 -37.5 77.5t-128.5 34.5q-84 0 -122.5 -36.5t-43.5 -110.5h-251q12 364 409 364q131 0 219 -24t135 -73t65.5 -110t18.5 -149v-569q0 -78 37 -152h-286q-15 75 -15 119zM631 258v-221q-81 -47 -207 -47q-164 0 -263.5 83.5t-99.5 254.5q0 51 13 93
t34 72.5t54.5 54.5t67.5 39.5t79.5 28t84 19t87.5 12.5l150 19v-201l-150 -23q-76 -12 -109.5 -42t-33.5 -83q0 -50 35 -83t106 -33q92 0 152 57zM207 1462h164q19 -121 164 -121q68 0 106.5 25t54.5 96h164q-15 -155 -93.5 -218.5t-231.5 -63.5q-159 0 -237.5 67.5
t-90.5 214.5z" />
    <glyph glyph-name="uni04D2" unicode="&#x4d2;" horiz-adv-x="1335" 
d="M467 1339l143 -409l-147 -475h315l84 -238h-477l-70 -217h-295zM498 1434h311l506 -1434h-311zM340 1536v184h254v-184h-254zM737 1536v184h258v-184h-258z" />
    <glyph glyph-name="uni04D3" unicode="&#x4d3;" horiz-adv-x="1067" 
d="M692 119v629q0 43 -37.5 77.5t-128.5 34.5q-84 0 -122.5 -36.5t-43.5 -110.5h-251q12 364 409 364q131 0 219 -24t135 -73t65.5 -110t18.5 -149v-569q0 -78 37 -152h-286q-15 75 -15 119zM631 258v-221q-81 -47 -207 -47q-164 0 -263.5 83.5t-99.5 254.5q0 51 13 93
t34 72.5t54.5 54.5t67.5 39.5t79.5 28t84 19t87.5 12.5l150 19v-201l-150 -23q-76 -12 -109.5 -42t-33.5 -83q0 -50 35 -83t106 -33q92 0 152 57zM205 1180v254h254v-254h-254zM602 1180v254h258v-254h-258z" />
    <glyph glyph-name="uni04D4" unicode="&#x4d4;" horiz-adv-x="1912" 
d="M1176 1167l-43 267h702v-267h-659zM1266 600l-43 260h579v-260h-536zM1360 0l-43 266h606v-266h-563zM1071 1434l227 -1434h-299l-227 1434h299zM723 1339l63 -409l-239 -475h315l39 -238h-477l-113 -217h-291z" />
    <glyph glyph-name="uni04D5" unicode="&#x4d5;" horiz-adv-x="1732" 
d="M692 76v672q0 43 -37.5 77.5t-128.5 34.5q-84 0 -122.5 -36.5t-43.5 -110.5h-251q12 364 409 364q255 0 356 -119q120 109 283 119v-235q-56 -2 -97.5 -27.5t-64 -68.5t-33 -93.5t-10.5 -109.5v-23q8 -270 205 -309v-236q-101 9 -202 59.5t-167 147.5q-77 -95 -96 -106z
M631 258v-221q-81 -47 -207 -47q-164 0 -263.5 83.5t-99.5 254.5q0 51 13 93t34 72.5t54.5 54.5t67.5 39.5t79.5 28t84 19t87.5 12.5l150 19v-201l-150 -23q-76 -12 -109.5 -42t-33.5 -83q0 -50 35 -83t106 -33q92 0 152 57zM1028 662h344q-4 26 -12 50.5t-24.5 52.5
t-46.5 48.5t-70 28.5v235q235 -14 358 -217q94 -157 94 -397h-653q-4 25 -4 80q0 70 14 119zM1219 -25v236q49 3 86.5 16t62.5 37t41 47t33 58l225 -133q-151 -249 -448 -261z" />
    <glyph glyph-name="uni04D6" unicode="&#x4d6;" horiz-adv-x="1204" 
d="M483 1167v267h613v-267h-613zM483 600v260h580v-260h-580zM483 0v266h639v-266h-639zM422 1434v-1434h-299v1434h299zM287 1808h168q4 -38 15 -61t33.5 -33t43 -13t57.5 -3q95 0 128 18.5t40 91.5h168q-4 -85 -28 -141t-70.5 -86t-102.5 -41.5t-137 -11.5
q-78 0 -131 11.5t-95 41.5t-63.5 86t-25.5 141z" />
    <glyph glyph-name="uni04D7" unicode="&#x4d7;" horiz-adv-x="1114" 
d="M600 -25v236q49 3 86.5 16t62.5 37t41 47t33 58l226 -133q-151 -249 -449 -261zM410 662h344q-3 26 -12 50.5t-25.5 52t-46.5 48.5t-70 29v235q235 -14 358 -217q95 -159 95 -397h-654q-4 25 -4 80q0 67 15 119zM334 543q0 -291 205 -332v-236q-59 5 -120 23.5t-126.5 60
t-116 100t-83 149t-32.5 200.5q0 121 29.5 218.5t77 160t111.5 105.5t128 62t132 23v-235q-56 -2 -97.5 -27.5t-64 -68.5t-33 -93.5t-10.5 -109.5zM238 1462h163q19 -121 164 -121q68 0 107 25t55 96h164q-15 -155 -93.5 -218.5t-232.5 -63.5q-159 0 -237 67.5t-90 214.5z
" />
    <glyph glyph-name="uni04D9" unicode="&#x4d9;" horiz-adv-x="1114" 
d="M514 1077v-235q-49 -3 -86.5 -16t-62.5 -37t-41 -47t-33 -58l-225 133q150 248 448 260zM705 391h-345q3 -26 12 -50.5t25.5 -52t46.5 -48.5t70 -29v-236q-120 7 -210.5 65t-147.5 153q-95 159 -95 397h654q4 -25 4 -80q0 -70 -14 -119zM780 510q0 291 -205 332v235
q59 -5 120 -23.5t126.5 -60t116 -99.5t83 -148.5t32.5 -200.5q0 -121 -29.5 -219t-77 -160.5t-111.5 -105.5t-128 -62t-132 -23v236q56 2 97.5 27.5t64 68.5t33 93.5t10.5 109.5z" />
    <glyph glyph-name="uni04DB" unicode="&#x4db;" horiz-adv-x="1114" 
d="M229 1180v254h254v-254h-254zM627 1180v254h258v-254h-258zM514 1077v-235q-49 -3 -86.5 -16t-62.5 -37t-41 -47t-33 -58l-225 133q150 248 448 260zM705 391h-345q3 -26 12 -50.5t25.5 -52t46.5 -48.5t70 -29v-236q-120 7 -210.5 65t-147.5 153q-95 159 -95 397h654
q4 -25 4 -80q0 -70 -14 -119zM780 510q0 291 -205 332v235q59 -5 120 -23.5t126.5 -60t116 -99.5t83 -148.5t32.5 -200.5q0 -121 -29.5 -219t-77 -160.5t-111.5 -105.5t-128 -62t-132 -23v236q56 2 97.5 27.5t64 68.5t33 93.5t10.5 109.5z" />
    <glyph glyph-name="uni04DC" unicode="&#x4dc;" horiz-adv-x="2015" 
d="M1968 1434l-514 -648l531 -786h-361l-405 629v272l401 533h348zM1157 1434v-1434h-299v1434h299zM561 786l-514 648h348l402 -533v-272l-406 -629h-360zM680 1536v184h254v-184h-254zM1077 1536v184h258v-184h-258z" />
    <glyph glyph-name="uni04DD" unicode="&#x4dd;" horiz-adv-x="1785" 
d="M1006 1057v-1057h-275v1057h275zM1067 666l293 391h313l-383 -484l416 -573h-313l-326 463v203zM377 1057l293 -391v-203l-326 -463h-313l415 573l-383 484h314zM561 1180v254h254v-254h-254zM958 1180v254h259v-254h-259z" />
    <glyph glyph-name="uni04DE" unicode="&#x4de;" horiz-adv-x="1312" 
d="M627 1470v-235q-67 -5 -114 -26t-74.5 -58.5t-41.5 -77t-24 -96.5l-281 31q92 450 535 462zM688 1237v233q233 -9 379.5 -123t146.5 -282q0 -64 -23 -117.5t-61 -88.5t-78 -57.5t-83 -35.5q40 -10 84.5 -34t91 -64t76.5 -103.5t30 -138.5q0 -103 -44.5 -189
t-121.5 -144.5t-179.5 -92t-217.5 -37.5v246q45 4 87 17.5t81 38t62.5 66t23.5 93.5q0 49 -17 87.5t-46 60.5t-59 37t-66 20.5t-55 7.5t-37 2h-136v217h140q41 0 80.5 9t79 28.5t63.5 58.5t24 92q0 82 -67 134.5t-158 58.5zM627 207v-244q-258 7 -391 127t-175 367l285 35
q9 -52 19 -87t30.5 -74.5t48.5 -63t74.5 -40.5t108.5 -20zM328 1536v184h254v-184h-254zM725 1536v184h258v-184h-258z" />
    <glyph glyph-name="uni04DF" unicode="&#x4df;" horiz-adv-x="1040" 
d="M494 1081v-209q-72 -10 -105 -56.5t-45 -125.5l-260 25q70 351 410 366zM555 -25v215q58 7 100.5 40t42.5 92q0 35 -15.5 61.5t-36 39t-48 20t-43 9t-29.5 1.5h-127v196h131q56 0 102 26t46 85q0 46 -36.5 75.5t-86.5 36.5v209q178 -7 288.5 -93.5t110.5 -213.5
q0 -138 -139 -211q67 -33 115.5 -94.5t48.5 -146.5q0 -152 -121.5 -245.5t-302.5 -101.5zM494 190v-215q-197 7 -298.5 100t-134.5 285l265 35q8 -46 17 -76t27 -61t49 -47.5t75 -20.5zM193 1180v254h253v-254h-253zM590 1180v254h258v-254h-258z" />
    <glyph glyph-name="uni04E2" unicode="&#x4e2;" horiz-adv-x="1402" 
d="M422 1434v-1434h-299v1434h299zM981 1434h299v-1434h-299v1434zM920 838l-437 -736v490l437 737v-491zM399 1554v166h605v-166h-605z" />
    <glyph glyph-name="uni04E3" unicode="&#x4e3;" horiz-adv-x="1095" 
d="M377 0h-275v1057h275v-1057zM719 1057h274v-1057h-274v1057zM657 948v-450l-219 -389v450zM246 1233v174h604v-174h-604z" />
    <glyph glyph-name="uni04E4" unicode="&#x4e4;" horiz-adv-x="1402" 
d="M422 1434v-1434h-299v1434h299zM981 1434h299v-1434h-299v1434zM920 838l-437 -736v490l437 737v-491zM373 1536v184h254v-184h-254zM770 1536v184h258v-184h-258z" />
    <glyph glyph-name="uni04E5" unicode="&#x4e5;" horiz-adv-x="1095" 
d="M377 0h-275v1057h275v-1057zM719 1057h274v-1057h-274v1057zM657 948v-450l-219 -389v450zM219 1180v254h254v-254h-254zM616 1180v254h258v-254h-258z" />
    <glyph glyph-name="uni04E6" unicode="&#x4e6;" horiz-adv-x="1486" 
d="M774 1194v276q88 -4 173 -28t173.5 -80t154.5 -138t108 -213t42 -294q0 -151 -37.5 -276.5t-100.5 -210.5t-148 -145.5t-176.5 -89t-188.5 -32.5v277q66 5 124.5 35.5t108 86.5t78.5 147.5t29 207.5q0 100 -21.5 181.5t-55.5 133.5t-80 88t-91 53t-92 21zM713 1470v-276
q-49 -4 -95 -21.5t-91 -54.5t-78.5 -89t-54.5 -132.5t-21 -179.5q0 -113 28.5 -203.5t77.5 -147t108 -88.5t126 -38v-277q-82 4 -160.5 26t-152 63t-135 104t-107.5 143.5t-71.5 187.5t-25.5 230q0 159 41 288.5t106 212.5t152.5 140.5t174.5 82.5t178 29zM418 1556v185h254
v-185h-254zM815 1556v185h258v-185h-258z" />
    <glyph glyph-name="uni04E7" unicode="&#x4e7;" horiz-adv-x="1169" 
d="M559 211v-236q-232 12 -365 163.5t-133 387.5q0 110 33 207t94 172t157 121t214 51v-235q-112 -10 -165.5 -94.5t-53.5 -221.5q0 -132 53 -218t166 -97zM621 -25v236q106 12 157 96t51 219q0 142 -55.5 223.5t-152.5 92.5v235q148 -7 259.5 -81t169.5 -196t58 -274
q0 -127 -39.5 -230.5t-107.5 -170.5t-154.5 -105t-185.5 -45zM256 1180v254h254v-254h-254zM653 1180v254h258v-254h-258z" />
    <glyph glyph-name="uni04E8" unicode="&#x4e8;" horiz-adv-x="1486" 
d="M774 596v248h330q-15 89 -50.5 157.5t-83 107.5t-96.5 59.5t-100 25.5v276q88 -4 173 -28t173.5 -80t154.5 -138t108 -213t42 -294q0 -151 -37.5 -276.5t-100.5 -210.5t-148 -145.5t-176.5 -89t-188.5 -32.5v277q119 10 211.5 99t118.5 257h-330zM713 1470v-276
q-53 -5 -103 -26t-97 -60.5t-81.5 -107.5t-48.5 -156h330v-248h-332q28 -164 119.5 -254.5t212.5 -101.5v-277q-82 4 -160.5 26t-152 63t-135 104t-107.5 143.5t-71.5 187.5t-25.5 230q0 159 41 288.5t106 212.5t152.5 140.5t174.5 82.5t178 29z" />
    <glyph glyph-name="uni04E9" unicode="&#x4e9;" horiz-adv-x="1169" 
d="M559 211v-236q-232 12 -365 163.5t-133 387.5q0 110 33 207t94 172t157 121t214 51v-235q-171 -17 -209 -209h209v-207h-211q16 -91 68.5 -148.5t142.5 -66.5zM621 426v207h198q-19 93 -70.5 146.5t-127.5 62.5v235q148 -7 259.5 -81t169.5 -196t58 -274
q0 -127 -39.5 -230.5t-107.5 -170.5t-154.5 -105t-185.5 -45v236q162 17 200 215h-200z" />
    <glyph glyph-name="uni04EA" unicode="&#x4ea;" horiz-adv-x="1486" 
d="M774 596v248h330q-15 89 -50.5 157.5t-83 107.5t-96.5 59.5t-100 25.5v276q88 -4 173 -28t173.5 -80t154.5 -138t108 -213t42 -294q0 -151 -37.5 -276.5t-100.5 -210.5t-148 -145.5t-176.5 -89t-188.5 -32.5v277q119 10 211.5 99t118.5 257h-330zM713 1470v-276
q-53 -5 -103 -26t-97 -60.5t-81.5 -107.5t-48.5 -156h330v-248h-332q28 -164 119.5 -254.5t212.5 -101.5v-277q-82 4 -160.5 26t-152 63t-135 104t-107.5 143.5t-71.5 187.5t-25.5 230q0 159 41 288.5t106 212.5t152.5 140.5t174.5 82.5t178 29zM416 1536v184h254v-184h-254
zM813 1536v184h258v-184h-258z" />
    <glyph glyph-name="uni04EB" unicode="&#x4eb;" horiz-adv-x="1169" 
d="M559 211v-236q-232 12 -365 163.5t-133 387.5q0 110 33 207t94 172t157 121t214 51v-235q-171 -17 -209 -209h209v-207h-211q16 -91 68.5 -148.5t142.5 -66.5zM621 426v207h198q-19 93 -70.5 146.5t-127.5 62.5v235q148 -7 259.5 -81t169.5 -196t58 -274
q0 -127 -39.5 -230.5t-107.5 -170.5t-154.5 -105t-185.5 -45v236q162 17 200 215h-200zM256 1180v254h254v-254h-254zM653 1180v254h258v-254h-258z" />
    <glyph glyph-name="uni04EC" unicode="&#x4ec;" horiz-adv-x="1415" 
d="M711 -37v277q136 10 220.5 107.5t110.5 252.5h-512v260h508q-29 151 -116 237t-211 97v276q91 -4 178 -29t174 -82.5t152.5 -140.5t106 -212.5t40.5 -288.5q0 -156 -44.5 -291.5t-126 -236.5t-205.5 -161t-275 -65zM649 240v-277q-97 3 -183 30t-149 67t-116 95.5
t-88 110.5t-62 117l283 133q39 -122 120.5 -194.5t194.5 -81.5zM649 1470v-276q-114 -10 -194 -83.5t-109 -168.5l-270 125q174 388 573 403zM379 1536v184h254v-184h-254zM776 1536v184h258v-184h-258z" />
    <glyph glyph-name="uni04ED" unicode="&#x4ed;" horiz-adv-x="1122" 
d="M539 -25v236q88 9 140.5 65.5t70.5 147.5h-330v227h325q-45 177 -206 191v235q118 -5 213.5 -51t157 -121t94 -172t32.5 -207q0 -246 -132.5 -392.5t-364.5 -158.5zM477 211v-236q-268 15 -426 285l221 129q34 -77 81.5 -123.5t123.5 -54.5zM477 1077v-235
q-135 -18 -190 -172l-217 118q61 125 162 203.5t245 85.5zM233 1180v254h254v-254h-254zM631 1180v254h258v-254h-258z" />
    <glyph glyph-name="uni04EE" unicode="&#x4ee;" horiz-adv-x="1312" 
d="M659 817l-157 -352l-482 969h340zM539 393l450 1041h324l-504 -1168q-70 -162 -165.5 -214t-313.5 -52h-166v266h61q164 0 221 21.5t93 105.5zM354 1554v166h604v-166h-604z" />
    <glyph glyph-name="uni04EF" unicode="&#x4ef;" horiz-adv-x="950" 
d="M358 23l316 1034h276l-366 -1147q-14 -41 -25.5 -67.5t-33.5 -55t-50.5 -44t-73.5 -26t-106 -10.5h-166v242h123q42 0 68.5 15t37.5 59zM446 549l-127 -416l-319 924h281zM172 1233v174h604v-174h-604z" />
    <glyph glyph-name="uni04F0" unicode="&#x4f0;" horiz-adv-x="1312" 
d="M659 817l-157 -352l-482 969h340zM539 393l450 1041h324l-504 -1168q-70 -162 -165.5 -214t-313.5 -52h-166v266h61q164 0 221 21.5t93 105.5zM328 1536v184h254v-184h-254zM725 1536v184h258v-184h-258z" />
    <glyph glyph-name="uni04F1" unicode="&#x4f1;" horiz-adv-x="950" 
d="M358 23l316 1034h276l-366 -1147q-14 -41 -25.5 -67.5t-33.5 -55t-50.5 -44t-73.5 -26t-106 -10.5h-166v242h123q42 0 68.5 15t37.5 59zM446 549l-127 -416l-319 924h281zM147 1180v254h254v-254h-254zM545 1180v254h258v-254h-258z" />
    <glyph glyph-name="uni04F2" unicode="&#x4f2;" horiz-adv-x="1312" 
d="M659 817l-157 -352l-482 969h340zM539 393l450 1041h324l-504 -1168q-70 -162 -165.5 -214t-313.5 -52h-166v266h61q164 0 221 21.5t93 105.5zM827 1720l-274 -184h-197l156 184h315zM1243 1720l-274 -184h-199l158 184h315z" />
    <glyph glyph-name="uni04F3" unicode="&#x4f3;" horiz-adv-x="950" 
d="M358 23l316 1034h276l-366 -1147q-14 -41 -25.5 -67.5t-33.5 -55t-50.5 -44t-73.5 -26t-106 -10.5h-166v242h123q42 0 68.5 15t37.5 59zM446 549l-127 -416l-319 924h281zM657 1454l-295 -274h-196l176 274h315zM1073 1454l-295 -274h-198l178 274h315z" />
    <glyph glyph-name="uni04F4" unicode="&#x4f4;" horiz-adv-x="1329" 
d="M856 786v-268q-159 -43 -305 -43q-102 0 -179.5 25.5t-126 68.5t-79 107t-42 134t-11.5 157v467h299v-465q0 -51 7 -89t21.5 -62t31.5 -39t44 -22.5t50.5 -9.5t58.5 -2q83 0 231 41zM918 0v1434h299v-1434h-299zM336 1536v184h254v-184h-254zM733 1536v184h258v-184h-258
z" />
    <glyph glyph-name="uni04F5" unicode="&#x4f5;" horiz-adv-x="1058" 
d="M686 0v1057h270v-1057h-270zM625 561v-207q-89 -18 -176 -18q-100 0 -170 28t-107.5 80.5t-53.5 115.5t-16 145v352h275v-352q0 -152 123 -152q70 0 125 8zM201 1180v254h254v-254h-254zM598 1180v254h258v-254h-258z" />
    <glyph glyph-name="uni04F8" unicode="&#x4f8;" horiz-adv-x="1759" 
d="M422 0h-299v1434h299v-1434zM483 731v246h224q127 0 223 -38t152.5 -106t84 -155t27.5 -193q0 -73 -15 -139.5t-52 -130.5t-92.5 -111t-142.5 -75.5t-196 -28.5h-213v266h193q114 0 178 57t64 162q0 129 -69 187.5t-173 58.5h-193zM1636 0h-299v1434h299v-1434zM551 1536
v184h254v-184h-254zM948 1536v184h258v-184h-258z" />
    <glyph glyph-name="uni04F9" unicode="&#x4f9;" horiz-adv-x="1409" 
d="M1286 0h-272v1057h272v-1057zM438 217h92q68 0 106 35t38 100q0 80 -41.5 116t-102.5 36h-92v213h115q99 0 173.5 -28t118.5 -78t65.5 -115t21.5 -144q0 -69 -20 -129t-63 -111.5t-121 -81.5t-183 -30h-107v217zM377 0h-275v1057h275v-1057zM377 1180v254h254v-254h-254z
M774 1180v254h258v-254h-258z" />
    <glyph glyph-name="uni1E0C" unicode="&#x1e0c;" horiz-adv-x="1378" 
d="M422 1434v-1434h-299v1434h299zM483 0v266h144q61 0 111 9.5t104.5 39.5t91 79.5t60.5 136t24 202.5q0 202 -104.5 320t-321.5 118h-109v263h140q264 0 432 -125q114 -86 188 -239t74 -335q0 -157 -36.5 -283t-98.5 -209t-149 -139t-183.5 -80t-206.5 -24h-160zM559 -367
v236h260v-236h-260z" />
    <glyph glyph-name="uni1E0D" unicode="&#x1e0d;" horiz-adv-x="1150" 
d="M774 0v1434h275v-1434h-275zM713 279v-252q-81 -52 -209 -52q-202 0 -322.5 147t-120.5 402q0 113 25 206t67.5 156.5t100.5 107t123 63.5t135 20q110 0 201 -51v-252q-58 66 -150 66q-99 0 -162 -82.5t-63 -235.5q0 -151 61.5 -228t163.5 -77q95 0 150 62zM455 -367v236
h260v-236h-260z" />
    <glyph glyph-name="uni1E24" unicode="&#x1e24;" horiz-adv-x="1402" 
d="M670 885v-264h-248v-621h-299v1434h299v-549h248zM731 621v264h250v549h299v-1434h-299v621h-250zM571 -367v236h260v-236h-260z" />
    <glyph glyph-name="uni1E25" unicode="&#x1e25;" horiz-adv-x="1099" 
d="M377 1434v-1434h-275v1434h275zM438 774v238q88 65 203 65q190 0 275 -98t85 -305v-674h-274v633q0 46 -2 73t-9.5 57t-22 45.5t-40.5 25.5t-65 10q-90 0 -150 -70zM418 -367v236h260v-236h-260z" />
    <glyph glyph-name="uni1E36" unicode="&#x1e36;" horiz-adv-x="1077" 
d="M422 1434v-1434h-299v1434h299zM483 0v266h553v-266h-553zM408 -367v236h260v-236h-260z" />
    <glyph glyph-name="uni1E37" unicode="&#x1e37;" horiz-adv-x="479" 
d="M377 0h-275v1434h275v-1434zM109 -367v236h260v-236h-260z" />
    <glyph glyph-name="uni1E42" unicode="&#x1e42;" horiz-adv-x="1595" 
d="M123 1264l283 -756v-508h-283v1264zM973 88l-139 373l356 973h283zM406 1434l534 -1434h-281l-536 1434h283zM1190 502l283 762v-1264h-283v502zM668 -367v236h260v-236h-260z" />
    <glyph glyph-name="uni1E43" unicode="&#x1e43;" horiz-adv-x="1667" 
d="M377 1057v-1057h-275v1057h275zM1026 782q-13 111 -70 215q71 42 138.5 61t158.5 19q80 0 140.5 -31t92.5 -75.5t52 -105.5t25.5 -109t5.5 -99v-657h-275v672q0 30 -1.5 50t-9 45t-20.5 40.5t-37.5 26t-58.5 10.5q-82 0 -141 -62zM973 598v-598h-275v672q0 39 -4 65.5
t-16 53t-38 40t-67 13.5q-83 0 -135 -62v228q88 67 205 67q81 0 141 -25.5t96 -67.5t57 -106t28.5 -129.5t7.5 -150.5zM698 -367v236h260v-236h-260z" />
    <glyph glyph-name="uni1E44" unicode="&#x1e44;" horiz-adv-x="1374" 
d="M1251 238l-284 440v756h284v-1196zM123 1196l285 -442v-754h-285v1196zM967 0l-844 1311v123h283l845 -1311v-123h-284zM557 1536v184h270v-184h-270z" />
    <glyph glyph-name="uni1E45" unicode="&#x1e45;" horiz-adv-x="1099" 
d="M377 1057v-1057h-275v1057h275zM438 774v238q88 65 203 65q190 0 275 -98t85 -305v-674h-274v633q0 46 -2 73t-9.5 57t-22 45.5t-40.5 25.5t-65 10q-90 0 -150 -70zM412 1208v236h270v-236h-270z" />
    <glyph glyph-name="uni1E46" unicode="&#x1e46;" horiz-adv-x="1374" 
d="M1251 238l-284 440v756h284v-1196zM123 1196l285 -442v-754h-285v1196zM967 0l-844 1311v123h283l845 -1311v-123h-284zM559 -367v236h260v-236h-260z" />
    <glyph glyph-name="uni1E47" unicode="&#x1e47;" horiz-adv-x="1099" 
d="M377 1057v-1057h-275v1057h275zM438 774v238q88 65 203 65q190 0 275 -98t85 -305v-674h-274v633q0 46 -2 73t-9.5 57t-22 45.5t-40.5 25.5t-65 10q-90 0 -150 -70zM420 -367v236h260v-236h-260z" />
    <glyph glyph-name="uni1E5A" unicode="&#x1e5a;" horiz-adv-x="1314" 
d="M483 760h236q88 0 141 53t53 164q0 100 -55 152.5t-139 52.5h-236v252h244q225 0 355 -118.5t130 -332.5q0 -309 -249 -420l311 -563h-330l-285 516h-176v244zM422 1434v-1434h-299v1434h299zM522 -367v236h260v-236h-260z" />
    <glyph glyph-name="uni1E5B" unicode="&#x1e5b;" horiz-adv-x="765" 
d="M377 1057v-1057h-275v1057h275zM438 731v252q87 84 240 84h37v-279h-84q-130 0 -193 -57zM111 -367v236h260v-236h-260z" />
    <glyph glyph-name="uni1E62" unicode="&#x1e62;" horiz-adv-x="1357" 
d="M715 1210v260q110 -6 205 -35.5t161.5 -75t112 -93t76.5 -101.5l-252 -153q-20 31 -38.5 54.5t-55 57.5t-90.5 56.5t-119 29.5zM653 233v-270q-203 7 -359.5 100t-242.5 244l258 156q18 -28 33.5 -49t48 -54.5t66.5 -56.5t86 -43t110 -27zM715 -37v270q45 0 89.5 9.5
t86.5 28.5t68 53.5t26 78.5q0 138 -205 170l-286 45q-53 9 -103 26t-101.5 49.5t-90 74.5t-62.5 105t-24 137q0 96 32.5 174.5t86 130t124.5 87t145 51.5t152 17v-258q-112 -1 -172.5 -46.5t-60.5 -108.5q0 -127 196 -156l256 -39q196 -29 310 -134.5t114 -291.5
q0 -93 -36 -175.5t-105 -148.5t-182.5 -106t-257.5 -43zM555 -387v235h260v-235h-260z" />
    <glyph glyph-name="uni1E63" unicode="&#x1e63;" horiz-adv-x="1064" 
d="M565 -27v232q73 5 116.5 34t43.5 74q0 16 -7.5 29t-24.5 22.5t-36 16.5t-51 14t-59.5 12t-72.5 13.5t-79 15.5q-151 31 -221 104t-70 199q0 151 112 240t288 98v-225q-60 -4 -91.5 -28t-31.5 -64q0 -20 12.5 -35t37.5 -25t52 -16t66 -12l145 -25q156 -27 233 -107
t77 -192q0 -170 -118 -268t-321 -107zM504 205v-232q-283 6 -463 195l201 168q47 -52 117 -88t145 -43zM565 852v225q246 -8 410 -180l-170 -168q-101 112 -240 123zM397 -387v235h260v-235h-260z" />
    <glyph glyph-name="uni1E6C" unicode="&#x1e6c;" horiz-adv-x="1183" 
d="M803 1167v267h340v-267h-340zM381 1167h-340v267h340v-267zM442 1434h299v-1434h-299v1434zM461 -367v236h260v-236h-260z" />
    <glyph glyph-name="uni1E6D" unicode="&#x1e6d;" horiz-adv-x="757" 
d="M700 827h-217v-448q0 -79 24.5 -107t100.5 -28q53 0 92 2v-250q-41 -6 -174 -6q-97 0 -160 18t-98 57t-48 90t-13 128v544h-176v230h176v377h276v-377h217v-230zM311 -367v236h260v-236h-260z" />
    <glyph glyph-name="Wgrave" unicode="&#x1e80;" horiz-adv-x="1767" 
d="M692 0h-317l-344 1434h303zM584 684l151 750h295l383 -1434h-297l-242 915l-153 -776zM1290 698l150 736h297l-295 -1305zM799 1536l-262 184h292l168 -184h-198z" />
    <glyph glyph-name="wgrave" unicode="&#x1e81;" horiz-adv-x="1523" 
d="M627 113l-121 419l153 525h242l293 -1057h-264l-168 580zM291 1057l303 -1057h-264l-320 1057h281zM1227 111l-129 469l135 477h280zM664 1180l-304 274h314l188 -274h-198z" />
    <glyph glyph-name="Wacute" unicode="&#x1e82;" horiz-adv-x="1767" 
d="M692 0h-317l-344 1434h303zM584 684l151 750h295l383 -1434h-297l-242 915l-153 -776zM1290 698l150 736h297l-295 -1305zM1247 1720l-266 -184h-199l150 184h315z" />
    <glyph glyph-name="wacute" unicode="&#x1e83;" horiz-adv-x="1523" 
d="M627 113l-121 419l153 525h242l293 -1057h-264l-168 580zM291 1057l303 -1057h-264l-320 1057h281zM1227 111l-129 469l135 477h280zM1169 1454l-307 -274h-198l190 274h315z" />
    <glyph glyph-name="Wdieresis" unicode="&#x1e84;" horiz-adv-x="1767" 
d="M692 0h-317l-344 1434h303zM584 684l151 750h295l383 -1434h-297l-242 915l-153 -776zM1290 698l150 736h297l-295 -1305zM555 1536v184h254v-184h-254zM952 1536v184h258v-184h-258z" />
    <glyph glyph-name="wdieresis" unicode="&#x1e85;" horiz-adv-x="1523" 
d="M627 113l-121 419l153 525h242l293 -1057h-264l-168 580zM291 1057l303 -1057h-264l-320 1057h281zM1227 111l-129 469l135 477h280zM434 1180v254h254v-254h-254zM831 1180v254h259v-254h-259z" />
    <glyph glyph-name="uni1EB8" unicode="&#x1eb8;" horiz-adv-x="1204" 
d="M483 1167v267h613v-267h-613zM483 600v260h580v-260h-580zM483 0v266h639v-266h-639zM422 1434v-1434h-299v1434h299zM487 -367v236h261v-236h-261z" />
    <glyph glyph-name="uni1EB9" unicode="&#x1eb9;" horiz-adv-x="1114" 
d="M600 -25v236q49 3 86.5 16t62.5 37t41 47t33 58l226 -133q-151 -249 -449 -261zM410 662h344q-3 26 -12 50.5t-25.5 52t-46.5 48.5t-70 29v235q235 -14 358 -217q95 -159 95 -397h-654q-4 25 -4 80q0 67 15 119zM334 543q0 -291 205 -332v-236q-59 5 -120 23.5t-126.5 60
t-116 100t-83 149t-32.5 200.5q0 121 29.5 218.5t77 160t111.5 105.5t128 62t132 23v-235q-56 -2 -97.5 -27.5t-64 -68.5t-33 -93.5t-10.5 -109.5zM426 -387v235h260v-235h-260z" />
    <glyph glyph-name="uni1ECC" unicode="&#x1ecc;" horiz-adv-x="1486" 
d="M774 1194v276q88 -4 173 -28t173.5 -80t154.5 -138t108 -213t42 -294q0 -151 -37.5 -276.5t-100.5 -210.5t-148 -145.5t-176.5 -89t-188.5 -32.5v277q66 5 124.5 35.5t108 86.5t78.5 147.5t29 207.5q0 100 -21.5 181.5t-55.5 133.5t-80 88t-91 53t-92 21zM713 1470v-276
q-49 -4 -95 -21.5t-91 -54.5t-78.5 -89t-54.5 -132.5t-21 -179.5q0 -113 28.5 -203.5t77.5 -147t108 -88.5t126 -38v-277q-82 4 -160.5 26t-152 63t-135 104t-107.5 143.5t-71.5 187.5t-25.5 230q0 159 41 288.5t106 212.5t152.5 140.5t174.5 82.5t178 29zM612 -387v235h260
v-235h-260z" />
    <glyph glyph-name="uni1ECD" unicode="&#x1ecd;" horiz-adv-x="1169" 
d="M559 211v-236q-232 12 -365 163.5t-133 387.5q0 110 33 207t94 172t157 121t214 51v-235q-112 -10 -165.5 -94.5t-53.5 -221.5q0 -132 53 -218t166 -97zM621 -25v236q106 12 157 96t51 219q0 142 -55.5 223.5t-152.5 92.5v235q148 -7 259.5 -81t169.5 -196t58 -274
q0 -127 -39.5 -230.5t-107.5 -170.5t-154.5 -105t-185.5 -45zM455 -387v235h260v-235h-260z" />
    <glyph glyph-name="Ygrave" unicode="&#x1ef2;" horiz-adv-x="1263" 
d="M778 578v-578h-297v578l-461 856h304zM662 922l282 512h299l-430 -797zM561 1536l-262 184h293l168 -184h-199z" />
    <glyph glyph-name="ygrave" unicode="&#x1ef3;" horiz-adv-x="970" 
d="M369 23l315 1034h277l-367 -1147q-14 -41 -25.5 -67.5t-33.5 -55t-50.5 -44t-73.5 -26t-106 -10.5h-166v242h123q42 0 69 15.5t38 58.5zM457 549l-127 -416l-320 924h281zM395 1180l-303 274h314l188 -274h-199z" />
    <glyph glyph-name="endash" unicode="&#x2013;" horiz-adv-x="798" 
d="M41 502v248h717v-248h-717z" />
    <glyph glyph-name="emdash" unicode="&#x2014;" horiz-adv-x="1228" 
d="M41 502v248h1147v-248h-1147z" />
    <glyph glyph-name="horizontalbar" unicode="&#x2015;" horiz-adv-x="1925" 
d="M41 573v277h1843v-277h-1843z" />
    <glyph glyph-name="quoteleft" unicode="&#x2018;" horiz-adv-x="454" 
d="M82 840v274q0 96 66.5 191t156.5 139l57 -101q-52 -30 -87 -88.5t-35 -119.5h133v-295h-291z" />
    <glyph glyph-name="quoteright" unicode="&#x2019;" horiz-adv-x="454" 
d="M373 1434v-275q0 -97 -66 -191.5t-157 -138.5l-60 99q53 29 88 89.5t35 121.5h-131v295h291z" />
    <glyph glyph-name="quotesinglbase" unicode="&#x201a;" horiz-adv-x="454" 
d="M373 295v-275q0 -97 -66 -191t-157 -138l-60 98q53 29 88 89.5t35 121.5h-131v295h291z" />
    <glyph glyph-name="quotereversed" unicode="&#x201b;" horiz-adv-x="454" 
d="M82 1159v275h291v-295h-133q0 -61 35 -121t87 -90l-57 -99q-91 44 -157 138.5t-66 191.5z" />
    <glyph glyph-name="quotedblleft" unicode="&#x201c;" horiz-adv-x="884" 
d="M82 840v274q0 96 66.5 191t156.5 139l57 -101q-56 -29 -89 -87t-33 -121h133v-295h-291zM512 840v274q0 96 66.5 191t156.5 139l60 -101q-53 -29 -88 -88t-35 -120h131v-295h-291z" />
    <glyph glyph-name="quotedblright" unicode="&#x201d;" horiz-adv-x="884" 
d="M803 1434v-275q0 -97 -66 -191.5t-157 -138.5l-58 99q56 29 89.5 88.5t33.5 122.5h-133v295h291zM373 1434v-275q0 -97 -66 -191.5t-157 -138.5l-60 99q53 29 88 89.5t35 121.5h-131v295h291z" />
    <glyph glyph-name="quotedblbase" unicode="&#x201e;" horiz-adv-x="884" 
d="M803 295v-275q0 -97 -66 -191t-157 -138l-58 98q56 29 89.5 88.5t33.5 122.5h-133v295h291zM373 295v-275q0 -97 -66 -191t-157 -138l-60 98q53 29 88 89.5t35 121.5h-131v295h291z" />
    <glyph glyph-name="uni201F" unicode="&#x201f;" horiz-adv-x="884" 
d="M82 1159v275h291v-295h-133q0 -63 33 -123t89 -88l-57 -99q-91 44 -157 138.5t-66 191.5zM512 1159v275h291v-295h-131q0 -61 35 -121.5t88 -89.5l-60 -99q-91 44 -157 138.5t-66 191.5z" />
    <glyph glyph-name="dagger" unicode="&#x2020;" horiz-adv-x="1153" 
d="M442 -340v1155h-376v217h376v402h254v-402h381v-217h-381v-1155h-254z" />
    <glyph glyph-name="daggerdbl" unicode="&#x2021;" horiz-adv-x="1153" 
d="M442 -340v399h-376v217h376v539h-376v217h376v402h254v-402h381v-217h-381v-539h381v-217h-381v-399h-254z" />
    <glyph glyph-name="bullet" unicode="&#x2022;" horiz-adv-x="671" 
d="M123 733q0 88 62.5 150.5t150.5 62.5t150.5 -62.5t62.5 -150.5t-62.5 -150.5t-150.5 -62.5t-150.5 62.5t-62.5 150.5z" />
    <glyph glyph-name="ellipsis" unicode="&#x2026;" horiz-adv-x="1474" 
d="M123 0v297h246v-297h-246zM614 0v297h246v-297h-246zM1106 0v297h246v-297h-246z" />
    <glyph glyph-name="perthousand" unicode="&#x2030;" horiz-adv-x="3031" 
d="M479 492v163q79 10 125.5 82.5t46.5 241.5q0 150 -46 229t-126 88v162q168 -9 271.5 -130.5t103.5 -346.5q0 -118 -30 -211t-82.5 -151t-118.5 -90t-144 -37zM438 655v-163q-77 3 -143 34t-118 89t-81.5 150t-29.5 208q0 226 106.5 351.5t265.5 133.5v-162
q-78 -9 -122 -91.5t-44 -231.5q0 -151 45 -230.5t121 -87.5zM522 -33l854 1485h221l-847 -1485h-228zM1704 -25v164q79 10 125.5 82.5t46.5 241.5q0 150 -46 229t-126 88v162q168 -9 271.5 -130.5t103.5 -346.5q0 -118 -30 -211.5t-82.5 -151.5t-119 -90t-143.5 -37z
M1663 139v-164q-77 3 -143.5 34.5t-118 89.5t-81.5 150t-30 208q0 115 30 207.5t82 151t118.5 90.5t142.5 36v-162q-78 -9 -122 -91.5t-44 -231.5q0 -151 45 -230.5t121 -87.5zM2603 -25v164q79 10 125.5 82.5t46.5 241.5q0 150 -46 229t-126 88v162q168 -9 271.5 -130.5
t103.5 -346.5q0 -118 -30 -211.5t-82.5 -151.5t-119 -90t-143.5 -37zM2562 139v-164q-77 3 -143.5 34.5t-118 89.5t-81.5 150t-30 208q0 115 30 207.5t82 151t118.5 90.5t142.5 36v-162q-78 -9 -122 -91.5t-44 -231.5q0 -151 45 -230.5t121 -87.5z" />
    <glyph glyph-name="guilsinglleft" unicode="&#x2039;" horiz-adv-x="505" 
d="M408 160l-316 252v270l316 248v-242l-181 -141l181 -146v-241z" />
    <glyph glyph-name="guilsinglright" unicode="&#x203a;" horiz-adv-x="505" 
d="M92 930l316 -248v-270l-316 -252v241l180 146l-180 141v242z" />
    <glyph glyph-name="fraction" unicode="&#x2044;" horiz-adv-x="460" 
d="M-307 -33l854 1485h221l-848 -1485h-227z" />
    <glyph glyph-name="zerosuperior" unicode="&#x2070;" horiz-adv-x="911" 
d="M475 492v163q79 10 125.5 82.5t46.5 241.5q0 150 -46 229t-126 88v162q168 -9 271.5 -130.5t103.5 -346.5q0 -118 -30 -211t-82.5 -151t-118.5 -90t-144 -37zM434 655v-163q-77 3 -143.5 34.5t-118 89t-81.5 149.5t-30 208q0 115 30 207.5t82 151t118.5 90.5t142.5 36
v-162q-78 -9 -122 -91.5t-44 -231.5q0 -151 45 -230.5t121 -87.5z" />
    <glyph glyph-name="foursuperior" unicode="&#x2074;" horiz-adv-x="878" 
d="M446 1145l-204 -268h204v-140h-385v133l385 508v-233zM487 1434h199v-557h131v-140h-131v-221h-199v918z" />
    <glyph glyph-name="fivesuperior" unicode="&#x2075;" horiz-adv-x="868" 
d="M395 649v-157q-155 4 -239 81t-95 220l191 10q5 -59 42.5 -103t100.5 -51zM373 1276l28 158h367l-23 -158h-372zM358 1434l-96 -512l-166 14l94 498h168zM317 981l31 164q62 20 123 20q143 0 239.5 -88t96.5 -241q0 -148 -105.5 -241.5t-265.5 -102.5v155q81 6 124.5 61
t43.5 123q0 79 -50 130t-126 51q-68 0 -111 -31z" />
    <glyph glyph-name="sixsuperior" unicode="&#x2076;" horiz-adv-x="862" 
d="M311 915v175q61 38 166 38q142 0 233 -83t91 -228q0 -134 -94.5 -225t-243.5 -100v163q61 9 99 50t38 108q0 70 -44 115t-120 45q-77 0 -125 -58zM270 1083v-163q0 -130 43 -194t107 -71v-163q-165 6 -262 125.5t-97 336.5q0 231 101 360.5t272 143.5v-162
q-73 -8 -118.5 -63.5t-45.5 -149.5zM475 1296v162q72 0 137 -24t116 -83t60 -145l-194 -16q-1 13 -5.5 25.5t-16 30t-36.5 31t-61 19.5z" />
    <glyph glyph-name="sevensuperior" unicode="&#x2077;" horiz-adv-x="819" 
d="M668 1434h90v-162q-27 -31 -51 -59.5t-75 -105.5t-89.5 -154.5t-77.5 -196t-57 -240.5h-238q22 98 50.5 186.5t66.5 167t69.5 137.5t81 128.5t76.5 105.5t81.5 103t72.5 90zM614 1434l-129 -162h-424v162h553z" />
    <glyph glyph-name="eightsuperior" unicode="&#x2078;" horiz-adv-x="886" 
d="M418 653v-161q-89 4 -159.5 31t-112.5 68.5t-63.5 89.5t-21.5 97q0 85 51.5 144.5t106.5 76.5q-52 27 -91.5 77.5t-39.5 121.5q0 106 91 180t239 80v-160q-62 -6 -98.5 -35.5t-36.5 -74.5t37 -78t98 -39v-153q-66 -5 -110 -41.5t-44 -92.5q0 -54 43.5 -88.5t110.5 -42.5z
M461 492v161q69 6 113 40.5t44 90.5q0 58 -44 93.5t-113 40.5v153q61 5 99 36.5t38 80.5q0 46 -35.5 75t-101.5 35v160q152 -6 242 -79t90 -175q0 -57 -24 -101.5t-50.5 -65.5t-56.5 -33q25 -9 50 -25.5t52 -43.5t44 -68.5t17 -90.5q0 -106 -95.5 -192t-268.5 -92z" />
    <glyph glyph-name="ninesuperior" unicode="&#x2079;" horiz-adv-x="868" 
d="M557 1026v-170q-61 -35 -170 -35q-142 0 -234 83.5t-92 228.5q0 134 95.5 225t244.5 100v-162q-61 -9 -100 -51t-39 -108q0 -71 43.5 -117.5t122.5 -46.5q85 0 129 53zM600 885v141q0 132 -44.5 196.5t-111.5 73.5v162q164 -6 263.5 -126.5t99.5 -336.5
q0 -231 -102.5 -360t-274.5 -143v163q32 6 54 12.5t46 22.5t38 39.5t23 62.5t9 93zM389 655v-163q-125 0 -215.5 62t-103.5 189l192 17q15 -93 127 -105z" />
    <glyph glyph-name="parenleftsuperior" unicode="&#x207d;" horiz-adv-x="505" 
d="M330 1671l112 -59q-78 -125 -122 -269.5t-44 -357.5q0 -84 10 -164t21.5 -134t35 -118.5t35.5 -91.5t37.5 -79t28.5 -58l-112 -57q-43 47 -84.5 108t-86.5 149.5t-72.5 203t-27.5 233.5q0 120 27.5 236t70.5 203.5t86 151t85 103.5z" />
    <glyph glyph-name="parenrightsuperior" unicode="&#x207e;" horiz-adv-x="505" 
d="M63 1612l111 59q42 -40 86 -103.5t87 -151t70 -203.5t27 -236q0 -119 -27.5 -233.5t-72.5 -203t-87 -149.5t-85 -108l-111 57q27 53 41 81.5t42 99t43 130.5t27.5 150t12.5 184q0 214 -43.5 358.5t-120.5 268.5z" />
    <glyph glyph-name="uni207F" unicode="&#x207f;" horiz-adv-x="735" 
d="M248 1196v-676h-187v676h187zM291 1016v151q60 43 137 43q129 0 187.5 -63t58.5 -195v-432h-189v406q0 38 -2 57.5t-11 40t-28.5 29t-52.5 8.5q-58 0 -100 -45z" />
    <glyph glyph-name="zeroinferior" unicode="&#x2080;" horiz-adv-x="911" 
d="M475 -25v164q79 10 125.5 82.5t46.5 241.5q0 150 -46 229t-126 88v162q168 -9 271.5 -130.5t103.5 -346.5q0 -118 -30 -211.5t-82.5 -151.5t-119 -90t-143.5 -37zM434 139v-164q-77 3 -143.5 34.5t-118 89.5t-81.5 150t-30 208q0 115 30 207.5t82 151t118.5 90.5
t142.5 36v-162q-78 -9 -122 -91.5t-44 -231.5q0 -151 45 -230.5t121 -87.5z" />
    <glyph glyph-name="oneinferior" unicode="&#x2081;" horiz-adv-x="571" 
d="M449 0h-197v586q0 30 -11.5 37.5t-47.5 7.5h-132v127q183 0 234 160h154v-918z" />
    <glyph glyph-name="twoinferior" unicode="&#x2082;" horiz-adv-x="833" 
d="M61 0v162l283 205q140 101 180.5 151.5t40.5 120.5q0 47 -35.5 92.5t-91.5 52.5v158q158 -9 245 -93.5t87 -215.5q0 -54 -18.5 -102t-55 -89.5t-71.5 -72t-88 -68.5l-420 -301h-56zM416 162h356v-162h-586zM395 942v-158q-61 -7 -101 -52t-40 -101q0 -18 1 -49.5t1 -36.5
l-195 20v74q0 51 21.5 102t61.5 95.5t105.5 73.5t145.5 32z" />
    <glyph glyph-name="threeinferior" unicode="&#x2083;" horiz-adv-x="860" 
d="M410 133v-158q-162 6 -250 87.5t-99 230.5l197 20q12 -85 45 -131t107 -49zM451 -25v158q59 7 103 41t44 96q0 38 -16 65.5t-36.5 41.5t-48 22t-43.5 9.5t-30 1.5h-74v139h78q34 0 66 9.5t59 37.5t27 72q0 52 -37.5 84t-91.5 39v151q145 -6 235 -79t90 -181
q0 -78 -44 -126t-99 -67q23 -6 49 -21t53.5 -40.5t45.5 -66.5t18 -89q0 -131 -100 -211.5t-248 -85.5zM410 942v-151q-67 -7 -100 -53.5t-38 -112.5l-190 20q6 53 26 101t57.5 92t100.5 72t144 32z" />
    <glyph glyph-name="fourinferior" unicode="&#x2084;" horiz-adv-x="878" 
d="M446 629l-204 -269h204v-139h-385v133l385 508v-233zM487 918h199v-558h131v-139h-131v-221h-199v918z" />
    <glyph glyph-name="fiveinferior" unicode="&#x2085;" horiz-adv-x="868" 
d="M395 133v-158q-155 4 -239 81t-95 220l191 11q5 -59 42.5 -103t100.5 -51zM373 760l28 158h367l-23 -158h-372zM358 918l-96 -512l-166 14l94 498h168zM317 465l31 164q62 20 123 20q143 0 239.5 -88.5t96.5 -241.5q0 -148 -105.5 -241.5t-265.5 -102.5v156
q81 6 124.5 61t43.5 123q0 79 -50 130t-126 51q-68 0 -111 -31z" />
    <glyph glyph-name="sixinferior" unicode="&#x2086;" horiz-adv-x="862" 
d="M311 399v174q63 39 166 39q142 0 233 -83t91 -228q0 -134 -94.5 -225.5t-243.5 -100.5v164q61 9 99 50t38 108q0 70 -44 115t-120 45q-77 0 -125 -58zM270 567v-164q0 -129 43 -193t107 -71v-164q-165 6 -262 126t-97 337q0 231 101 360.5t272 143.5v-162
q-73 -8 -118.5 -63.5t-45.5 -149.5zM475 780v162q72 0 137 -24t116 -83t60 -145l-194 -16q-1 13 -5.5 25.5t-16 30t-36.5 31t-61 19.5z" />
    <glyph glyph-name="seveninferior" unicode="&#x2087;" horiz-adv-x="819" 
d="M668 918h90v-162q-27 -31 -51 -59.5t-75 -105.5t-89.5 -154.5t-77.5 -196t-57 -240.5h-238q22 98 50.5 186.5t66.5 167t69.5 137.5t81 128.5t76.5 105.5t81.5 103t72.5 90zM614 918l-129 -162h-424v162h553z" />
    <glyph glyph-name="eightinferior" unicode="&#x2088;" horiz-adv-x="886" 
d="M418 137v-162q-89 4 -159.5 31t-112.5 69t-63.5 90t-21.5 97q0 85 51.5 144.5t106.5 76.5q-52 27 -91.5 77.5t-39.5 121.5q0 106 91 180t239 80v-160q-62 -6 -98.5 -35.5t-36.5 -74.5t37 -78t98 -39v-154q-66 -5 -110 -41t-44 -92q0 -54 43.5 -88.5t110.5 -42.5zM461 -25
v162q69 6 113 40.5t44 90.5q0 58 -44 93t-113 40v154q61 5 99 36.5t38 80.5q0 46 -35.5 75t-101.5 35v160q152 -6 242 -79t90 -175q0 -43 -13 -79.5t-34.5 -60t-42 -38t-41.5 -23.5q25 -9 50 -25t52 -43t44 -68.5t17 -90.5q0 -106 -95.5 -192.5t-268.5 -92.5z" />
    </font>
</defs>
</svg>
